<?xml version="1.0" encoding="UTF-8" standalone="no"?>
<svg
   id="svg8"
   version="1.1"
   viewBox="0 0 210 297"
   height="297mm"
   width="210mm"
   sodipodi:docname="drawing.svg"
   inkscape:version="1.1.2 (b8e25be833, 2022-02-05)"
   xmlns:inkscape="http://www.inkscape.org/namespaces/inkscape"
   xmlns:sodipodi="http://sodipodi.sourceforge.net/DTD/sodipodi-0.dtd"
   xmlns="http://www.w3.org/2000/svg"
   xmlns:svg="http://www.w3.org/2000/svg"
   xmlns:rdf="http://www.w3.org/1999/02/22-rdf-syntax-ns#"
   xmlns:cc="http://creativecommons.org/ns#"
   xmlns:dc="http://purl.org/dc/elements/1.1/">
  <sodipodi:namedview
     pagecolor="#ffffff"
     bordercolor="#666666"
     borderopacity="1"
     objecttolerance="10"
     gridtolerance="10"
     guidetolerance="10"
     inkscape:pageopacity="0"
     inkscape:pageshadow="2"
     inkscape:window-width="1280"
     inkscape:window-height="730"
     id="namedview16"
     showgrid="false"
     inkscape:zoom="6.9617725"
     inkscape:cx="57.528453"
     inkscape:cy="10.126731"
     inkscape:window-x="-6"
     inkscape:window-y="-6"
     inkscape:window-maximized="1"
     inkscape:current-layer="svg8"
     inkscape:pagecheckerboard="0"
     inkscape:document-units="mm" />
  <defs
     id="defs2" />
  <metadata
     id="metadata5">
    <rdf:RDF>
      <cc:Work
         rdf:about="">
        <dc:format>image/svg+xml</dc:format>
        <dc:type
           rdf:resource="http://purl.org/dc/dcmitype/StillImage" />
        <dc:title />
      </cc:Work>
    </rdf:RDF>
  </metadata>
  <path
     inkscape:connector-curvature="0"
     style="opacity:1;fill:#060014;fill-opacity:1;fill-rule:evenodd;stroke:none;stroke-width:0.11368249;stroke-miterlimit:4;stroke-dasharray:none;stroke-opacity:1"
     d="m -11.287003,-1.4237752 v 0.92907247 h -0.191048 v 0.92878812 l 0.375109,1.80917711 h 0.942468 0.6187773 l 0.378494,-1.82525421 h 5.5504393 l 1.769433,1.32029911 h 3.687556 l 1.769432,-1.32029911 h 5.550439 L 9.5425916,2.2432625 H 10.16137 11.103836 L 11.478947,0.43408539 V -0.49470273 H 11.287898 V -1.4237752 H 9.5599486 v 0.92907247 H 3.5936796 L 2.6354906,-1.7330266 h -5.270088 l -0.958188,1.23832387 H -9.5590547 V -1.4237752 Z m 0.288865,1.97538879 h 1.3525123 l -0.23227,1.21316791 -0.9086453,0.00413 z m 20.6288286,0 h 1.3525134 l -0.207818,1.27086301 -0.9169152,0.00207 z"
     id="path4620-3"
     inkscape:label="body"
     sodipodi:nodetypes="ccccccccccccccccccccccccccccccccccccccc" />
  <path
     id="path5324"
     d="M 4.4658675e-4,-0.87899514 A 0.88802611,0.88802611 0 0 0 -0.88769341,0.00914746 H 4.4658675e-4 Z m 0,0.8881426 v 0.8881426 A 0.88802611,0.88802611 0 0 0 0.88858959,0.00914746 Z"
     style="opacity:1;fill:#fbfaff;fill-opacity:1;fill-rule:evenodd;stroke:none;stroke-width:0.1345858;stroke-miterlimit:4;stroke-dasharray:none;stroke-dashoffset:0;stroke-opacity:1"
     inkscape:connector-curvature="0"
     inkscape:label="mass-2" />
  <path
     id="path5324-4"
     d="m -0.88769441,0.00914766 a 0.88802611,0.88802611 0 0 0 0.88814299675,0.8881423 v -0.8881423 z m 0.88814299675,0 H 0.88859159 A 0.88802611,0.88802611 0 0 0 4.4858675e-4,-0.87899494 Z"
     style="opacity:1;fill:#878787;fill-opacity:1;fill-rule:evenodd;stroke:none;stroke-width:0.1345858;stroke-miterlimit:4;stroke-dasharray:none;stroke-dashoffset:0;stroke-opacity:1"
     inkscape:connector-curvature="0"
     inkscape:label="mass-1" />
  <path
     inkscape:connector-curvature="0"
     style="opacity:1;fill:#060014;fill-opacity:1;fill-rule:evenodd;stroke:none;stroke-width:0.113682;stroke-miterlimit:4;stroke-dasharray:none;stroke-opacity:1"
     d="m -10.20786,-1.4022277 4.83e-4,-0.37966 0.169542,2.138e-4 6.68e-4,-0.5292255 2.19e-4,-0.1735394 c 0.4519613,0.2654416 1.7866867,0.4474884 3.297364,0.4497168 1.9114835,0.00241 3.4613515,-0.2804081 3.4616074,-0.6316619 2.111e-4,-0.3512018 -1.5488198,-0.6378392 -3.4600032,-0.6402496 -1.5079778,-0.00182 -2.8423161,0.1759902 -3.2984852,0.4395623 l 4.74e-4,-0.3757178 -0.245406,-0.2671068 -0.274782,-3.461e-4 -0.245969,0.2664869 -4.51e-4,0.3614755 c -0.47914,-0.2572694 -1.791772,-0.4314179 -3.268454,-0.4336034 -1.911183,-0.00241 -3.460932,0.2803184 -3.461607,0.6315199 -6.28e-4,0.3512527 1.548519,0.6379809 3.460003,0.6403917 1.476483,0.00159 2.789488,-0.1692073 3.269537,-0.425215 l -1.94e-4,0.1573197 -6.68e-4,0.5292256 0.169432,2.132e-4 -4.84e-4,0.37966 z"
     id="path4620-3-3"
     sodipodi:nodetypes="ccccccccccccccccccccccc"
     inkscape:label="rotor" />
  <path
     inkscape:connector-curvature="0"
     style="opacity:1;fill:#060014;fill-opacity:1;fill-rule:evenodd;stroke:none;stroke-width:0.113682;stroke-miterlimit:4;stroke-dasharray:none;stroke-opacity:1"
     d="m 10.680546,-1.387443 -4.55e-4,-0.37966 0.169541,-2.013e-4 -6.29e-4,-0.5292255 -2.06e-4,-0.1735396 c 0.452608,0.2643344 1.787776,0.4431127 3.298454,0.4416426 1.911484,-0.00227 3.460655,-0.2888823 3.460051,-0.6401353 -6.48e-4,-0.3512012 -1.550378,-0.6340453 -3.461561,-0.6317763 -1.507978,0.00187 -2.841877,0.1829487 -3.297398,0.4476373 l -4.43e-4,-0.3757174 -0.24606,-0.2665052 -0.27478,3.258e-4 -0.245317,0.2670883 4.29e-4,0.361476 c -0.4797686,-0.2560956 -1.7928234,-0.4270296 -3.2695057,-0.4256 -1.9111837,0.00227 -3.4602357,0.2887914 -3.4600507,0.6399932 2.29e-4,0.3512536 1.550076,0.6341878 3.4615606,0.6319186 1.4764817,-0.00202 2.789065,-0.1760366 3.2684868,-0.433219 l 1.82e-4,0.1573198 6.29e-4,0.5292254 0.169433,-2.006e-4 4.55e-4,0.37966 z"
     id="path4620-3-3-6"
     sodipodi:nodetypes="ccccccccccccccccccccccc"
     inkscape:label="rotor" />
</svg>
