<?xml version="1.0" encoding="UTF-8" standalone="no"?>
<svg
   xmlns:dc="http://purl.org/dc/elements/1.1/"
   xmlns:cc="http://creativecommons.org/ns#"
   xmlns:rdf="http://www.w3.org/1999/02/22-rdf-syntax-ns#"
   xmlns:svg="http://www.w3.org/2000/svg"
   xmlns="http://www.w3.org/2000/svg"
   xmlns:sodipodi="http://sodipodi.sourceforge.net/DTD/sodipodi-0.dtd"
   xmlns:inkscape="http://www.inkscape.org/namespaces/inkscape"
   id="svg8"
   version="1.1"
   viewBox="0 0 210 297"
   height="297mm"
   width="210mm"
   sodipodi:docname="drawing.svg"
   inkscape:version="0.92.5 (2060ec1f9f, 2020-04-08)">
  <sodipodi:namedview
     pagecolor="#ffffff"
     bordercolor="#666666"
     borderopacity="1"
     objecttolerance="10"
     gridtolerance="10"
     guidetolerance="10"
     inkscape:pageopacity="0"
     inkscape:pageshadow="2"
     inkscape:window-width="2488"
     inkscape:window-height="1376"
     id="namedview16"
     showgrid="false"
     inkscape:zoom="8"
     inkscape:cx="-55.128789"
     inkscape:cy="1160.0006"
     inkscape:window-x="72"
     inkscape:window-y="27"
     inkscape:window-maximized="1"
     inkscape:current-layer="svg8" />
  <defs
     id="defs2" />
  <metadata
     id="metadata5">
    <rdf:RDF>
      <cc:Work
         rdf:about="">
        <dc:format>image/svg+xml</dc:format>
        <dc:type
           rdf:resource="http://purl.org/dc/dcmitype/StillImage" />
        <dc:title />
      </cc:Work>
    </rdf:RDF>
  </metadata>
  <path
     inkscape:connector-curvature="0"
     style="opacity:1;fill:#060014;fill-opacity:1;fill-rule:evenodd;stroke:none;stroke-width:0.11368249;stroke-miterlimit:4;stroke-dasharray:none;stroke-opacity:1"
     d="m -11.287003,-1.4237752 v 0.92907247 h -0.191048 v 0.92878812 l 0.375109,1.80917711 h 0.942468 0.6187773 l 0.378494,-1.82525421 h 5.5504393 l 1.769433,1.32029911 h 3.687556 l 1.769432,-1.32029911 h 5.550439 L 9.5425916,2.2432625 H 10.16137 11.103836 L 11.478947,0.43408539 V -0.49470273 H 11.287898 V -1.4237752 H 9.5599486 v 0.92907247 H 3.5936796 L 2.6354906,-1.7330266 h -5.270088 l -0.958188,1.23832387 H -9.5590547 V -1.4237752 Z m 0.288865,1.97538879 h 1.3525123 l -0.23227,1.21316791 -0.9086453,0.00413 z m 20.6288286,0 h 1.3525134 l -0.207818,1.27086301 -0.9169152,0.00207 z"
     id="path4620-3"
     inkscape:label="body"
     sodipodi:nodetypes="ccccccccccccccccccccccccccccccccccccccc" />
  <path
     id="path5324"
     d="M 4.4658675e-4,-0.87899514 A 0.88802611,0.88802611 0 0 0 -0.88769341,0.00914746 H 4.4658675e-4 Z m 0,0.8881426 v 0.8881426 A 0.88802611,0.88802611 0 0 0 0.88858959,0.00914746 Z"
     style="opacity:1;fill:#fbfaff;fill-opacity:1;fill-rule:evenodd;stroke:none;stroke-width:0.1345858;stroke-miterlimit:4;stroke-dasharray:none;stroke-dashoffset:0;stroke-opacity:1"
     inkscape:connector-curvature="0"
     inkscape:label="mass-2" />
  <path
     id="path5324-4"
     d="m -0.88769441,0.00914766 a 0.88802611,0.88802611 0 0 0 0.88814299675,0.8881423 v -0.8881423 z m 0.88814299675,0 H 0.88859159 A 0.88802611,0.88802611 0 0 0 4.4858675e-4,-0.87899494 Z"
     style="opacity:1;fill:#878787;fill-opacity:1;fill-rule:evenodd;stroke:none;stroke-width:0.1345858;stroke-miterlimit:4;stroke-dasharray:none;stroke-dashoffset:0;stroke-opacity:1"
     inkscape:connector-curvature="0"
     inkscape:label="mass-1" />
  <path
     inkscape:connector-curvature="0"
     style="opacity:1;fill:#060014;fill-opacity:1;fill-rule:evenodd;stroke:none;stroke-width:0.11368249;stroke-miterlimit:4;stroke-dasharray:none;stroke-opacity:1"
     d="m -10.227955,-1.3711239 0.03969,-0.37758 0.168613,0.017722 0.05532,-0.5263267 0.01814,-0.1725889 c 0.422131,0.3106981 1.7309188,0.629614 3.2332883,0.7878443 1.9010137,0.1998046 3.4718023,0.078559 3.5083323,-0.2707902 0.03648,-0.3493021 -1.4746659,-0.7943815 -3.3753812,-0.9941547 -1.4997261,-0.1575497 -2.8452933,-0.1184883 -3.3262432,0.096564 l 0.039273,-0.3736599 -0.2165086,-0.2910226 -0.273276,-0.028722 -0.272175,0.2396598 -0.03778,0.359496 c -0.450009,-0.3053765 -1.737637,-0.6141546 -3.206197,-0.7688313 -1.900715,-0.1997732 -3.471376,-0.078605 -3.508318,0.2706488 -0.0369,0.3493097 1.474352,0.7944914 3.375367,0.9942961 1.468423,0.1540646 2.792047,0.1197792 3.295968,-0.085283 l -0.01644,0.1564585 -0.05532,0.5263267 0.168504,0.01771 -0.03969,0.37758 z"
     id="path4620-3-3"
     sodipodi:nodetypes="ccccccccccccccccccccccc"
     inkscape:label="rotor" />
  <path
     inkscape:connector-curvature="0"
     style="opacity:1;fill:#060014;fill-opacity:1;fill-rule:evenodd;stroke:none;stroke-width:0.11368249;stroke-miterlimit:4;stroke-dasharray:none;stroke-opacity:1"
     d="m 10.66371,-1.4029089 -0.03969,-0.37758 0.168613,-0.017722 -0.05532,-0.5263266 -0.01814,-0.172589 c 0.477503,0.2161429 1.823997,0.2559774 3.326434,0.09839 1.901014,-0.1998046 3.412269,-0.6449864 3.375367,-0.9942961 -0.03694,-0.3492537 -1.607603,-0.4704221 -3.508318,-0.2706488 -1.49971,0.1577038 -2.807752,0.4756706 -3.233479,0.786019 l -0.03927,-0.3736598 -0.272285,-0.2396484 -0.273275,0.028722 -0.2164008,0.2910111 0.037785,0.359496 c -0.5036665,-0.2051413 -1.8273559,-0.2394587 -3.2959833,-0.085425 -1.9007153,0.1997733 -3.4118611,0.6448526 -3.3753812,0.9941547 0.036529,0.349349 1.6073176,0.470595 3.5083323,0.2707903 1.4683663,-0.1546045 2.7559373,-0.4633375 3.2062126,-0.7686899 l 0.01644,0.1564585 0.05532,0.5263266 0.168504,-0.01771 0.03969,0.37758 z"
     id="path4620-3-3-6"
     sodipodi:nodetypes="ccccccccccccccccccccccc"
     inkscape:label="rotor" />
</svg>
