<?xml version="1.0" encoding="UTF-8" standalone="no"?>
<svg
   xmlns:dc="http://purl.org/dc/elements/1.1/"
   xmlns:cc="http://creativecommons.org/ns#"
   xmlns:rdf="http://www.w3.org/1999/02/22-rdf-syntax-ns#"
   xmlns:svg="http://www.w3.org/2000/svg"
   xmlns="http://www.w3.org/2000/svg"
   xmlns:sodipodi="http://sodipodi.sourceforge.net/DTD/sodipodi-0.dtd"
   xmlns:inkscape="http://www.inkscape.org/namespaces/inkscape"
   id="svg8"
   version="1.1"
   viewBox="0 0 210 297"
   height="297mm"
   width="210mm"
   sodipodi:docname="drawing.svg"
   inkscape:version="0.92.5 (2060ec1f9f, 2020-04-08)">
  <sodipodi:namedview
     pagecolor="#ffffff"
     bordercolor="#666666"
     borderopacity="1"
     objecttolerance="10"
     gridtolerance="10"
     guidetolerance="10"
     inkscape:pageopacity="0"
     inkscape:pageshadow="2"
     inkscape:window-width="2488"
     inkscape:window-height="1376"
     id="namedview16"
     showgrid="false"
     inkscape:zoom="16"
     inkscape:cx="-9.0622266"
     inkscape:cy="1128.9709"
     inkscape:window-x="72"
     inkscape:window-y="27"
     inkscape:window-maximized="1"
     inkscape:current-layer="svg8" />
  <defs
     id="defs2" />
  <metadata
     id="metadata5">
    <rdf:RDF>
      <cc:Work
         rdf:about="">
        <dc:format>image/svg+xml</dc:format>
        <dc:type
           rdf:resource="http://purl.org/dc/dcmitype/StillImage" />
        <dc:title />
      </cc:Work>
    </rdf:RDF>
  </metadata>
  <path
     inkscape:connector-curvature="0"
     style="opacity:1;fill:#060014;fill-opacity:1;fill-rule:evenodd;stroke:none;stroke-width:0.11368249;stroke-miterlimit:4;stroke-dasharray:none;stroke-opacity:1"
     d="m -10.560474,-3.5313477 -0.245633,0.266797 v 0.3614762 c -0.479464,-0.2566649 -1.792315,-0.4291576 -3.268998,-0.4294807 -1.911185,0 -3.460576,0.2846834 -3.460808,0.6358852 -1.88e-4,0.3512535 1.549322,0.6360274 3.460808,0.6360274 1.476483,-2.714e-4 2.789272,-0.1727254 3.268998,-0.4293385 v 0.1573203 0.5292258 h 0.169432 v 0.3796598 h -0.650328 v 0.92907247 h -0.191048 v 0.92878812 l 0.375109,1.80917711 h 0.942468 0.6187773 l 0.378494,-1.82525421 h 5.5504393 l 1.769433,1.32029911 c 1.22918599,0 2.45836899,0 3.687556,0 l 1.769432,-1.32029911 h 5.550439 L 9.5425916,2.2432625 H 10.16137 11.103836 L 11.478947,0.43408539 V -0.49470273 H 11.287898 V -1.4237752 H 10.637569 V -1.803435 h 0.169433 v -0.5292258 -0.1573203 c 0.479726,0.2566131 1.792516,0.4290671 3.268997,0.4293385 1.911486,0 3.460999,-0.2847739 3.460811,-0.6360274 -2.11e-4,-0.3512018 -1.549625,-0.6358852 -3.460811,-0.6358852 -1.476682,2.714e-4 -2.789533,0.1728158 -3.268997,0.4294807 v -0.3614762 l -0.245633,-0.266797 h -0.274781 l -0.245743,0.266797 v 0.3757181 C 9.5850076,-3.1529803 8.2508936,-3.3324777 6.7429186,-3.3325552 c -1.911186,0 -3.460599,0.2846834 -3.460811,0.6358852 -1.88e-4,0.3512535 1.549321,0.6360274 3.460811,0.6360274 1.510677,-2.714e-4 2.845632,-0.1806864 3.2979264,-0.4455578 v 0.1735396 0.5292258 h 0.169541 v 0.3796598 H 9.5599486 v 0.92907247 H 3.5936796 L 2.6354906,-1.7330266 h -5.270088 l -0.958188,1.23832387 H -9.5590547 V -1.4237752 H -10.209492 V -1.803435 h 0.169542 v -0.5292258 -0.1735396 c 0.4522953,0.2648714 1.7872493,0.4452347 3.2979286,0.4455578 1.911485,0 3.460995,-0.2847739 3.460808,-0.6360274 -2.32e-4,-0.3512018 -1.549624,-0.6358852 -3.460808,-0.6358852 -1.5079793,7.75e-5 -2.8420923,0.1795749 -3.2979286,0.4437226 v -0.3757181 l -0.245743,-0.266797 z m -0.437664,4.08296129 h 1.3525123 L -9.7704087,1.673831 h -1.1029483 z m 20.6288286,0 H 10.983204 L 10.858422,1.673831 H 9.7554726 Z"
     id="path4620-3" />
  <path
     id="path5324"
     d="M 4.4658675e-4,-0.87899514 A 0.88802611,0.88802611 0 0 0 -0.88769341,0.00914746 H 4.4658675e-4 Z m 0,0.8881426 v 0.8881426 A 0.88802611,0.88802611 0 0 0 0.88858959,0.00914746 Z"
     style="opacity:1;fill:#fbfaff;fill-opacity:1;fill-rule:evenodd;stroke:none;stroke-width:0.1345858;stroke-miterlimit:4;stroke-dasharray:none;stroke-dashoffset:0;stroke-opacity:1"
     inkscape:connector-curvature="0" />
  <path
     id="path5324-4"
     d="m -0.88769441,0.00914766 a 0.88802611,0.88802611 0 0 0 0.88814299675,0.8881423 v -0.8881423 z m 0.88814299675,0 H 0.88859159 A 0.88802611,0.88802611 0 0 0 4.4858675e-4,-0.87899494 Z"
     style="opacity:1;fill:#878787;fill-opacity:1;fill-rule:evenodd;stroke:none;stroke-width:0.1345858;stroke-miterlimit:4;stroke-dasharray:none;stroke-dashoffset:0;stroke-opacity:1"
     inkscape:connector-curvature="0" />
</svg>
