<?xml version="1.0" encoding="utf-8" standalone="no"?>
<!DOCTYPE svg PUBLIC "-//W3C//DTD SVG 1.1//EN"
  "http://www.w3.org/Graphics/SVG/1.1/DTD/svg11.dtd">
<svg height="576pt" version="1.1" viewBox="0 0 864 576" width="864pt" xmlns="http://www.w3.org/2000/svg" xmlns:xlink="http://www.w3.org/1999/xlink">
 <metadata>
  <rdf:RDF xmlns:cc="http://creativecommons.org/ns#" xmlns:dc="http://purl.org/dc/elements/1.1/" xmlns:rdf="http://www.w3.org/1999/02/22-rdf-syntax-ns#">
   <cc:Work>
    <dc:type rdf:resource="http://purl.org/dc/dcmitype/StillImage"/>
    <dc:date>2022-03-22T17:06:35.390182</dc:date>
    <dc:format>image/svg+xml</dc:format>
    <dc:creator>
     <cc:Agent>
      <dc:title>Matplotlib v3.4.3, https://matplotlib.org/</dc:title>
     </cc:Agent>
    </dc:creator>
   </cc:Work>
  </rdf:RDF>
 </metadata>
 <defs>
  <style type="text/css">*{stroke-linecap:butt;stroke-linejoin:round;}</style>
 </defs>
 <g id="figure_1">
  <g id="patch_1">
   <path d="M 0 576 
L 864 576 
L 864 0 
L 0 0 
z
" style="fill:#ffffff;"/>
  </g>
  <g id="axes_1">
   <g id="patch_2">
    <path d="M 42.01 260.23 
L 431.37 260.23 
L 431.37 10.8 
L 42.01 10.8 
z
" style="fill:#ffffff;"/>
   </g>
   <g id="matplotlib.axis_1">
    <g id="xtick_1">
     <g id="line2d_1">
      <path clip-path="url(#p1961b7f5a7)" d="M 59.708182 260.23 
L 59.708182 10.8 
" style="fill:none;stroke:#b0b0b0;stroke-linecap:square;stroke-width:0.8;"/>
     </g>
     <g id="line2d_2">
      <defs>
       <path d="M 0 0 
L 0 3.5 
" id="m54b5ff9099" style="stroke:#000000;stroke-width:0.8;"/>
      </defs>
      <g>
       <use style="stroke:#000000;stroke-width:0.8;" x="59.708182" xlink:href="#m54b5ff9099" y="260.23"/>
      </g>
     </g>
    </g>
    <g id="xtick_2">
     <g id="line2d_3">
      <path clip-path="url(#p1961b7f5a7)" d="M 117.356819 260.23 
L 117.356819 10.8 
" style="fill:none;stroke:#b0b0b0;stroke-linecap:square;stroke-width:0.8;"/>
     </g>
     <g id="line2d_4">
      <g>
       <use style="stroke:#000000;stroke-width:0.8;" x="117.356819" xlink:href="#m54b5ff9099" y="260.23"/>
      </g>
     </g>
    </g>
    <g id="xtick_3">
     <g id="line2d_5">
      <path clip-path="url(#p1961b7f5a7)" d="M 175.005455 260.23 
L 175.005455 10.8 
" style="fill:none;stroke:#b0b0b0;stroke-linecap:square;stroke-width:0.8;"/>
     </g>
     <g id="line2d_6">
      <g>
       <use style="stroke:#000000;stroke-width:0.8;" x="175.005455" xlink:href="#m54b5ff9099" y="260.23"/>
      </g>
     </g>
    </g>
    <g id="xtick_4">
     <g id="line2d_7">
      <path clip-path="url(#p1961b7f5a7)" d="M 232.654092 260.23 
L 232.654092 10.8 
" style="fill:none;stroke:#b0b0b0;stroke-linecap:square;stroke-width:0.8;"/>
     </g>
     <g id="line2d_8">
      <g>
       <use style="stroke:#000000;stroke-width:0.8;" x="232.654092" xlink:href="#m54b5ff9099" y="260.23"/>
      </g>
     </g>
    </g>
    <g id="xtick_5">
     <g id="line2d_9">
      <path clip-path="url(#p1961b7f5a7)" d="M 290.302729 260.23 
L 290.302729 10.8 
" style="fill:none;stroke:#b0b0b0;stroke-linecap:square;stroke-width:0.8;"/>
     </g>
     <g id="line2d_10">
      <g>
       <use style="stroke:#000000;stroke-width:0.8;" x="290.302729" xlink:href="#m54b5ff9099" y="260.23"/>
      </g>
     </g>
    </g>
    <g id="xtick_6">
     <g id="line2d_11">
      <path clip-path="url(#p1961b7f5a7)" d="M 347.951366 260.23 
L 347.951366 10.8 
" style="fill:none;stroke:#b0b0b0;stroke-linecap:square;stroke-width:0.8;"/>
     </g>
     <g id="line2d_12">
      <g>
       <use style="stroke:#000000;stroke-width:0.8;" x="347.951366" xlink:href="#m54b5ff9099" y="260.23"/>
      </g>
     </g>
    </g>
    <g id="xtick_7">
     <g id="line2d_13">
      <path clip-path="url(#p1961b7f5a7)" d="M 405.600002 260.23 
L 405.600002 10.8 
" style="fill:none;stroke:#b0b0b0;stroke-linecap:square;stroke-width:0.8;"/>
     </g>
     <g id="line2d_14">
      <g>
       <use style="stroke:#000000;stroke-width:0.8;" x="405.600002" xlink:href="#m54b5ff9099" y="260.23"/>
      </g>
     </g>
    </g>
   </g>
   <g id="matplotlib.axis_2">
    <g id="ytick_1">
     <g id="line2d_15">
      <path clip-path="url(#p1961b7f5a7)" d="M 42.01 241.049699 
L 431.37 241.049699 
" style="fill:none;stroke:#b0b0b0;stroke-linecap:square;stroke-width:0.8;"/>
     </g>
     <g id="line2d_16">
      <defs>
       <path d="M 0 0 
L -3.5 0 
" id="me4a5e97658" style="stroke:#000000;stroke-width:0.8;"/>
      </defs>
      <g>
       <use style="stroke:#000000;stroke-width:0.8;" x="42.01" xlink:href="#me4a5e97658" y="241.049699"/>
      </g>
     </g>
     <g id="text_1">
      <!-- −0.5 -->
      <g transform="translate(10.727188 244.848917)scale(0.1 -0.1)">
       <defs>
        <path d="M 678 2272 
L 4684 2272 
L 4684 1741 
L 678 1741 
L 678 2272 
z
" id="DejaVuSans-2212" transform="scale(0.015625)"/>
        <path d="M 2034 4250 
Q 1547 4250 1301 3770 
Q 1056 3291 1056 2328 
Q 1056 1369 1301 889 
Q 1547 409 2034 409 
Q 2525 409 2770 889 
Q 3016 1369 3016 2328 
Q 3016 3291 2770 3770 
Q 2525 4250 2034 4250 
z
M 2034 4750 
Q 2819 4750 3233 4129 
Q 3647 3509 3647 2328 
Q 3647 1150 3233 529 
Q 2819 -91 2034 -91 
Q 1250 -91 836 529 
Q 422 1150 422 2328 
Q 422 3509 836 4129 
Q 1250 4750 2034 4750 
z
" id="DejaVuSans-30" transform="scale(0.015625)"/>
        <path d="M 684 794 
L 1344 794 
L 1344 0 
L 684 0 
L 684 794 
z
" id="DejaVuSans-2e" transform="scale(0.015625)"/>
        <path d="M 691 4666 
L 3169 4666 
L 3169 4134 
L 1269 4134 
L 1269 2991 
Q 1406 3038 1543 3061 
Q 1681 3084 1819 3084 
Q 2600 3084 3056 2656 
Q 3513 2228 3513 1497 
Q 3513 744 3044 326 
Q 2575 -91 1722 -91 
Q 1428 -91 1123 -41 
Q 819 9 494 109 
L 494 744 
Q 775 591 1075 516 
Q 1375 441 1709 441 
Q 2250 441 2565 725 
Q 2881 1009 2881 1497 
Q 2881 1984 2565 2268 
Q 2250 2553 1709 2553 
Q 1456 2553 1204 2497 
Q 953 2441 691 2322 
L 691 4666 
z
" id="DejaVuSans-35" transform="scale(0.015625)"/>
       </defs>
       <use xlink:href="#DejaVuSans-2212"/>
       <use x="83.789062" xlink:href="#DejaVuSans-30"/>
       <use x="147.412109" xlink:href="#DejaVuSans-2e"/>
       <use x="179.199219" xlink:href="#DejaVuSans-35"/>
      </g>
     </g>
    </g>
    <g id="ytick_2">
     <g id="line2d_17">
      <path clip-path="url(#p1961b7f5a7)" d="M 42.01 201.836829 
L 431.37 201.836829 
" style="fill:none;stroke:#b0b0b0;stroke-linecap:square;stroke-width:0.8;"/>
     </g>
     <g id="line2d_18">
      <g>
       <use style="stroke:#000000;stroke-width:0.8;" x="42.01" xlink:href="#me4a5e97658" y="201.836829"/>
      </g>
     </g>
     <g id="text_2">
      <!-- 0.0 -->
      <g transform="translate(19.106875 205.636047)scale(0.1 -0.1)">
       <use xlink:href="#DejaVuSans-30"/>
       <use x="63.623047" xlink:href="#DejaVuSans-2e"/>
       <use x="95.410156" xlink:href="#DejaVuSans-30"/>
      </g>
     </g>
    </g>
    <g id="ytick_3">
     <g id="line2d_19">
      <path clip-path="url(#p1961b7f5a7)" d="M 42.01 162.623958 
L 431.37 162.623958 
" style="fill:none;stroke:#b0b0b0;stroke-linecap:square;stroke-width:0.8;"/>
     </g>
     <g id="line2d_20">
      <g>
       <use style="stroke:#000000;stroke-width:0.8;" x="42.01" xlink:href="#me4a5e97658" y="162.623958"/>
      </g>
     </g>
     <g id="text_3">
      <!-- 0.5 -->
      <g transform="translate(19.106875 166.423177)scale(0.1 -0.1)">
       <use xlink:href="#DejaVuSans-30"/>
       <use x="63.623047" xlink:href="#DejaVuSans-2e"/>
       <use x="95.410156" xlink:href="#DejaVuSans-35"/>
      </g>
     </g>
    </g>
    <g id="ytick_4">
     <g id="line2d_21">
      <path clip-path="url(#p1961b7f5a7)" d="M 42.01 123.411088 
L 431.37 123.411088 
" style="fill:none;stroke:#b0b0b0;stroke-linecap:square;stroke-width:0.8;"/>
     </g>
     <g id="line2d_22">
      <g>
       <use style="stroke:#000000;stroke-width:0.8;" x="42.01" xlink:href="#me4a5e97658" y="123.411088"/>
      </g>
     </g>
     <g id="text_4">
      <!-- 1.0 -->
      <g transform="translate(19.106875 127.210307)scale(0.1 -0.1)">
       <defs>
        <path d="M 794 531 
L 1825 531 
L 1825 4091 
L 703 3866 
L 703 4441 
L 1819 4666 
L 2450 4666 
L 2450 531 
L 3481 531 
L 3481 0 
L 794 0 
L 794 531 
z
" id="DejaVuSans-31" transform="scale(0.015625)"/>
       </defs>
       <use xlink:href="#DejaVuSans-31"/>
       <use x="63.623047" xlink:href="#DejaVuSans-2e"/>
       <use x="95.410156" xlink:href="#DejaVuSans-30"/>
      </g>
     </g>
    </g>
    <g id="ytick_5">
     <g id="line2d_23">
      <path clip-path="url(#p1961b7f5a7)" d="M 42.01 84.198218 
L 431.37 84.198218 
" style="fill:none;stroke:#b0b0b0;stroke-linecap:square;stroke-width:0.8;"/>
     </g>
     <g id="line2d_24">
      <g>
       <use style="stroke:#000000;stroke-width:0.8;" x="42.01" xlink:href="#me4a5e97658" y="84.198218"/>
      </g>
     </g>
     <g id="text_5">
      <!-- 1.5 -->
      <g transform="translate(19.106875 87.997437)scale(0.1 -0.1)">
       <use xlink:href="#DejaVuSans-31"/>
       <use x="63.623047" xlink:href="#DejaVuSans-2e"/>
       <use x="95.410156" xlink:href="#DejaVuSans-35"/>
      </g>
     </g>
    </g>
    <g id="ytick_6">
     <g id="line2d_25">
      <path clip-path="url(#p1961b7f5a7)" d="M 42.01 44.985348 
L 431.37 44.985348 
" style="fill:none;stroke:#b0b0b0;stroke-linecap:square;stroke-width:0.8;"/>
     </g>
     <g id="line2d_26">
      <g>
       <use style="stroke:#000000;stroke-width:0.8;" x="42.01" xlink:href="#me4a5e97658" y="44.985348"/>
      </g>
     </g>
     <g id="text_6">
      <!-- 2.0 -->
      <g transform="translate(19.106875 48.784567)scale(0.1 -0.1)">
       <defs>
        <path d="M 1228 531 
L 3431 531 
L 3431 0 
L 469 0 
L 469 531 
Q 828 903 1448 1529 
Q 2069 2156 2228 2338 
Q 2531 2678 2651 2914 
Q 2772 3150 2772 3378 
Q 2772 3750 2511 3984 
Q 2250 4219 1831 4219 
Q 1534 4219 1204 4116 
Q 875 4013 500 3803 
L 500 4441 
Q 881 4594 1212 4672 
Q 1544 4750 1819 4750 
Q 2544 4750 2975 4387 
Q 3406 4025 3406 3419 
Q 3406 3131 3298 2873 
Q 3191 2616 2906 2266 
Q 2828 2175 2409 1742 
Q 1991 1309 1228 531 
z
" id="DejaVuSans-32" transform="scale(0.015625)"/>
       </defs>
       <use xlink:href="#DejaVuSans-32"/>
       <use x="63.623047" xlink:href="#DejaVuSans-2e"/>
       <use x="95.410156" xlink:href="#DejaVuSans-30"/>
      </g>
     </g>
    </g>
   </g>
   <g id="line2d_27">
    <path clip-path="url(#p1961b7f5a7)" d="M 59.708182 260.23 
L 59.708182 10.8 
" style="fill:none;stroke:#ffd700;stroke-linecap:square;stroke-width:2;"/>
   </g>
   <g id="line2d_28">
    <path clip-path="url(#p1961b7f5a7)" d="M 169.787829 260.23 
L 169.787829 10.8 
" style="fill:none;stroke:#ffd700;stroke-linecap:square;stroke-width:2;"/>
   </g>
   <g id="line2d_29">
    <path clip-path="url(#p1961b7f5a7)" d="M 270.212994 260.23 
L 270.212994 10.8 
" style="fill:none;stroke:#ffd700;stroke-linecap:square;stroke-width:2;"/>
   </g>
   <g id="line2d_30">
    <path clip-path="url(#p1961b7f5a7)" d="M 343.539406 260.23 
L 343.539406 10.8 
" style="fill:none;stroke:#ffd700;stroke-linecap:square;stroke-width:2;"/>
   </g>
   <g id="line2d_31">
    <path clip-path="url(#p1961b7f5a7)" d="M 413.671818 260.23 
L 413.671818 10.8 
" style="fill:none;stroke:#ffd700;stroke-linecap:square;stroke-width:2;"/>
   </g>
   <g id="line2d_32">
    <path clip-path="url(#p1961b7f5a7)" d="M 59.708182 201.836829 
L 75.559651 178.134905 
L 80.182996 171.648776 
L 83.925704 166.767445 
L 87.228094 162.819608 
L 90.310324 159.487298 
L 93.172395 156.724522 
L 95.814306 154.471315 
L 98.456218 152.510403 
L 100.87797 150.97248 
L 103.299722 149.683556 
L 105.721474 148.643206 
L 108.143227 147.850464 
L 110.564979 147.30423 
L 112.986731 147.00357 
L 115.408483 146.947916 
L 117.610076 147.109837 
L 120.031828 147.522026 
L 122.453581 148.180177 
L 124.875333 149.085332 
L 127.297085 150.238572 
L 129.718837 151.640675 
L 132.14059 153.291653 
L 134.782501 155.374927 
L 137.424413 157.748154 
L 140.286483 160.636134 
L 143.148554 163.835948 
L 146.450944 167.880058 
L 150.193652 172.850521 
L 154.596838 179.091814 
L 161.201616 188.893352 
L 182.64225 220.934727 
L 186.659257 226.447465 
L 190.073712 230.767901 
L 193.086467 234.240924 
L 195.898372 237.165572 
L 198.710277 239.768487 
L 201.321331 241.89091 
L 203.932385 243.728087 
L 206.543439 245.281237 
L 208.953643 246.465157 
L 211.363847 247.411966 
L 213.774051 248.124216 
L 216.184255 248.604089 
L 218.594459 248.85318 
L 221.004663 248.872329 
L 223.414867 248.661598 
L 225.825071 248.220281 
L 228.235275 247.546899 
L 230.645479 246.639353 
L 233.055683 245.495136 
L 235.465887 244.111633 
L 237.876091 242.486561 
L 240.487145 240.451901 
L 243.0982 238.132643 
L 245.910104 235.321611 
L 248.722009 232.197603 
L 251.734764 228.527894 
L 255.149219 224.016797 
L 259.367076 218.047361 
L 265.593437 208.796777 
L 283.851707 181.530919 
L 287.518027 176.529043 
L 290.451084 172.893886 
L 292.944182 170.143481 
L 295.143974 168.023153 
L 297.197114 166.332991 
L 299.1036 165.031923 
L 301.010087 164.002517 
L 302.769921 163.301698 
L 304.529755 162.845716 
L 306.142936 162.645635 
L 307.756117 162.65517 
L 309.369298 162.874271 
L 311.129132 163.350806 
L 312.888966 164.071821 
L 314.6488 165.031923 
L 316.555286 166.332991 
L 318.608426 168.023153 
L 320.808218 170.143481 
L 323.154664 172.72278 
L 325.794414 175.959866 
L 329.020776 180.293852 
L 333.273708 186.420834 
L 341.632919 198.96212 
L 353.778738 217.078918 
L 357.425624 222.100694 
L 360.371185 225.79164 
L 362.895952 228.617822 
L 365.280454 230.95607 
L 367.524691 232.836198 
L 369.628663 234.300587 
L 371.592371 235.397976 
L 373.415814 236.179224 
L 375.239256 236.728605 
L 377.062699 237.044376 
L 378.886142 237.125633 
L 380.709584 236.972167 
L 382.533027 236.584383 
L 384.35647 235.963429 
L 386.179913 235.111346 
L 388.14362 233.938953 
L 390.107328 232.508269 
L 392.2113 230.69874 
L 394.455537 228.469912 
L 396.840039 225.79164 
L 399.645336 222.284847 
L 402.871427 217.876888 
L 407.359901 211.326744 
L 413.671818 201.836829 
L 413.671818 201.836829 
" style="fill:none;stroke:#1f77b4;stroke-linecap:square;stroke-width:1.5;"/>
   </g>
   <g id="line2d_33">
    <path clip-path="url(#p1961b7f5a7)" d="M 59.708182 201.836829 
L 62.790412 201.259355 
L 65.872642 200.921916 
L 68.954872 200.824578 
L 72.037102 200.964339 
L 75.119332 201.331332 
L 78.421722 201.953746 
L 82.16443 202.896639 
L 87.007934 204.368965 
L 98.676377 208.012903 
L 102.859403 209.030231 
L 106.602111 209.715776 
L 110.12466 210.139055 
L 113.647209 210.331666 
L 116.949598 210.296809 
L 120.472147 210.031028 
L 123.994696 209.538323 
L 127.737404 208.78626 
L 131.92043 207.708024 
L 137.204253 206.09171 
L 147.992059 202.714894 
L 151.734767 201.81191 
L 155.037156 201.234391 
L 158.119386 200.914788 
L 161.201616 200.825296 
L 164.063687 200.955407 
L 166.925758 201.292649 
L 169.988679 201.882778 
L 173.001434 202.694016 
L 176.014189 203.731365 
L 179.227794 205.073382 
L 182.8431 206.832754 
L 187.462658 209.346131 
L 197.906875 215.119896 
L 201.923882 217.029708 
L 205.338337 218.414001 
L 208.551943 219.483207 
L 211.564698 220.261255 
L 214.577453 220.810375 
L 217.590208 221.123142 
L 220.402112 221.198249 
L 223.214017 221.06313 
L 226.226772 220.686812 
L 229.239527 220.075764 
L 232.252282 219.238423 
L 235.465887 218.110261 
L 238.880343 216.670197 
L 242.696499 214.811382 
L 247.516907 212.195557 
L 258.161974 206.321169 
L 261.77728 204.629413 
L 264.990886 203.360932 
L 268.003641 202.398225 
L 271.092911 201.64752 
L 274.025968 201.157669 
L 276.959024 200.885458 
L 279.892081 200.829597 
L 282.97179 200.994429 
L 286.344805 201.407218 
L 290.451084 202.147774 
L 300.276823 204.014904 
L 303.649838 204.3769 
L 306.8762 204.495592 
L 309.955909 204.387349 
L 313.182272 204.055032 
L 316.995245 203.430582 
L 330.047346 201.06507 
L 333.273708 200.843844 
L 336.353418 200.863381 
L 339.286474 201.102953 
L 342.219531 201.560191 
L 345.222584 202.253357 
L 348.30841 203.201063 
L 351.534501 204.433095 
L 355.321651 206.135771 
L 367.384426 211.774487 
L 370.329987 212.780559 
L 372.995019 213.458352 
L 375.519786 213.871281 
L 377.904288 214.043422 
L 380.28879 213.998666 
L 382.673292 213.73832 
L 385.198059 213.236397 
L 387.86309 212.473113 
L 390.808652 211.387307 
L 394.315272 209.840597 
L 400.62719 206.745665 
L 405.255929 204.610185 
L 408.622285 203.298773 
L 411.708111 202.329717 
L 413.671818 201.836829 
L 413.671818 201.836829 
" style="fill:none;stroke:#ff7f0e;stroke-linecap:square;stroke-width:1.5;"/>
   </g>
   <g id="line2d_34">
    <path clip-path="url(#p1961b7f5a7)" d="M 59.708182 87.375403 
L 67.413757 102.24741 
L 73.358058 113.273851 
L 77.761244 120.992484 
L 81.283793 126.753958 
L 84.586182 131.732722 
L 87.448253 135.668505 
L 90.310324 139.222909 
L 92.952235 142.150849 
L 95.594147 144.733458 
L 98.015899 146.796543 
L 100.437651 148.570351 
L 102.859403 150.058141 
L 105.060996 151.165773 
L 107.262589 152.043236 
L 109.464182 152.693208 
L 111.665775 153.117855 
L 113.867368 153.318672 
L 116.068961 153.296369 
L 118.270554 153.05087 
L 120.472147 152.5813 
L 122.67374 151.886022 
L 124.875333 150.962753 
L 127.076926 149.808735 
L 129.278519 148.420971 
L 131.700271 146.620984 
L 134.122023 144.531482 
L 136.543775 142.150849 
L 139.185687 139.222909 
L 141.827599 135.955736 
L 144.689669 132.048459 
L 147.771899 127.443013 
L 151.074289 122.104303 
L 155.037156 115.248073 
L 159.880661 106.391361 
L 166.485439 93.809974 
L 174.407386 78.232174 
L 184.851604 57.625596 
L 188.66776 50.646946 
L 191.881365 45.220906 
L 194.69327 40.88027 
L 197.304324 37.225221 
L 199.915378 33.952416 
L 202.325582 31.281169 
L 204.735786 28.951003 
L 206.94514 27.116465 
L 209.154494 25.570466 
L 211.363847 24.312364 
L 213.372351 23.417604 
L 215.380854 22.759112 
L 217.389357 22.336177 
L 219.397861 22.148293 
L 221.406364 22.195259 
L 223.414867 22.477122 
L 225.42337 22.994206 
L 227.431874 23.747111 
L 229.440377 24.736605 
L 231.44888 25.963514 
L 233.658234 27.588167 
L 235.867588 29.501414 
L 238.076941 31.702784 
L 240.487145 34.430485 
L 242.897349 37.493008 
L 245.508404 41.17675 
L 248.320308 45.546119 
L 251.333063 50.646946 
L 254.747519 56.86826 
L 259.166226 65.410883 
L 277.838941 102.08112 
L 282.678484 110.982992 
L 286.198152 117.017849 
L 289.131208 121.609553 
L 291.624306 125.109379 
L 293.824099 127.837214 
L 295.877238 130.045856 
L 297.783725 131.784701 
L 299.543559 133.110671 
L 301.303393 134.160284 
L 302.916574 134.874627 
L 304.529755 135.348737 
L 306.142936 135.580691 
L 307.756117 135.56964 
L 309.369298 135.315621 
L 310.982479 134.819576 
L 312.59566 134.083528 
L 314.208841 133.110671 
L 315.968675 131.784701 
L 317.875162 130.045856 
L 319.781649 128.006097 
L 321.834788 125.493547 
L 324.181233 122.256256 
L 326.820984 118.208303 
L 329.900693 113.047131 
L 333.713667 106.191045 
L 339.139821 95.927223 
L 346.765497 81.007007 
L 356.16324 62.584287 
L 359.389331 56.812854 
L 362.054363 52.493296 
L 364.438865 49.056742 
L 366.542837 46.406089 
L 368.506545 44.281751 
L 370.329987 42.627399 
L 372.013165 41.381785 
L 373.696343 40.412707 
L 375.239256 39.771055 
L 376.782169 39.367692 
L 378.325082 39.203966 
L 379.867996 39.280385 
L 381.410909 39.596717 
L 382.953822 40.15193 
L 384.496735 40.94411 
L 386.179913 42.075134 
L 387.86309 43.479369 
L 389.686533 45.300437 
L 391.650241 47.596342 
L 393.754213 50.418714 
L 395.99845 53.806585 
L 398.523217 58.02255 
L 401.609043 63.635365 
L 405.816988 71.800692 
L 413.671818 87.375403 
L 413.671818 87.375403 
" style="fill:none;stroke:#2ca02c;stroke-linecap:square;stroke-width:1.5;"/>
   </g>
   <g id="patch_3">
    <path d="M 42.01 260.23 
L 42.01 10.8 
" style="fill:none;stroke:#000000;stroke-linecap:square;stroke-linejoin:miter;stroke-width:0.8;"/>
   </g>
   <g id="patch_4">
    <path d="M 431.37 260.23 
L 431.37 10.8 
" style="fill:none;stroke:#000000;stroke-linecap:square;stroke-linejoin:miter;stroke-width:0.8;"/>
   </g>
   <g id="patch_5">
    <path d="M 42.01 260.23 
L 431.37 260.23 
" style="fill:none;stroke:#000000;stroke-linecap:square;stroke-linejoin:miter;stroke-width:0.8;"/>
   </g>
   <g id="patch_6">
    <path d="M 42.01 10.8 
L 431.37 10.8 
" style="fill:none;stroke:#000000;stroke-linecap:square;stroke-linejoin:miter;stroke-width:0.8;"/>
   </g>
   <g id="legend_1">
    <g id="patch_7">
     <path d="M 217.39 159.043125 
L 255.99 159.043125 
Q 257.99 159.043125 257.99 157.043125 
L 257.99 113.986875 
Q 257.99 111.986875 255.99 111.986875 
L 217.39 111.986875 
Q 215.39 111.986875 215.39 113.986875 
L 215.39 157.043125 
Q 215.39 159.043125 217.39 159.043125 
z
" style="fill:#ffffff;opacity:0.8;stroke:#cccccc;stroke-linejoin:miter;"/>
    </g>
    <g id="line2d_35">
     <path d="M 219.39 120.085313 
L 239.39 120.085313 
" style="fill:none;stroke:#1f77b4;stroke-linecap:square;stroke-width:1.5;"/>
    </g>
    <g id="line2d_36"/>
    <g id="text_7">
     <!-- $x$ -->
     <g transform="translate(247.39 123.585313)scale(0.1 -0.1)">
      <defs>
       <path d="M 3841 3500 
L 2234 1784 
L 3219 0 
L 2559 0 
L 1819 1388 
L 531 0 
L -166 0 
L 1556 1844 
L 641 3500 
L 1300 3500 
L 1972 2234 
L 3144 3500 
L 3841 3500 
z
" id="DejaVuSans-Oblique-78" transform="scale(0.015625)"/>
      </defs>
      <use transform="translate(0 0.3125)" xlink:href="#DejaVuSans-Oblique-78"/>
     </g>
    </g>
    <g id="line2d_37">
     <path d="M 219.39 134.763438 
L 239.39 134.763438 
" style="fill:none;stroke:#ff7f0e;stroke-linecap:square;stroke-width:1.5;"/>
    </g>
    <g id="line2d_38"/>
    <g id="text_8">
     <!-- $z$ -->
     <g transform="translate(247.39 138.263438)scale(0.1 -0.1)">
      <defs>
       <path d="M 744 3500 
L 3475 3500 
L 3372 2975 
L 738 459 
L 2913 459 
L 2822 0 
L -19 0 
L 84 525 
L 2719 3041 
L 653 3041 
L 744 3500 
z
" id="DejaVuSans-Oblique-7a" transform="scale(0.015625)"/>
      </defs>
      <use transform="translate(0 0.3125)" xlink:href="#DejaVuSans-Oblique-7a"/>
     </g>
    </g>
    <g id="line2d_39">
     <path d="M 219.39 149.443125 
L 239.39 149.443125 
" style="fill:none;stroke:#2ca02c;stroke-linecap:square;stroke-width:1.5;"/>
    </g>
    <g id="line2d_40"/>
    <g id="text_9">
     <!-- $\phi$ -->
     <g transform="translate(247.39 152.943125)scale(0.1 -0.1)">
      <defs>
       <path d="M 2991 4863 
L 2738 3572 
Q 3363 3572 3684 3094 
Q 4016 2606 3850 1747 
Q 3681 888 3159 400 
Q 2653 -78 2028 -78 
L 1784 -1331 
L 1213 -1331 
L 1456 -78 
Q 834 -78 509 400 
Q 178 888 347 1747 
Q 513 2606 1034 3094 
Q 1544 3572 2166 3572 
L 2419 4863 
L 2991 4863 
z
M 2128 434 
Q 2481 434 2784 756 
Q 3116 1116 3244 1747 
Q 3369 2372 3169 2738 
Q 2991 3059 2638 3059 
L 2128 434 
z
M 1556 434 
L 2066 3059 
Q 1716 3059 1413 2738 
Q 1072 2372 953 1747 
Q 834 1116 1028 756 
Q 1203 434 1556 434 
z
" id="DejaVuSans-Oblique-3d5" transform="scale(0.015625)"/>
      </defs>
      <use transform="translate(0 0.015625)" xlink:href="#DejaVuSans-Oblique-3d5"/>
     </g>
    </g>
   </g>
  </g>
  <g id="axes_2">
   <g id="patch_8">
    <path d="M 463.84 260.23 
L 853.2 260.23 
L 853.2 10.8 
L 463.84 10.8 
z
" style="fill:#ffffff;"/>
   </g>
   <g id="matplotlib.axis_3">
    <g id="xtick_8">
     <g id="line2d_41">
      <path clip-path="url(#pfd7dab83f1)" d="M 481.538182 260.23 
L 481.538182 10.8 
" style="fill:none;stroke:#b0b0b0;stroke-linecap:square;stroke-width:0.8;"/>
     </g>
     <g id="line2d_42">
      <g>
       <use style="stroke:#000000;stroke-width:0.8;" x="481.538182" xlink:href="#m54b5ff9099" y="260.23"/>
      </g>
     </g>
    </g>
    <g id="xtick_9">
     <g id="line2d_43">
      <path clip-path="url(#pfd7dab83f1)" d="M 539.186819 260.23 
L 539.186819 10.8 
" style="fill:none;stroke:#b0b0b0;stroke-linecap:square;stroke-width:0.8;"/>
     </g>
     <g id="line2d_44">
      <g>
       <use style="stroke:#000000;stroke-width:0.8;" x="539.186819" xlink:href="#m54b5ff9099" y="260.23"/>
      </g>
     </g>
    </g>
    <g id="xtick_10">
     <g id="line2d_45">
      <path clip-path="url(#pfd7dab83f1)" d="M 596.835455 260.23 
L 596.835455 10.8 
" style="fill:none;stroke:#b0b0b0;stroke-linecap:square;stroke-width:0.8;"/>
     </g>
     <g id="line2d_46">
      <g>
       <use style="stroke:#000000;stroke-width:0.8;" x="596.835455" xlink:href="#m54b5ff9099" y="260.23"/>
      </g>
     </g>
    </g>
    <g id="xtick_11">
     <g id="line2d_47">
      <path clip-path="url(#pfd7dab83f1)" d="M 654.484092 260.23 
L 654.484092 10.8 
" style="fill:none;stroke:#b0b0b0;stroke-linecap:square;stroke-width:0.8;"/>
     </g>
     <g id="line2d_48">
      <g>
       <use style="stroke:#000000;stroke-width:0.8;" x="654.484092" xlink:href="#m54b5ff9099" y="260.23"/>
      </g>
     </g>
    </g>
    <g id="xtick_12">
     <g id="line2d_49">
      <path clip-path="url(#pfd7dab83f1)" d="M 712.132729 260.23 
L 712.132729 10.8 
" style="fill:none;stroke:#b0b0b0;stroke-linecap:square;stroke-width:0.8;"/>
     </g>
     <g id="line2d_50">
      <g>
       <use style="stroke:#000000;stroke-width:0.8;" x="712.132729" xlink:href="#m54b5ff9099" y="260.23"/>
      </g>
     </g>
    </g>
    <g id="xtick_13">
     <g id="line2d_51">
      <path clip-path="url(#pfd7dab83f1)" d="M 769.781366 260.23 
L 769.781366 10.8 
" style="fill:none;stroke:#b0b0b0;stroke-linecap:square;stroke-width:0.8;"/>
     </g>
     <g id="line2d_52">
      <g>
       <use style="stroke:#000000;stroke-width:0.8;" x="769.781366" xlink:href="#m54b5ff9099" y="260.23"/>
      </g>
     </g>
    </g>
    <g id="xtick_14">
     <g id="line2d_53">
      <path clip-path="url(#pfd7dab83f1)" d="M 827.430002 260.23 
L 827.430002 10.8 
" style="fill:none;stroke:#b0b0b0;stroke-linecap:square;stroke-width:0.8;"/>
     </g>
     <g id="line2d_54">
      <g>
       <use style="stroke:#000000;stroke-width:0.8;" x="827.430002" xlink:href="#m54b5ff9099" y="260.23"/>
      </g>
     </g>
    </g>
   </g>
   <g id="matplotlib.axis_4">
    <g id="ytick_7">
     <g id="line2d_55">
      <path clip-path="url(#pfd7dab83f1)" d="M 463.84 241.273829 
L 853.2 241.273829 
" style="fill:none;stroke:#b0b0b0;stroke-linecap:square;stroke-width:0.8;"/>
     </g>
     <g id="line2d_56">
      <g>
       <use style="stroke:#000000;stroke-width:0.8;" x="463.84" xlink:href="#me4a5e97658" y="241.273829"/>
      </g>
     </g>
     <g id="text_10">
      <!-- −4 -->
      <g transform="translate(442.097812 245.073047)scale(0.1 -0.1)">
       <defs>
        <path d="M 2419 4116 
L 825 1625 
L 2419 1625 
L 2419 4116 
z
M 2253 4666 
L 3047 4666 
L 3047 1625 
L 3713 1625 
L 3713 1100 
L 3047 1100 
L 3047 0 
L 2419 0 
L 2419 1100 
L 313 1100 
L 313 1709 
L 2253 4666 
z
" id="DejaVuSans-34" transform="scale(0.015625)"/>
       </defs>
       <use xlink:href="#DejaVuSans-2212"/>
       <use x="83.789062" xlink:href="#DejaVuSans-34"/>
      </g>
     </g>
    </g>
    <g id="ytick_8">
     <g id="line2d_57">
      <path clip-path="url(#pfd7dab83f1)" d="M 463.84 186.221544 
L 853.2 186.221544 
" style="fill:none;stroke:#b0b0b0;stroke-linecap:square;stroke-width:0.8;"/>
     </g>
     <g id="line2d_58">
      <g>
       <use style="stroke:#000000;stroke-width:0.8;" x="463.84" xlink:href="#me4a5e97658" y="186.221544"/>
      </g>
     </g>
     <g id="text_11">
      <!-- −2 -->
      <g transform="translate(442.097812 190.020763)scale(0.1 -0.1)">
       <use xlink:href="#DejaVuSans-2212"/>
       <use x="83.789062" xlink:href="#DejaVuSans-32"/>
      </g>
     </g>
    </g>
    <g id="ytick_9">
     <g id="line2d_59">
      <path clip-path="url(#pfd7dab83f1)" d="M 463.84 131.16926 
L 853.2 131.16926 
" style="fill:none;stroke:#b0b0b0;stroke-linecap:square;stroke-width:0.8;"/>
     </g>
     <g id="line2d_60">
      <g>
       <use style="stroke:#000000;stroke-width:0.8;" x="463.84" xlink:href="#me4a5e97658" y="131.16926"/>
      </g>
     </g>
     <g id="text_12">
      <!-- 0 -->
      <g transform="translate(450.4775 134.968479)scale(0.1 -0.1)">
       <use xlink:href="#DejaVuSans-30"/>
      </g>
     </g>
    </g>
    <g id="ytick_10">
     <g id="line2d_61">
      <path clip-path="url(#pfd7dab83f1)" d="M 463.84 76.116976 
L 853.2 76.116976 
" style="fill:none;stroke:#b0b0b0;stroke-linecap:square;stroke-width:0.8;"/>
     </g>
     <g id="line2d_62">
      <g>
       <use style="stroke:#000000;stroke-width:0.8;" x="463.84" xlink:href="#me4a5e97658" y="76.116976"/>
      </g>
     </g>
     <g id="text_13">
      <!-- 2 -->
      <g transform="translate(450.4775 79.916195)scale(0.1 -0.1)">
       <use xlink:href="#DejaVuSans-32"/>
      </g>
     </g>
    </g>
    <g id="ytick_11">
     <g id="line2d_63">
      <path clip-path="url(#pfd7dab83f1)" d="M 463.84 21.064692 
L 853.2 21.064692 
" style="fill:none;stroke:#b0b0b0;stroke-linecap:square;stroke-width:0.8;"/>
     </g>
     <g id="line2d_64">
      <g>
       <use style="stroke:#000000;stroke-width:0.8;" x="463.84" xlink:href="#me4a5e97658" y="21.064692"/>
      </g>
     </g>
     <g id="text_14">
      <!-- 4 -->
      <g transform="translate(450.4775 24.86391)scale(0.1 -0.1)">
       <use xlink:href="#DejaVuSans-34"/>
      </g>
     </g>
    </g>
   </g>
   <g id="line2d_65">
    <path clip-path="url(#pfd7dab83f1)" d="M 481.538182 260.23 
L 481.538182 10.8 
" style="fill:none;stroke:#ffd700;stroke-linecap:square;stroke-width:2;"/>
   </g>
   <g id="line2d_66">
    <path clip-path="url(#pfd7dab83f1)" d="M 591.617829 260.23 
L 591.617829 10.8 
" style="fill:none;stroke:#ffd700;stroke-linecap:square;stroke-width:2;"/>
   </g>
   <g id="line2d_67">
    <path clip-path="url(#pfd7dab83f1)" d="M 692.042994 260.23 
L 692.042994 10.8 
" style="fill:none;stroke:#ffd700;stroke-linecap:square;stroke-width:2;"/>
   </g>
   <g id="line2d_68">
    <path clip-path="url(#pfd7dab83f1)" d="M 765.369406 260.23 
L 765.369406 10.8 
" style="fill:none;stroke:#ffd700;stroke-linecap:square;stroke-width:2;"/>
   </g>
   <g id="line2d_69">
    <path clip-path="url(#pfd7dab83f1)" d="M 835.501818 260.23 
L 835.501818 10.8 
" style="fill:none;stroke:#ffd700;stroke-linecap:square;stroke-width:2;"/>
   </g>
   <g id="line2d_70">
    <path clip-path="url(#pfd7dab83f1)" d="M 481.538182 130.92739 
L 483.519615 130.854529 
L 484.840571 131.011896 
L 486.161527 131.413063 
L 487.262323 131.97241 
L 488.36312 132.762352 
L 489.463916 133.799934 
L 490.784872 135.384269 
L 492.105828 137.337678 
L 493.646943 140.057404 
L 495.408217 143.67126 
L 497.60981 148.746475 
L 504.434748 164.939676 
L 506.416182 168.869861 
L 508.177456 171.866643 
L 509.718571 174.081148 
L 511.259687 175.91763 
L 512.800802 177.394677 
L 514.341917 178.542109 
L 515.883032 179.396901 
L 517.424147 179.999679 
L 519.185421 180.433139 
L 521.166855 180.666298 
L 523.588607 180.693839 
L 526.890996 180.476757 
L 534.596572 179.892722 
L 538.779598 179.900309 
L 543.182784 180.193492 
L 550.007722 180.70472 
L 552.429475 180.633907 
L 554.410908 180.347225 
L 556.172183 179.850746 
L 557.713298 179.180204 
L 559.254413 178.245845 
L 560.795528 177.007769 
L 562.336643 175.430658 
L 563.877758 173.487468 
L 565.418873 171.163611 
L 567.180147 168.045355 
L 568.941422 164.469972 
L 571.143015 159.47844 
L 579.068749 140.914394 
L 580.830023 137.698093 
L 582.371139 135.384269 
L 583.692094 133.799934 
L 585.01305 132.584989 
L 586.113847 131.842767 
L 587.214643 131.326861 
L 588.535599 130.97035 
L 589.856555 130.847604 
L 591.617829 130.92739 
L 592.822931 130.918201 
L 593.626332 130.697012 
L 594.429734 130.252285 
L 595.233135 129.563338 
L 596.237386 128.348199 
L 597.241638 126.747596 
L 598.44674 124.356705 
L 599.852692 121.015104 
L 601.660345 116.084053 
L 608.087556 97.853649 
L 609.895209 93.697384 
L 611.502012 90.586859 
L 612.907964 88.330568 
L 614.313916 86.496333 
L 615.719869 85.056495 
L 617.125821 83.973395 
L 618.531773 83.203807 
L 619.937726 82.702441 
L 621.343678 82.424542 
L 622.95048 82.326287 
L 624.958984 82.448721 
L 627.570038 82.867735 
L 638.014255 84.841274 
L 640.62531 85.011312 
L 644.240616 84.965095 
L 647.655071 84.581781 
L 651.069527 83.952282 
L 658.701839 82.448721 
L 660.710343 82.326287 
L 662.317145 82.424542 
L 663.723098 82.702441 
L 665.12905 83.203807 
L 666.334152 83.845307 
L 667.539254 84.712455 
L 668.744356 85.832987 
L 669.949458 87.232244 
L 671.35541 89.244732 
L 672.761362 91.686807 
L 674.167315 94.562737 
L 675.774117 98.355298 
L 677.782621 103.739586 
L 681.197076 113.750501 
L 683.60728 120.49725 
L 685.214083 124.356705 
L 686.419185 126.747596 
L 687.423437 128.348199 
L 688.427688 129.563338 
L 689.23109 130.252285 
L 690.034491 130.697012 
L 690.837892 130.918201 
L 691.842144 130.943922 
L 693.509522 130.904131 
L 694.536092 131.116806 
L 695.416009 131.517574 
L 696.295926 132.162745 
L 697.175843 133.086833 
L 698.05576 134.318321 
L 699.08233 136.172241 
L 700.1089 138.495616 
L 701.282122 141.733327 
L 702.601998 146.096839 
L 704.068526 151.761323 
L 705.82836 159.483759 
L 708.46811 172.206749 
L 712.281084 190.506684 
L 714.334223 199.232282 
L 716.094057 205.732104 
L 717.707238 210.80977 
L 719.173767 214.685294 
L 720.493642 217.589439 
L 721.813517 219.971174 
L 722.98674 221.678526 
L 724.159963 223.027026 
L 725.333185 224.040567 
L 726.359755 224.667916 
L 727.532978 225.098658 
L 729.146159 225.18038 
L 730.612687 224.865317 
L 731.785909 224.243949 
L 732.812479 223.445155 
L 733.985702 222.224924 
L 735.158924 220.6551 
L 736.332147 218.710434 
L 737.652022 216.042634 
L 738.971898 212.834743 
L 740.291773 209.062597 
L 741.758301 204.199221 
L 743.371482 198.056402 
L 745.277969 189.843082 
L 747.771067 177.988991 
L 752.317305 156.162107 
L 754.077139 148.829206 
L 755.543667 143.581116 
L 756.863542 139.637233 
L 758.036765 136.787579 
L 759.063335 134.801102 
L 760.089904 133.270058 
L 761.116474 132.162745 
L 761.996391 131.517574 
L 762.876308 131.116806 
L 763.902878 130.904131 
L 765.0761 130.903329 
L 766.210995 130.918128 
L 766.912319 130.688807 
L 767.613643 130.188774 
L 768.314967 129.382525 
L 769.016291 128.251331 
L 769.85788 126.457396 
L 770.839734 123.776629 
L 771.961853 119.995618 
L 773.364501 114.356607 
L 775.187944 105.945209 
L 781.079066 77.911263 
L 782.762244 71.324996 
L 784.305157 66.163532 
L 785.707806 62.212301 
L 787.110454 58.935839 
L 788.372837 56.517442 
L 789.635221 54.547948 
L 790.897604 52.971154 
L 792.159987 51.730808 
L 793.422371 50.773735 
L 794.825019 49.984504 
L 796.367932 49.385686 
L 798.05111 48.990204 
L 799.734288 48.830752 
L 801.697996 48.849423 
L 803.100644 49.038015 
L 804.783822 49.476298 
L 806.326735 50.121938 
L 807.729383 50.964488 
L 808.991766 51.980157 
L 810.25415 53.290526 
L 811.516533 54.949671 
L 812.778917 57.01414 
L 814.0413 59.539593 
L 815.303683 62.576309 
L 816.706332 66.597244 
L 818.10898 71.324996 
L 819.651893 77.326401 
L 821.475336 85.376105 
L 824.140367 98.342212 
L 827.226194 113.128636 
L 828.769107 119.473957 
L 830.03149 123.776629 
L 831.153609 126.789272 
L 831.995198 128.504012 
L 832.836787 129.743287 
L 833.538111 130.423981 
L 834.239435 130.810318 
L 834.940759 130.946565 
L 835.501818 130.92739 
L 835.501818 130.92739 
" style="fill:none;stroke:#1f77b4;stroke-linecap:square;stroke-width:1.5;"/>
   </g>
   <g id="line2d_71">
    <path clip-path="url(#pfd7dab83f1)" d="M 481.538182 160.594188 
L 489.904235 160.51031 
L 491.44535 160.187854 
L 492.986465 159.625971 
L 494.307421 158.911668 
L 495.628377 157.95367 
L 496.949332 156.734694 
L 498.490447 154.975595 
L 500.031563 152.865358 
L 501.792837 150.066647 
L 503.99443 146.103873 
L 507.296819 139.596741 
L 512.140324 130.087722 
L 514.782235 125.427958 
L 516.983828 121.97449 
L 519.185421 118.951165 
L 521.166855 116.604021 
L 523.148288 114.602523 
L 525.129722 112.930523 
L 527.111156 111.56826 
L 529.092589 110.495413 
L 531.074023 109.693309 
L 533.055457 109.146612 
L 535.03689 108.842638 
L 536.798165 108.773279 
L 538.559439 108.891282 
L 540.540873 109.246519 
L 542.522306 109.849012 
L 544.50374 110.709809 
L 546.265014 111.704966 
L 548.026289 112.930523 
L 549.787563 114.400817 
L 551.768997 116.36481 
L 553.75043 118.672948 
L 555.731864 121.334846 
L 557.933457 124.704059 
L 560.355209 128.875454 
L 563.21728 134.310173 
L 570.922855 149.310592 
L 572.904289 152.5369 
L 574.665563 154.975595 
L 576.206678 156.734694 
L 577.747793 158.131128 
L 579.068749 159.047021 
L 580.389705 159.723106 
L 581.93082 160.247172 
L 583.471935 160.540422 
L 585.453369 160.679184 
L 588.755758 160.634866 
L 594.630584 160.373727 
L 595.835686 160.016833 
L 597.040788 159.415007 
L 598.24589 158.52262 
L 599.450992 157.309423 
L 600.656094 155.762372 
L 602.062046 153.542471 
L 603.668849 150.503612 
L 605.476502 146.557311 
L 607.886706 140.718164 
L 613.912216 125.853411 
L 616.121569 121.047567 
L 618.130073 117.159757 
L 620.138576 113.759161 
L 621.946229 111.110945 
L 623.753882 108.833607 
L 625.561535 106.899315 
L 627.369188 105.276188 
L 629.176841 103.931518 
L 631.185344 102.726045 
L 633.193847 101.787043 
L 635.202351 101.08157 
L 637.411704 100.543974 
L 639.621058 100.234615 
L 641.830412 100.130326 
L 643.838915 100.216414 
L 646.249119 100.543974 
L 648.458472 101.08157 
L 650.466976 101.787043 
L 652.475479 102.726045 
L 654.483982 103.931518 
L 656.291635 105.276188 
L 658.099288 106.899315 
L 659.906941 108.833607 
L 661.714594 111.110945 
L 663.522247 113.759161 
L 665.3299 116.79765 
L 667.338404 120.63732 
L 669.547757 125.395602 
L 672.158812 131.612068 
L 679.389423 149.243011 
L 681.197076 152.830232 
L 682.603029 155.172787 
L 684.008981 157.074859 
L 685.214083 158.34327 
L 686.419185 159.287474 
L 687.624287 159.934941 
L 688.829389 160.328923 
L 690.235341 160.543561 
L 692.3363 160.594384 
L 699.08233 160.533975 
L 700.402205 160.171163 
L 701.575428 159.605804 
L 702.601998 158.878471 
L 703.628567 157.900308 
L 704.80179 156.443343 
L 705.975012 154.602774 
L 707.294888 152.067294 
L 708.761416 148.699138 
L 710.374597 144.40886 
L 712.57439 137.83796 
L 718.733808 118.957601 
L 720.493642 114.45058 
L 721.96017 111.238087 
L 723.280046 108.827161 
L 724.453268 107.095438 
L 725.626491 105.769235 
L 726.653061 104.952752 
L 727.532978 104.51013 
L 728.559547 104.298176 
L 729.292811 104.363294 
L 730.172728 104.624758 
L 731.052645 105.15201 
L 731.932562 105.912263 
L 732.959132 107.095438 
L 734.132355 108.827161 
L 735.45223 111.238087 
L 736.918758 114.45058 
L 738.531939 118.557957 
L 740.438426 124.032745 
L 743.518135 133.674714 
L 746.744497 143.573366 
L 748.650984 148.699138 
L 750.117512 152.067294 
L 751.437388 154.602774 
L 752.757263 156.646124 
L 753.930486 158.056444 
L 755.103708 159.110585 
L 756.276931 159.848474 
L 757.450154 160.320541 
L 758.770029 160.604171 
L 760.38321 160.710036 
L 763.462919 160.623542 
L 767.753908 160.382295 
L 768.735762 160.037183 
L 769.717616 159.452009 
L 770.699469 158.57612 
L 771.681323 157.369735 
L 772.663177 155.80619 
L 773.785295 153.567121 
L 775.047679 150.480745 
L 776.450327 146.402518 
L 778.133505 140.76166 
L 780.518007 131.861995 
L 785.427276 113.305957 
L 787.531248 106.336512 
L 789.354691 101.073676 
L 790.897604 97.244244 
L 792.440517 94.006204 
L 793.843165 91.577122 
L 795.105549 89.805147 
L 796.367932 88.418919 
L 797.490051 87.505102 
L 798.612169 86.884434 
L 799.594023 86.594363 
L 800.716142 86.516645 
L 801.83826 86.728259 
L 802.820114 87.159828 
L 803.801968 87.812923 
L 804.924086 88.838566 
L 806.046205 90.16534 
L 807.308588 92.023955 
L 808.570972 94.27601 
L 809.97362 97.244244 
L 811.516533 101.073676 
L 813.199711 105.904565 
L 815.023154 111.843285 
L 817.267391 119.964154 
L 824.140367 145.513563 
L 825.68328 150.102312 
L 827.085929 153.567121 
L 828.208047 155.80619 
L 829.330166 157.563473 
L 830.31202 158.720686 
L 831.293873 159.552328 
L 832.275727 160.099886 
L 833.397846 160.444873 
L 834.660229 160.582813 
L 835.501818 160.594188 
L 835.501818 160.594188 
" style="fill:none;stroke:#ff7f0e;stroke-linecap:square;stroke-width:1.5;"/>
   </g>
   <g id="line2d_72">
    <path clip-path="url(#pfd7dab83f1)" d="M 481.538182 121.868416 
L 483.299456 121.963382 
L 484.620412 121.79942 
L 485.721208 121.441519 
L 486.822005 120.843242 
L 487.922801 119.976894 
L 489.023598 118.824097 
L 490.124394 117.376561 
L 491.44535 115.25453 
L 492.986465 112.281376 
L 494.747739 108.323197 
L 496.949332 102.784054 
L 502.453315 88.631761 
L 504.434748 84.28515 
L 505.975863 81.382018 
L 507.516979 78.941509 
L 508.837934 77.226305 
L 510.15889 75.851063 
L 511.479846 74.79746 
L 512.800802 74.039374 
L 514.121757 73.54544 
L 515.442713 73.281329 
L 516.983828 73.216478 
L 518.745103 73.395688 
L 520.726536 73.828359 
L 523.588607 74.69725 
L 529.532908 76.54998 
L 532.174819 77.123435 
L 534.596572 77.43401 
L 537.018324 77.501954 
L 539.880395 77.291188 
L 542.302147 76.864935 
L 545.164218 76.121836 
L 549.567404 74.69725 
L 552.869793 73.715961 
L 554.851227 73.329585 
L 556.612501 73.211264 
L 558.153616 73.346011 
L 559.474572 73.682815 
L 560.795528 74.261089 
L 562.116483 75.114404 
L 563.437439 76.272648 
L 564.758395 77.759638 
L 566.079351 79.590498 
L 567.620466 82.165407 
L 569.161581 85.194935 
L 570.922855 89.151811 
L 573.344607 95.231166 
L 578.84859 109.361032 
L 580.609864 113.18204 
L 582.150979 116.007533 
L 583.471935 117.991036 
L 584.792891 119.550847 
L 585.893687 120.530118 
L 586.994484 121.232804 
L 588.09528 121.682967 
L 589.196077 121.913549 
L 590.517032 121.959474 
L 593.023781 121.933049 
L 593.827183 122.298011 
L 594.630584 122.972037 
L 595.433985 123.982775 
L 596.237386 125.342005 
L 597.241638 127.528393 
L 598.24589 130.231381 
L 599.450992 134.089887 
L 601.057794 140.089982 
L 603.267148 149.379076 
L 608.087556 169.931455 
L 609.895209 176.628165 
L 611.502012 181.837691 
L 613.108814 186.292257 
L 614.514767 189.57008 
L 615.920719 192.29472 
L 617.326671 194.506988 
L 618.732624 196.25756 
L 619.937726 197.432718 
L 621.343678 198.474543 
L 622.74963 199.214902 
L 624.155582 199.706476 
L 625.762385 200.025524 
L 627.570038 200.151301 
L 629.779392 200.078862 
L 633.394698 199.698857 
L 638.616806 199.164656 
L 642.031262 199.055605 
L 648.458472 199.483002 
L 655.086533 200.142579 
L 657.295887 200.091077 
L 658.90269 199.853159 
L 660.308642 199.45311 
L 661.714594 198.825595 
L 662.919696 198.068159 
L 664.124798 197.071928 
L 665.3299 195.801314 
L 666.535002 194.220473 
L 667.740104 192.29472 
L 668.945206 189.992372 
L 670.351159 186.795545 
L 671.757111 183.022876 
L 673.363913 177.999521 
L 675.171566 171.489426 
L 677.18007 163.36786 
L 684.008981 134.791253 
L 685.414933 130.231381 
L 686.620035 127.048636 
L 687.624287 124.969387 
L 688.628539 123.434251 
L 689.43194 122.594245 
L 690.235341 122.079365 
L 691.038743 121.85221 
L 692.042994 121.868416 
L 693.36287 121.908183 
L 694.242787 121.726148 
L 695.122704 121.304387 
L 696.00262 120.593672 
L 696.882537 119.553318 
L 697.762454 118.151099 
L 698.789024 116.027326 
L 699.815594 113.359531 
L 700.988816 109.643997 
L 702.308692 104.652607 
L 703.77522 98.211394 
L 705.681707 88.751266 
L 713.014348 51.085833 
L 714.627529 44.451386 
L 716.094057 39.260343 
L 717.560586 34.883833 
L 718.880461 31.616343 
L 720.200336 28.939775 
L 721.520212 26.798436 
L 722.693434 25.295766 
L 723.866657 24.127275 
L 725.03988 23.255628 
L 726.213102 22.647101 
L 727.532978 22.261875 
L 729.879423 22.261875 
L 730.466034 22.386163 
L 732.079215 23.080207 
L 733.252438 23.882877 
L 734.42566 24.973857 
L 735.598883 26.389228 
L 736.772105 28.169466 
L 737.945328 30.356931 
L 739.118551 32.992633 
L 740.438426 36.537863 
L 741.758301 40.731739 
L 743.22483 46.167024 
L 744.838011 53.053218 
L 746.744497 62.251765 
L 749.530901 77.000558 
L 752.903916 94.694435 
L 754.66375 102.812059 
L 756.130278 108.606757 
L 757.450154 112.933698 
L 758.623376 116.027326 
L 759.649946 118.151099 
L 760.676516 119.751077 
L 761.556433 120.73402 
L 762.43635 121.393527 
L 763.316266 121.771672 
L 764.196183 121.919214 
L 765.369406 121.868416 
L 766.210995 121.883726 
L 766.772054 122.10018 
L 767.333114 122.538919 
L 767.894173 123.230463 
L 768.595497 124.481045 
L 769.296821 126.181891 
L 770.13841 128.827879 
L 771.120264 132.733237 
L 772.242382 138.204365 
L 773.504766 145.476819 
L 775.187944 156.572771 
L 778.27377 178.842365 
L 780.938801 197.418361 
L 782.762244 208.710833 
L 784.445422 217.775678 
L 785.988335 224.860384 
L 787.390983 230.29969 
L 788.793632 234.842465 
L 790.056015 238.229907 
L 791.318398 241.021561 
L 792.580782 243.285067 
L 793.843165 245.085242 
L 795.105549 246.480912 
L 796.367932 247.522756 
L 797.630316 248.252519 
L 798.892699 248.706707 
L 800.295347 248.886129 
L 801.136936 248.820753 
L 802.259055 248.627771 
L 803.661703 248.041168 
L 804.783822 247.319521 
L 805.90594 246.344159 
L 807.028059 245.085242 
L 808.150177 243.50683 
L 809.272296 241.567853 
L 810.534679 238.89937 
L 811.797063 235.650172 
L 813.059446 231.753372 
L 814.32183 227.147969 
L 815.724478 221.141708 
L 817.127126 214.166263 
L 818.670039 205.389947 
L 820.493482 193.676029 
L 823.018249 175.780395 
L 826.665134 149.938483 
L 828.208047 140.507809 
L 829.470431 134.004322 
L 830.592549 129.332624 
L 831.574403 126.181891 
L 832.415992 124.195423 
L 833.117316 123.032605 
L 833.81864 122.289588 
L 834.3797 121.96656 
L 835.081024 121.840825 
L 835.501818 121.868416 
L 835.501818 121.868416 
" style="fill:none;stroke:#2ca02c;stroke-linecap:square;stroke-width:1.5;"/>
   </g>
   <g id="patch_9">
    <path d="M 463.84 260.23 
L 463.84 10.8 
" style="fill:none;stroke:#000000;stroke-linecap:square;stroke-linejoin:miter;stroke-width:0.8;"/>
   </g>
   <g id="patch_10">
    <path d="M 853.2 260.23 
L 853.2 10.8 
" style="fill:none;stroke:#000000;stroke-linecap:square;stroke-linejoin:miter;stroke-width:0.8;"/>
   </g>
   <g id="patch_11">
    <path d="M 463.84 260.23 
L 853.2 260.23 
" style="fill:none;stroke:#000000;stroke-linecap:square;stroke-linejoin:miter;stroke-width:0.8;"/>
   </g>
   <g id="patch_12">
    <path d="M 463.84 10.8 
L 853.2 10.8 
" style="fill:none;stroke:#000000;stroke-linecap:square;stroke-linejoin:miter;stroke-width:0.8;"/>
   </g>
   <g id="legend_2">
    <g id="patch_13">
     <path d="M 637.97 255.23 
L 679.07 255.23 
Q 681.07 255.23 681.07 253.23 
L 681.07 206.87375 
Q 681.07 204.87375 679.07 204.87375 
L 637.97 204.87375 
Q 635.97 204.87375 635.97 206.87375 
L 635.97 253.23 
Q 635.97 255.23 637.97 255.23 
z
" style="fill:#ffffff;opacity:0.8;stroke:#cccccc;stroke-linejoin:miter;"/>
    </g>
    <g id="line2d_73">
     <path d="M 639.97 212.972187 
L 659.97 212.972187 
" style="fill:none;stroke:#1f77b4;stroke-linecap:square;stroke-width:1.5;"/>
    </g>
    <g id="line2d_74"/>
    <g id="text_15">
     <!-- $\ddot x$ -->
     <g transform="translate(667.97 216.472187)scale(0.1 -0.1)">
      <defs>
       <path d="M -1306 4850 
L -672 4850 
L -672 4219 
L -1306 4219 
L -1306 4850 
z
M -2528 4850 
L -1894 4850 
L -1894 4219 
L -2528 4219 
L -2528 4850 
z
M -1600 3584 
L -1600 3584 
z
" id="DejaVuSans-308" transform="scale(0.015625)"/>
       <path id="DejaVuSans-20" transform="scale(0.015625)"/>
      </defs>
      <use transform="translate(44.446777 -43.1875)" xlink:href="#DejaVuSans-308"/>
      <use transform="translate(0 0.3125)" xlink:href="#DejaVuSans-20"/>
      <use transform="translate(31.787109 0.3125)" xlink:href="#DejaVuSans-Oblique-78"/>
     </g>
    </g>
    <g id="line2d_75">
     <path d="M 639.97 227.650312 
L 659.97 227.650312 
" style="fill:none;stroke:#ff7f0e;stroke-linecap:square;stroke-width:1.5;"/>
    </g>
    <g id="line2d_76"/>
    <g id="text_16">
     <!-- $\ddot z$ -->
     <g transform="translate(667.97 231.150312)scale(0.1 -0.1)">
      <use transform="translate(44.446777 -43.1875)" xlink:href="#DejaVuSans-308"/>
      <use transform="translate(0 0.3125)" xlink:href="#DejaVuSans-20"/>
      <use transform="translate(31.787109 0.3125)" xlink:href="#DejaVuSans-Oblique-7a"/>
     </g>
    </g>
    <g id="line2d_77">
     <path d="M 639.97 245.63 
L 659.97 245.63 
" style="fill:none;stroke:#2ca02c;stroke-linecap:square;stroke-width:1.5;"/>
    </g>
    <g id="line2d_78"/>
    <g id="text_17">
     <!-- $\ddot\phi$ -->
     <g transform="translate(667.97 249.13)scale(0.1 -0.1)">
      <use transform="translate(62.488281 33.21875)" xlink:href="#DejaVuSans-308"/>
      <use transform="translate(0 0.734375)" xlink:href="#DejaVuSans-Oblique-3d5"/>
     </g>
    </g>
   </g>
  </g>
  <g id="axes_3">
   <g id="patch_14">
    <path d="M 42.01 523.96 
L 431.37 523.96 
L 431.37 274.53 
L 42.01 274.53 
z
" style="fill:#ffffff;"/>
   </g>
   <g id="matplotlib.axis_5">
    <g id="xtick_15">
     <g id="line2d_79">
      <path clip-path="url(#p7c3cd506c9)" d="M 59.708182 523.96 
L 59.708182 274.53 
" style="fill:none;stroke:#b0b0b0;stroke-linecap:square;stroke-width:0.8;"/>
     </g>
     <g id="line2d_80">
      <g>
       <use style="stroke:#000000;stroke-width:0.8;" x="59.708182" xlink:href="#m54b5ff9099" y="523.96"/>
      </g>
     </g>
     <g id="text_18">
      <!-- 0 -->
      <g transform="translate(56.526932 538.558437)scale(0.1 -0.1)">
       <use xlink:href="#DejaVuSans-30"/>
      </g>
     </g>
    </g>
    <g id="xtick_16">
     <g id="line2d_81">
      <path clip-path="url(#p7c3cd506c9)" d="M 117.356819 523.96 
L 117.356819 274.53 
" style="fill:none;stroke:#b0b0b0;stroke-linecap:square;stroke-width:0.8;"/>
     </g>
     <g id="line2d_82">
      <g>
       <use style="stroke:#000000;stroke-width:0.8;" x="117.356819" xlink:href="#m54b5ff9099" y="523.96"/>
      </g>
     </g>
     <g id="text_19">
      <!-- 1 -->
      <g transform="translate(114.175569 538.558437)scale(0.1 -0.1)">
       <use xlink:href="#DejaVuSans-31"/>
      </g>
     </g>
    </g>
    <g id="xtick_17">
     <g id="line2d_83">
      <path clip-path="url(#p7c3cd506c9)" d="M 175.005455 523.96 
L 175.005455 274.53 
" style="fill:none;stroke:#b0b0b0;stroke-linecap:square;stroke-width:0.8;"/>
     </g>
     <g id="line2d_84">
      <g>
       <use style="stroke:#000000;stroke-width:0.8;" x="175.005455" xlink:href="#m54b5ff9099" y="523.96"/>
      </g>
     </g>
     <g id="text_20">
      <!-- 2 -->
      <g transform="translate(171.824205 538.558437)scale(0.1 -0.1)">
       <use xlink:href="#DejaVuSans-32"/>
      </g>
     </g>
    </g>
    <g id="xtick_18">
     <g id="line2d_85">
      <path clip-path="url(#p7c3cd506c9)" d="M 232.654092 523.96 
L 232.654092 274.53 
" style="fill:none;stroke:#b0b0b0;stroke-linecap:square;stroke-width:0.8;"/>
     </g>
     <g id="line2d_86">
      <g>
       <use style="stroke:#000000;stroke-width:0.8;" x="232.654092" xlink:href="#m54b5ff9099" y="523.96"/>
      </g>
     </g>
     <g id="text_21">
      <!-- 3 -->
      <g transform="translate(229.472842 538.558437)scale(0.1 -0.1)">
       <defs>
        <path d="M 2597 2516 
Q 3050 2419 3304 2112 
Q 3559 1806 3559 1356 
Q 3559 666 3084 287 
Q 2609 -91 1734 -91 
Q 1441 -91 1130 -33 
Q 819 25 488 141 
L 488 750 
Q 750 597 1062 519 
Q 1375 441 1716 441 
Q 2309 441 2620 675 
Q 2931 909 2931 1356 
Q 2931 1769 2642 2001 
Q 2353 2234 1838 2234 
L 1294 2234 
L 1294 2753 
L 1863 2753 
Q 2328 2753 2575 2939 
Q 2822 3125 2822 3475 
Q 2822 3834 2567 4026 
Q 2313 4219 1838 4219 
Q 1578 4219 1281 4162 
Q 984 4106 628 3988 
L 628 4550 
Q 988 4650 1302 4700 
Q 1616 4750 1894 4750 
Q 2613 4750 3031 4423 
Q 3450 4097 3450 3541 
Q 3450 3153 3228 2886 
Q 3006 2619 2597 2516 
z
" id="DejaVuSans-33" transform="scale(0.015625)"/>
       </defs>
       <use xlink:href="#DejaVuSans-33"/>
      </g>
     </g>
    </g>
    <g id="xtick_19">
     <g id="line2d_87">
      <path clip-path="url(#p7c3cd506c9)" d="M 290.302729 523.96 
L 290.302729 274.53 
" style="fill:none;stroke:#b0b0b0;stroke-linecap:square;stroke-width:0.8;"/>
     </g>
     <g id="line2d_88">
      <g>
       <use style="stroke:#000000;stroke-width:0.8;" x="290.302729" xlink:href="#m54b5ff9099" y="523.96"/>
      </g>
     </g>
     <g id="text_22">
      <!-- 4 -->
      <g transform="translate(287.121479 538.558437)scale(0.1 -0.1)">
       <use xlink:href="#DejaVuSans-34"/>
      </g>
     </g>
    </g>
    <g id="xtick_20">
     <g id="line2d_89">
      <path clip-path="url(#p7c3cd506c9)" d="M 347.951366 523.96 
L 347.951366 274.53 
" style="fill:none;stroke:#b0b0b0;stroke-linecap:square;stroke-width:0.8;"/>
     </g>
     <g id="line2d_90">
      <g>
       <use style="stroke:#000000;stroke-width:0.8;" x="347.951366" xlink:href="#m54b5ff9099" y="523.96"/>
      </g>
     </g>
     <g id="text_23">
      <!-- 5 -->
      <g transform="translate(344.770116 538.558437)scale(0.1 -0.1)">
       <use xlink:href="#DejaVuSans-35"/>
      </g>
     </g>
    </g>
    <g id="xtick_21">
     <g id="line2d_91">
      <path clip-path="url(#p7c3cd506c9)" d="M 405.600002 523.96 
L 405.600002 274.53 
" style="fill:none;stroke:#b0b0b0;stroke-linecap:square;stroke-width:0.8;"/>
     </g>
     <g id="line2d_92">
      <g>
       <use style="stroke:#000000;stroke-width:0.8;" x="405.600002" xlink:href="#m54b5ff9099" y="523.96"/>
      </g>
     </g>
     <g id="text_24">
      <!-- 6 -->
      <g transform="translate(402.418752 538.558437)scale(0.1 -0.1)">
       <defs>
        <path d="M 2113 2584 
Q 1688 2584 1439 2293 
Q 1191 2003 1191 1497 
Q 1191 994 1439 701 
Q 1688 409 2113 409 
Q 2538 409 2786 701 
Q 3034 994 3034 1497 
Q 3034 2003 2786 2293 
Q 2538 2584 2113 2584 
z
M 3366 4563 
L 3366 3988 
Q 3128 4100 2886 4159 
Q 2644 4219 2406 4219 
Q 1781 4219 1451 3797 
Q 1122 3375 1075 2522 
Q 1259 2794 1537 2939 
Q 1816 3084 2150 3084 
Q 2853 3084 3261 2657 
Q 3669 2231 3669 1497 
Q 3669 778 3244 343 
Q 2819 -91 2113 -91 
Q 1303 -91 875 529 
Q 447 1150 447 2328 
Q 447 3434 972 4092 
Q 1497 4750 2381 4750 
Q 2619 4750 2861 4703 
Q 3103 4656 3366 4563 
z
" id="DejaVuSans-36" transform="scale(0.015625)"/>
       </defs>
       <use xlink:href="#DejaVuSans-36"/>
      </g>
     </g>
    </g>
    <g id="text_25">
     <!-- t, sec -->
     <g transform="translate(209.5525 559.835)scale(0.2 -0.2)">
      <defs>
       <path d="M 1172 4494 
L 1172 3500 
L 2356 3500 
L 2356 3053 
L 1172 3053 
L 1172 1153 
Q 1172 725 1289 603 
Q 1406 481 1766 481 
L 2356 481 
L 2356 0 
L 1766 0 
Q 1100 0 847 248 
Q 594 497 594 1153 
L 594 3053 
L 172 3053 
L 172 3500 
L 594 3500 
L 594 4494 
L 1172 4494 
z
" id="DejaVuSans-74" transform="scale(0.015625)"/>
       <path d="M 750 794 
L 1409 794 
L 1409 256 
L 897 -744 
L 494 -744 
L 750 256 
L 750 794 
z
" id="DejaVuSans-2c" transform="scale(0.015625)"/>
       <path d="M 2834 3397 
L 2834 2853 
Q 2591 2978 2328 3040 
Q 2066 3103 1784 3103 
Q 1356 3103 1142 2972 
Q 928 2841 928 2578 
Q 928 2378 1081 2264 
Q 1234 2150 1697 2047 
L 1894 2003 
Q 2506 1872 2764 1633 
Q 3022 1394 3022 966 
Q 3022 478 2636 193 
Q 2250 -91 1575 -91 
Q 1294 -91 989 -36 
Q 684 19 347 128 
L 347 722 
Q 666 556 975 473 
Q 1284 391 1588 391 
Q 1994 391 2212 530 
Q 2431 669 2431 922 
Q 2431 1156 2273 1281 
Q 2116 1406 1581 1522 
L 1381 1569 
Q 847 1681 609 1914 
Q 372 2147 372 2553 
Q 372 3047 722 3315 
Q 1072 3584 1716 3584 
Q 2034 3584 2315 3537 
Q 2597 3491 2834 3397 
z
" id="DejaVuSans-73" transform="scale(0.015625)"/>
       <path d="M 3597 1894 
L 3597 1613 
L 953 1613 
Q 991 1019 1311 708 
Q 1631 397 2203 397 
Q 2534 397 2845 478 
Q 3156 559 3463 722 
L 3463 178 
Q 3153 47 2828 -22 
Q 2503 -91 2169 -91 
Q 1331 -91 842 396 
Q 353 884 353 1716 
Q 353 2575 817 3079 
Q 1281 3584 2069 3584 
Q 2775 3584 3186 3129 
Q 3597 2675 3597 1894 
z
M 3022 2063 
Q 3016 2534 2758 2815 
Q 2500 3097 2075 3097 
Q 1594 3097 1305 2825 
Q 1016 2553 972 2059 
L 3022 2063 
z
" id="DejaVuSans-65" transform="scale(0.015625)"/>
       <path d="M 3122 3366 
L 3122 2828 
Q 2878 2963 2633 3030 
Q 2388 3097 2138 3097 
Q 1578 3097 1268 2742 
Q 959 2388 959 1747 
Q 959 1106 1268 751 
Q 1578 397 2138 397 
Q 2388 397 2633 464 
Q 2878 531 3122 666 
L 3122 134 
Q 2881 22 2623 -34 
Q 2366 -91 2075 -91 
Q 1284 -91 818 406 
Q 353 903 353 1747 
Q 353 2603 823 3093 
Q 1294 3584 2113 3584 
Q 2378 3584 2631 3529 
Q 2884 3475 3122 3366 
z
" id="DejaVuSans-63" transform="scale(0.015625)"/>
      </defs>
      <use xlink:href="#DejaVuSans-74"/>
      <use x="39.208984" xlink:href="#DejaVuSans-2c"/>
      <use x="70.996094" xlink:href="#DejaVuSans-20"/>
      <use x="102.783203" xlink:href="#DejaVuSans-73"/>
      <use x="154.882812" xlink:href="#DejaVuSans-65"/>
      <use x="216.40625" xlink:href="#DejaVuSans-63"/>
     </g>
    </g>
   </g>
   <g id="matplotlib.axis_6">
    <g id="ytick_12">
     <g id="line2d_93">
      <path clip-path="url(#p7c3cd506c9)" d="M 42.01 514.868352 
L 431.37 514.868352 
" style="fill:none;stroke:#b0b0b0;stroke-linecap:square;stroke-width:0.8;"/>
     </g>
     <g id="line2d_94">
      <g>
       <use style="stroke:#000000;stroke-width:0.8;" x="42.01" xlink:href="#me4a5e97658" y="514.868352"/>
      </g>
     </g>
     <g id="text_26">
      <!-- −1.5 -->
      <g transform="translate(10.727188 518.66757)scale(0.1 -0.1)">
       <use xlink:href="#DejaVuSans-2212"/>
       <use x="83.789062" xlink:href="#DejaVuSans-31"/>
       <use x="147.412109" xlink:href="#DejaVuSans-2e"/>
       <use x="179.199219" xlink:href="#DejaVuSans-35"/>
      </g>
     </g>
    </g>
    <g id="ytick_13">
     <g id="line2d_95">
      <path clip-path="url(#p7c3cd506c9)" d="M 42.01 476.327234 
L 431.37 476.327234 
" style="fill:none;stroke:#b0b0b0;stroke-linecap:square;stroke-width:0.8;"/>
     </g>
     <g id="line2d_96">
      <g>
       <use style="stroke:#000000;stroke-width:0.8;" x="42.01" xlink:href="#me4a5e97658" y="476.327234"/>
      </g>
     </g>
     <g id="text_27">
      <!-- −1.0 -->
      <g transform="translate(10.727188 480.126453)scale(0.1 -0.1)">
       <use xlink:href="#DejaVuSans-2212"/>
       <use x="83.789062" xlink:href="#DejaVuSans-31"/>
       <use x="147.412109" xlink:href="#DejaVuSans-2e"/>
       <use x="179.199219" xlink:href="#DejaVuSans-30"/>
      </g>
     </g>
    </g>
    <g id="ytick_14">
     <g id="line2d_97">
      <path clip-path="url(#p7c3cd506c9)" d="M 42.01 437.786117 
L 431.37 437.786117 
" style="fill:none;stroke:#b0b0b0;stroke-linecap:square;stroke-width:0.8;"/>
     </g>
     <g id="line2d_98">
      <g>
       <use style="stroke:#000000;stroke-width:0.8;" x="42.01" xlink:href="#me4a5e97658" y="437.786117"/>
      </g>
     </g>
     <g id="text_28">
      <!-- −0.5 -->
      <g transform="translate(10.727188 441.585336)scale(0.1 -0.1)">
       <use xlink:href="#DejaVuSans-2212"/>
       <use x="83.789062" xlink:href="#DejaVuSans-30"/>
       <use x="147.412109" xlink:href="#DejaVuSans-2e"/>
       <use x="179.199219" xlink:href="#DejaVuSans-35"/>
      </g>
     </g>
    </g>
    <g id="ytick_15">
     <g id="line2d_99">
      <path clip-path="url(#p7c3cd506c9)" d="M 42.01 399.245 
L 431.37 399.245 
" style="fill:none;stroke:#b0b0b0;stroke-linecap:square;stroke-width:0.8;"/>
     </g>
     <g id="line2d_100">
      <g>
       <use style="stroke:#000000;stroke-width:0.8;" x="42.01" xlink:href="#me4a5e97658" y="399.245"/>
      </g>
     </g>
     <g id="text_29">
      <!-- 0.0 -->
      <g transform="translate(19.106875 403.044219)scale(0.1 -0.1)">
       <use xlink:href="#DejaVuSans-30"/>
       <use x="63.623047" xlink:href="#DejaVuSans-2e"/>
       <use x="95.410156" xlink:href="#DejaVuSans-30"/>
      </g>
     </g>
    </g>
    <g id="ytick_16">
     <g id="line2d_101">
      <path clip-path="url(#p7c3cd506c9)" d="M 42.01 360.703883 
L 431.37 360.703883 
" style="fill:none;stroke:#b0b0b0;stroke-linecap:square;stroke-width:0.8;"/>
     </g>
     <g id="line2d_102">
      <g>
       <use style="stroke:#000000;stroke-width:0.8;" x="42.01" xlink:href="#me4a5e97658" y="360.703883"/>
      </g>
     </g>
     <g id="text_30">
      <!-- 0.5 -->
      <g transform="translate(19.106875 364.503102)scale(0.1 -0.1)">
       <use xlink:href="#DejaVuSans-30"/>
       <use x="63.623047" xlink:href="#DejaVuSans-2e"/>
       <use x="95.410156" xlink:href="#DejaVuSans-35"/>
      </g>
     </g>
    </g>
    <g id="ytick_17">
     <g id="line2d_103">
      <path clip-path="url(#p7c3cd506c9)" d="M 42.01 322.162766 
L 431.37 322.162766 
" style="fill:none;stroke:#b0b0b0;stroke-linecap:square;stroke-width:0.8;"/>
     </g>
     <g id="line2d_104">
      <g>
       <use style="stroke:#000000;stroke-width:0.8;" x="42.01" xlink:href="#me4a5e97658" y="322.162766"/>
      </g>
     </g>
     <g id="text_31">
      <!-- 1.0 -->
      <g transform="translate(19.106875 325.961984)scale(0.1 -0.1)">
       <use xlink:href="#DejaVuSans-31"/>
       <use x="63.623047" xlink:href="#DejaVuSans-2e"/>
       <use x="95.410156" xlink:href="#DejaVuSans-30"/>
      </g>
     </g>
    </g>
    <g id="ytick_18">
     <g id="line2d_105">
      <path clip-path="url(#p7c3cd506c9)" d="M 42.01 283.621648 
L 431.37 283.621648 
" style="fill:none;stroke:#b0b0b0;stroke-linecap:square;stroke-width:0.8;"/>
     </g>
     <g id="line2d_106">
      <g>
       <use style="stroke:#000000;stroke-width:0.8;" x="42.01" xlink:href="#me4a5e97658" y="283.621648"/>
      </g>
     </g>
     <g id="text_32">
      <!-- 1.5 -->
      <g transform="translate(19.106875 287.420867)scale(0.1 -0.1)">
       <use xlink:href="#DejaVuSans-31"/>
       <use x="63.623047" xlink:href="#DejaVuSans-2e"/>
       <use x="95.410156" xlink:href="#DejaVuSans-35"/>
      </g>
     </g>
    </g>
   </g>
   <g id="line2d_107">
    <path clip-path="url(#p7c3cd506c9)" d="M 59.708182 523.96 
L 59.708182 274.53 
" style="fill:none;stroke:#ffd700;stroke-linecap:square;stroke-width:2;"/>
   </g>
   <g id="line2d_108">
    <path clip-path="url(#p7c3cd506c9)" d="M 169.787829 523.96 
L 169.787829 274.53 
" style="fill:none;stroke:#ffd700;stroke-linecap:square;stroke-width:2;"/>
   </g>
   <g id="line2d_109">
    <path clip-path="url(#p7c3cd506c9)" d="M 270.212994 523.96 
L 270.212994 274.53 
" style="fill:none;stroke:#ffd700;stroke-linecap:square;stroke-width:2;"/>
   </g>
   <g id="line2d_110">
    <path clip-path="url(#p7c3cd506c9)" d="M 343.539406 523.96 
L 343.539406 274.53 
" style="fill:none;stroke:#ffd700;stroke-linecap:square;stroke-width:2;"/>
   </g>
   <g id="line2d_111">
    <path clip-path="url(#p7c3cd506c9)" d="M 413.671818 523.96 
L 413.671818 274.53 
" style="fill:none;stroke:#ffd700;stroke-linecap:square;stroke-width:2;"/>
   </g>
   <g id="line2d_112">
    <path clip-path="url(#p7c3cd506c9)" d="M 59.708182 313.820842 
L 66.312961 313.85088 
L 68.514554 314.112406 
L 70.275828 314.527588 
L 72.037102 315.185655 
L 73.578217 315.999905 
L 75.119332 317.065344 
L 76.660447 318.401466 
L 78.201563 320.019039 
L 79.962837 322.214097 
L 81.724111 324.767465 
L 83.705545 328.038205 
L 85.907138 332.109643 
L 88.549049 337.494863 
L 91.851439 344.788023 
L 96.474784 355.609578 
L 138.965528 456.679222 
L 142.267917 463.747897 
L 144.909829 468.874527 
L 147.111422 472.677172 
L 149.092855 475.670416 
L 150.85413 477.956641 
L 152.615404 479.874822 
L 154.156519 481.250703 
L 155.697634 482.353812 
L 157.238749 483.202448 
L 158.779864 483.822734 
L 160.541139 484.293604 
L 162.522572 484.584924 
L 164.944324 484.709941 
L 169.787829 484.669158 
L 174.005686 484.511352 
L 175.813339 484.193041 
L 177.219291 483.740872 
L 178.625243 483.063529 
L 180.031196 482.129655 
L 181.437148 480.919551 
L 182.8431 479.425387 
L 184.449903 477.374526 
L 186.257556 474.654298 
L 188.266059 471.173917 
L 190.475413 466.88133 
L 193.287318 460.889243 
L 197.103474 452.170748 
L 215.983405 408.260738 
L 232.854833 370.011739 
L 248.722009 333.268709 
L 251.333063 328.063449 
L 253.542417 324.163161 
L 255.35007 321.396768 
L 256.956872 319.301192 
L 258.563675 317.570449 
L 259.969627 316.360345 
L 261.37558 315.426471 
L 262.781532 314.749128 
L 264.187484 314.296959 
L 265.794287 314.002219 
L 268.003641 313.852287 
L 274.025968 313.808165 
L 276.079107 313.972169 
L 277.692288 314.311909 
L 279.012164 314.795546 
L 280.332039 315.518181 
L 281.505262 316.40039 
L 282.678484 317.540775 
L 283.851707 318.966006 
L 285.171582 320.935888 
L 286.491458 323.313005 
L 287.957986 326.442524 
L 289.571167 330.473592 
L 291.331001 335.543607 
L 293.237488 341.761323 
L 295.43728 349.748478 
L 298.077031 360.257489 
L 301.303393 374.079336 
L 306.289589 396.565285 
L 313.62223 429.533918 
L 316.848592 443.010993 
L 319.488343 453.100678 
L 321.688135 460.639583 
L 323.594622 466.402078 
L 325.354456 471.00856 
L 326.967637 474.59231 
L 328.434165 477.310362 
L 329.754041 479.324694 
L 331.073916 480.949225 
L 332.393791 482.213405 
L 333.713667 483.155591 
L 335.033542 483.820824 
L 336.50007 484.294875 
L 338.113252 484.573405 
L 340.166391 484.692262 
L 344.801789 484.653722 
L 347.186291 484.498561 
L 348.58894 484.196424 
L 349.851323 483.700609 
L 350.973442 483.032707 
L 352.09556 482.115187 
L 353.217679 480.921744 
L 354.480062 479.227704 
L 355.742446 477.15061 
L 357.145094 474.395703 
L 358.688007 470.844208 
L 360.371185 466.397738 
L 362.334892 460.552387 
L 364.719394 452.681633 
L 367.664956 442.104633 
L 371.592371 427.097777 
L 378.465347 399.806269 
L 387.442296 364.332146 
L 391.229446 350.245556 
L 394.034743 340.629263 
L 396.27898 333.695049 
L 398.242687 328.347114 
L 399.925865 324.395096 
L 401.468778 321.33939 
L 402.871427 319.055249 
L 404.13381 317.403298 
L 405.396194 316.120448 
L 406.658577 315.179253 
L 407.92096 314.538642 
L 409.183344 314.145777 
L 410.726257 313.912238 
L 413.110759 313.826993 
L 413.671818 313.820842 
L 413.671818 313.820842 
" style="fill:none;stroke:#1f77b4;stroke-linecap:square;stroke-width:1.5;"/>
   </g>
   <g id="line2d_113">
    <path clip-path="url(#p7c3cd506c9)" d="M 59.708182 386.425888 
L 72.917739 405.133628 
L 75.99997 409.048545 
L 78.421722 411.760871 
L 80.403155 413.665951 
L 82.16443 415.082767 
L 83.925704 416.215296 
L 85.466819 416.961982 
L 87.007934 417.476741 
L 88.549049 417.760946 
L 90.090164 417.820295 
L 91.631279 417.664057 
L 93.172395 417.304255 
L 94.933669 416.661803 
L 96.915103 415.67159 
L 98.896536 414.430864 
L 101.098129 412.799691 
L 103.740041 410.552394 
L 106.822271 407.622064 
L 110.785138 403.526213 
L 124.214855 389.367392 
L 127.297085 386.592039 
L 129.938997 384.522496 
L 132.14059 383.073681 
L 134.122023 382.024847 
L 135.883298 381.324013 
L 137.644572 380.865189 
L 139.185687 380.67908 
L 140.726802 380.706991 
L 142.267917 380.958632 
L 143.809032 381.440262 
L 145.350147 382.153914 
L 146.891262 383.096754 
L 148.652537 384.44429 
L 150.63397 386.279285 
L 152.835563 388.664693 
L 155.257315 391.627018 
L 158.559705 396.055826 
L 164.504006 404.501591 
L 176.014189 420.826499 
L 178.826094 424.41744 
L 181.035447 426.868831 
L 182.8431 428.546425 
L 184.449903 429.746477 
L 185.855855 430.551405 
L 187.261808 431.117155 
L 188.66776 431.43997 
L 190.073712 431.521531 
L 191.479665 431.368181 
L 192.885617 430.990009 
L 194.49242 430.299143 
L 196.099222 429.353712 
L 197.906875 428.015616 
L 199.915378 426.228658 
L 202.124732 423.951363 
L 204.735786 420.914635 
L 207.748541 417.048655 
L 211.564698 411.754235 
L 216.786806 404.079579 
L 229.440377 385.308662 
L 233.256533 380.116095 
L 236.269288 376.368161 
L 238.880343 373.466584 
L 241.089696 371.331115 
L 243.0982 369.697024 
L 244.905853 368.516822 
L 246.512655 367.727772 
L 247.918608 367.257061 
L 249.32456 367.005939 
L 250.730512 366.985807 
L 252.136464 367.20473 
L 253.542417 367.666492 
L 254.948369 368.369749 
L 256.354321 369.307383 
L 257.961124 370.648754 
L 259.768777 372.466295 
L 261.77728 374.804522 
L 264.388335 378.206677 
L 268.606192 384.12992 
L 281.798567 402.776145 
L 284.145012 405.649598 
L 286.051499 407.650803 
L 287.66468 409.036634 
L 289.131208 410.007945 
L 290.451084 410.622458 
L 291.770959 410.976178 
L 292.944182 411.065778 
L 294.117404 410.943406 
L 295.290627 410.613159 
L 296.610502 410.003388 
L 298.077031 409.050188 
L 299.690212 407.701712 
L 301.450046 405.927664 
L 303.649838 403.371865 
L 307.022853 399.053546 
L 310.982479 394.059022 
L 313.182272 391.639837 
L 314.942105 390.016368 
L 316.555286 388.834509 
L 318.021815 388.052742 
L 319.34169 387.609919 
L 320.514913 387.435031 
L 321.688135 387.471486 
L 322.861358 387.720162 
L 324.181233 388.24897 
L 325.501109 389.029934 
L 326.967637 390.170785 
L 328.580818 391.718749 
L 330.487305 393.873078 
L 332.83375 396.87537 
L 336.50007 401.983549 
L 349.711058 420.645631 
L 351.815031 423.169016 
L 353.498209 424.862482 
L 354.900857 425.986524 
L 356.16324 426.737645 
L 357.285359 427.177671 
L 358.407477 427.390671 
L 359.529596 427.369213 
L 360.651715 427.1105 
L 361.773833 426.616078 
L 362.895952 425.891369 
L 364.158335 424.811794 
L 365.560983 423.303637 
L 367.103896 421.3011 
L 368.787074 418.752659 
L 370.750782 415.372999 
L 373.135284 410.806567 
L 376.361375 404.092882 
L 384.777264 386.296338 
L 387.161766 381.864978 
L 389.125474 378.63273 
L 390.948917 376.05421 
L 392.49183 374.24382 
L 393.894478 372.928077 
L 395.156861 372.033799 
L 396.27898 371.481157 
L 397.401099 371.163212 
L 398.523217 371.082527 
L 399.645336 371.237425 
L 400.767454 371.621649 
L 402.029838 372.314189 
L 403.292221 373.260511 
L 404.835134 374.71924 
L 406.658577 376.790466 
L 408.902814 379.699472 
L 412.830229 385.223088 
L 413.671818 386.425888 
L 413.671818 386.425888 
" style="fill:none;stroke:#ff7f0e;stroke-linecap:square;stroke-width:1.5;"/>
   </g>
   <g id="line2d_114">
    <path clip-path="url(#p7c3cd506c9)" d="M 59.708182 510.387913 
L 65.872642 507.503436 
L 68.074235 506.205115 
L 70.055669 504.759544 
L 71.816943 503.180306 
L 73.578217 501.268758 
L 75.339492 498.985651 
L 77.100766 496.308827 
L 78.86204 493.234749 
L 80.843474 489.320251 
L 83.045067 484.457202 
L 85.686979 478.026752 
L 88.989368 469.327302 
L 94.053032 455.254566 
L 103.519881 428.942005 
L 110.12466 411.328258 
L 127.517244 365.345091 
L 134.562342 345.714426 
L 141.607439 326.19988 
L 144.909829 317.714764 
L 147.55174 311.538278 
L 149.753333 306.937378 
L 151.734767 303.287802 
L 153.496041 300.461419 
L 155.257315 298.032276 
L 157.01859 295.985133 
L 158.779864 294.286837 
L 160.541139 292.889134 
L 162.522572 291.602544 
L 164.944324 290.313233 
L 169.127351 288.399392 
L 173.804835 286.407532 
L 175.411638 285.987984 
L 176.81759 285.867727 
L 178.022692 285.999992 
L 179.227794 286.385863 
L 180.432896 287.051884 
L 181.637998 288.01618 
L 182.8431 289.288292 
L 184.048202 290.869557 
L 185.454155 293.096638 
L 187.060957 296.120226 
L 188.86861 300.077919 
L 190.877114 305.074932 
L 193.287318 311.747912 
L 196.099222 320.223565 
L 199.915378 332.470246 
L 207.346841 357.243388 
L 220.201262 399.907303 
L 234.662486 447.976111 
L 242.495649 473.829955 
L 245.910104 484.385156 
L 248.521159 491.809277 
L 250.730512 497.459852 
L 252.538165 501.538855 
L 254.144968 504.683924 
L 255.75177 507.32717 
L 257.157723 509.201708 
L 258.362825 510.47382 
L 259.567927 511.438116 
L 260.773029 512.104137 
L 261.978131 512.490008 
L 263.183233 512.622273 
L 264.388335 512.535113 
L 265.794287 512.210219 
L 267.60194 511.548756 
L 272.119481 509.529274 
L 275.052537 508.074917 
L 276.812371 506.956564 
L 278.2789 505.770749 
L 279.598775 504.436421 
L 280.91865 502.791178 
L 282.238526 500.784683 
L 283.558401 498.375126 
L 285.024929 495.188133 
L 286.491458 491.442157 
L 288.104639 486.672444 
L 289.864473 480.720178 
L 291.770959 473.459712 
L 293.970752 464.17161 
L 296.610502 451.996475 
L 299.983517 435.292476 
L 304.969713 409.330926 
L 314.795453 358.009602 
L 318.168468 341.644543 
L 320.808218 329.87338 
L 323.008011 321.021523 
L 324.914497 314.20538 
L 326.674331 308.704188 
L 328.287512 304.36642 
L 329.754041 301.0133 
L 331.220569 298.204671 
L 332.687097 295.903078 
L 334.006972 294.220051 
L 335.473501 292.719251 
L 336.940029 291.533436 
L 338.699863 290.415083 
L 340.899655 289.298231 
L 346.204438 286.94915 
L 347.747351 286.489401 
L 348.869469 286.364404 
L 349.851323 286.455491 
L 350.833177 286.774774 
L 351.815031 287.356999 
L 352.796884 288.2313 
L 353.778738 289.420371 
L 354.760592 290.940012 
L 355.882711 293.092566 
L 357.145094 296.046626 
L 358.547742 299.975345 
L 360.090655 305.04065 
L 361.773833 311.376082 
L 363.737541 319.69584 
L 365.981778 330.207982 
L 368.787074 344.480977 
L 372.43396 364.273057 
L 378.465347 398.442912 
L 386.320177 442.718528 
L 389.967063 461.99112 
L 392.632095 474.964573 
L 394.876332 484.8319 
L 396.699774 491.941004 
L 398.382952 497.650003 
L 399.925865 502.080712 
L 401.188249 505.096964 
L 402.450632 507.549988 
L 403.572751 509.259443 
L 404.554605 510.402415 
L 405.536458 511.233446 
L 406.518312 511.776182 
L 407.500166 512.060621 
L 408.48202 512.122218 
L 409.604138 511.970708 
L 411.006787 511.54085 
L 413.391289 510.514842 
L 413.671818 510.387913 
L 413.671818 510.387913 
" style="fill:none;stroke:#2ca02c;stroke-linecap:square;stroke-width:1.5;"/>
   </g>
   <g id="patch_15">
    <path d="M 42.01 523.96 
L 42.01 274.53 
" style="fill:none;stroke:#000000;stroke-linecap:square;stroke-linejoin:miter;stroke-width:0.8;"/>
   </g>
   <g id="patch_16">
    <path d="M 431.37 523.96 
L 431.37 274.53 
" style="fill:none;stroke:#000000;stroke-linecap:square;stroke-linejoin:miter;stroke-width:0.8;"/>
   </g>
   <g id="patch_17">
    <path d="M 42.01 523.96 
L 431.37 523.96 
" style="fill:none;stroke:#000000;stroke-linecap:square;stroke-linejoin:miter;stroke-width:0.8;"/>
   </g>
   <g id="patch_18">
    <path d="M 42.01 274.53 
L 431.37 274.53 
" style="fill:none;stroke:#000000;stroke-linecap:square;stroke-linejoin:miter;stroke-width:0.8;"/>
   </g>
   <g id="legend_3">
    <g id="patch_19">
     <path d="M 216.14 329.88625 
L 257.24 329.88625 
Q 259.24 329.88625 259.24 327.88625 
L 259.24 281.53 
Q 259.24 279.53 257.24 279.53 
L 216.14 279.53 
Q 214.14 279.53 214.14 281.53 
L 214.14 327.88625 
Q 214.14 329.88625 216.14 329.88625 
z
" style="fill:#ffffff;opacity:0.8;stroke:#cccccc;stroke-linejoin:miter;"/>
    </g>
    <g id="line2d_115">
     <path d="M 218.14 287.628437 
L 238.14 287.628437 
" style="fill:none;stroke:#1f77b4;stroke-linecap:square;stroke-width:1.5;"/>
    </g>
    <g id="line2d_116"/>
    <g id="text_33">
     <!-- $\dot x$ -->
     <g transform="translate(246.14 291.128437)scale(0.1 -0.1)">
      <defs>
       <path d="M -1894 4863 
L -1319 4863 
L -1319 4134 
L -1894 4134 
L -1894 4863 
z
M -1600 3584 
L -1600 3584 
z
" id="DejaVuSans-307" transform="scale(0.015625)"/>
      </defs>
      <use transform="translate(44.540527 -43.1875)" xlink:href="#DejaVuSans-307"/>
      <use transform="translate(0 0.3125)" xlink:href="#DejaVuSans-20"/>
      <use transform="translate(31.787109 0.3125)" xlink:href="#DejaVuSans-Oblique-78"/>
     </g>
    </g>
    <g id="line2d_117">
     <path d="M 218.14 302.306562 
L 238.14 302.306562 
" style="fill:none;stroke:#ff7f0e;stroke-linecap:square;stroke-width:1.5;"/>
    </g>
    <g id="line2d_118"/>
    <g id="text_34">
     <!-- $\dot z$ -->
     <g transform="translate(246.14 305.806562)scale(0.1 -0.1)">
      <use transform="translate(44.540527 -43.1875)" xlink:href="#DejaVuSans-307"/>
      <use transform="translate(0 0.3125)" xlink:href="#DejaVuSans-20"/>
      <use transform="translate(31.787109 0.3125)" xlink:href="#DejaVuSans-Oblique-7a"/>
     </g>
    </g>
    <g id="line2d_119">
     <path d="M 218.14 320.28625 
L 238.14 320.28625 
" style="fill:none;stroke:#2ca02c;stroke-linecap:square;stroke-width:1.5;"/>
    </g>
    <g id="line2d_120"/>
    <g id="text_35">
     <!-- $\dot\phi$ -->
     <g transform="translate(246.14 323.78625)scale(0.1 -0.1)">
      <use transform="translate(62.582031 33.015625)" xlink:href="#DejaVuSans-307"/>
      <use transform="translate(0 0.53125)" xlink:href="#DejaVuSans-Oblique-3d5"/>
     </g>
    </g>
   </g>
  </g>
  <g id="axes_4">
   <g id="patch_20">
    <path d="M 463.84 523.96 
L 853.2 523.96 
L 853.2 274.53 
L 463.84 274.53 
z
" style="fill:#ffffff;"/>
   </g>
   <g id="matplotlib.axis_7">
    <g id="xtick_22">
     <g id="line2d_121">
      <path clip-path="url(#p3983d5d775)" d="M 481.538182 523.96 
L 481.538182 274.53 
" style="fill:none;stroke:#b0b0b0;stroke-linecap:square;stroke-width:0.8;"/>
     </g>
     <g id="line2d_122">
      <g>
       <use style="stroke:#000000;stroke-width:0.8;" x="481.538182" xlink:href="#m54b5ff9099" y="523.96"/>
      </g>
     </g>
     <g id="text_36">
      <!-- 0 -->
      <g transform="translate(478.356932 538.558437)scale(0.1 -0.1)">
       <use xlink:href="#DejaVuSans-30"/>
      </g>
     </g>
    </g>
    <g id="xtick_23">
     <g id="line2d_123">
      <path clip-path="url(#p3983d5d775)" d="M 539.186819 523.96 
L 539.186819 274.53 
" style="fill:none;stroke:#b0b0b0;stroke-linecap:square;stroke-width:0.8;"/>
     </g>
     <g id="line2d_124">
      <g>
       <use style="stroke:#000000;stroke-width:0.8;" x="539.186819" xlink:href="#m54b5ff9099" y="523.96"/>
      </g>
     </g>
     <g id="text_37">
      <!-- 1 -->
      <g transform="translate(536.005569 538.558437)scale(0.1 -0.1)">
       <use xlink:href="#DejaVuSans-31"/>
      </g>
     </g>
    </g>
    <g id="xtick_24">
     <g id="line2d_125">
      <path clip-path="url(#p3983d5d775)" d="M 596.835455 523.96 
L 596.835455 274.53 
" style="fill:none;stroke:#b0b0b0;stroke-linecap:square;stroke-width:0.8;"/>
     </g>
     <g id="line2d_126">
      <g>
       <use style="stroke:#000000;stroke-width:0.8;" x="596.835455" xlink:href="#m54b5ff9099" y="523.96"/>
      </g>
     </g>
     <g id="text_38">
      <!-- 2 -->
      <g transform="translate(593.654205 538.558437)scale(0.1 -0.1)">
       <use xlink:href="#DejaVuSans-32"/>
      </g>
     </g>
    </g>
    <g id="xtick_25">
     <g id="line2d_127">
      <path clip-path="url(#p3983d5d775)" d="M 654.484092 523.96 
L 654.484092 274.53 
" style="fill:none;stroke:#b0b0b0;stroke-linecap:square;stroke-width:0.8;"/>
     </g>
     <g id="line2d_128">
      <g>
       <use style="stroke:#000000;stroke-width:0.8;" x="654.484092" xlink:href="#m54b5ff9099" y="523.96"/>
      </g>
     </g>
     <g id="text_39">
      <!-- 3 -->
      <g transform="translate(651.302842 538.558437)scale(0.1 -0.1)">
       <use xlink:href="#DejaVuSans-33"/>
      </g>
     </g>
    </g>
    <g id="xtick_26">
     <g id="line2d_129">
      <path clip-path="url(#p3983d5d775)" d="M 712.132729 523.96 
L 712.132729 274.53 
" style="fill:none;stroke:#b0b0b0;stroke-linecap:square;stroke-width:0.8;"/>
     </g>
     <g id="line2d_130">
      <g>
       <use style="stroke:#000000;stroke-width:0.8;" x="712.132729" xlink:href="#m54b5ff9099" y="523.96"/>
      </g>
     </g>
     <g id="text_40">
      <!-- 4 -->
      <g transform="translate(708.951479 538.558437)scale(0.1 -0.1)">
       <use xlink:href="#DejaVuSans-34"/>
      </g>
     </g>
    </g>
    <g id="xtick_27">
     <g id="line2d_131">
      <path clip-path="url(#p3983d5d775)" d="M 769.781366 523.96 
L 769.781366 274.53 
" style="fill:none;stroke:#b0b0b0;stroke-linecap:square;stroke-width:0.8;"/>
     </g>
     <g id="line2d_132">
      <g>
       <use style="stroke:#000000;stroke-width:0.8;" x="769.781366" xlink:href="#m54b5ff9099" y="523.96"/>
      </g>
     </g>
     <g id="text_41">
      <!-- 5 -->
      <g transform="translate(766.600116 538.558437)scale(0.1 -0.1)">
       <use xlink:href="#DejaVuSans-35"/>
      </g>
     </g>
    </g>
    <g id="xtick_28">
     <g id="line2d_133">
      <path clip-path="url(#p3983d5d775)" d="M 827.430002 523.96 
L 827.430002 274.53 
" style="fill:none;stroke:#b0b0b0;stroke-linecap:square;stroke-width:0.8;"/>
     </g>
     <g id="line2d_134">
      <g>
       <use style="stroke:#000000;stroke-width:0.8;" x="827.430002" xlink:href="#m54b5ff9099" y="523.96"/>
      </g>
     </g>
     <g id="text_42">
      <!-- 6 -->
      <g transform="translate(824.248752 538.558437)scale(0.1 -0.1)">
       <use xlink:href="#DejaVuSans-36"/>
      </g>
     </g>
    </g>
    <g id="text_43">
     <!-- t, sec -->
     <g transform="translate(631.3825 559.835)scale(0.2 -0.2)">
      <use xlink:href="#DejaVuSans-74"/>
      <use x="39.208984" xlink:href="#DejaVuSans-2c"/>
      <use x="70.996094" xlink:href="#DejaVuSans-20"/>
      <use x="102.783203" xlink:href="#DejaVuSans-73"/>
      <use x="154.882812" xlink:href="#DejaVuSans-65"/>
      <use x="216.40625" xlink:href="#DejaVuSans-63"/>
     </g>
    </g>
   </g>
   <g id="matplotlib.axis_8">
    <g id="ytick_19">
     <g id="line2d_135">
      <path clip-path="url(#p3983d5d775)" d="M 463.84 505.003968 
L 853.2 505.003968 
" style="fill:none;stroke:#b0b0b0;stroke-linecap:square;stroke-width:0.8;"/>
     </g>
     <g id="line2d_136">
      <g>
       <use style="stroke:#000000;stroke-width:0.8;" x="463.84" xlink:href="#me4a5e97658" y="505.003968"/>
      </g>
     </g>
     <g id="text_44">
      <!-- −4 -->
      <g transform="translate(442.097812 508.803186)scale(0.1 -0.1)">
       <use xlink:href="#DejaVuSans-2212"/>
       <use x="83.789062" xlink:href="#DejaVuSans-34"/>
      </g>
     </g>
    </g>
    <g id="ytick_20">
     <g id="line2d_137">
      <path clip-path="url(#p3983d5d775)" d="M 463.84 449.951717 
L 853.2 449.951717 
" style="fill:none;stroke:#b0b0b0;stroke-linecap:square;stroke-width:0.8;"/>
     </g>
     <g id="line2d_138">
      <g>
       <use style="stroke:#000000;stroke-width:0.8;" x="463.84" xlink:href="#me4a5e97658" y="449.951717"/>
      </g>
     </g>
     <g id="text_45">
      <!-- −2 -->
      <g transform="translate(442.097812 453.750935)scale(0.1 -0.1)">
       <use xlink:href="#DejaVuSans-2212"/>
       <use x="83.789062" xlink:href="#DejaVuSans-32"/>
      </g>
     </g>
    </g>
    <g id="ytick_21">
     <g id="line2d_139">
      <path clip-path="url(#p3983d5d775)" d="M 463.84 394.899466 
L 853.2 394.899466 
" style="fill:none;stroke:#b0b0b0;stroke-linecap:square;stroke-width:0.8;"/>
     </g>
     <g id="line2d_140">
      <g>
       <use style="stroke:#000000;stroke-width:0.8;" x="463.84" xlink:href="#me4a5e97658" y="394.899466"/>
      </g>
     </g>
     <g id="text_46">
      <!-- 0 -->
      <g transform="translate(450.4775 398.698684)scale(0.1 -0.1)">
       <use xlink:href="#DejaVuSans-30"/>
      </g>
     </g>
    </g>
    <g id="ytick_22">
     <g id="line2d_141">
      <path clip-path="url(#p3983d5d775)" d="M 463.84 339.847214 
L 853.2 339.847214 
" style="fill:none;stroke:#b0b0b0;stroke-linecap:square;stroke-width:0.8;"/>
     </g>
     <g id="line2d_142">
      <g>
       <use style="stroke:#000000;stroke-width:0.8;" x="463.84" xlink:href="#me4a5e97658" y="339.847214"/>
      </g>
     </g>
     <g id="text_47">
      <!-- 2 -->
      <g transform="translate(450.4775 343.646433)scale(0.1 -0.1)">
       <use xlink:href="#DejaVuSans-32"/>
      </g>
     </g>
    </g>
    <g id="ytick_23">
     <g id="line2d_143">
      <path clip-path="url(#p3983d5d775)" d="M 463.84 284.794963 
L 853.2 284.794963 
" style="fill:none;stroke:#b0b0b0;stroke-linecap:square;stroke-width:0.8;"/>
     </g>
     <g id="line2d_144">
      <g>
       <use style="stroke:#000000;stroke-width:0.8;" x="463.84" xlink:href="#me4a5e97658" y="284.794963"/>
      </g>
     </g>
     <g id="text_48">
      <!-- 4 -->
      <g transform="translate(450.4775 288.594182)scale(0.1 -0.1)">
       <use xlink:href="#DejaVuSans-34"/>
      </g>
     </g>
    </g>
   </g>
   <g id="line2d_145">
    <path clip-path="url(#p3983d5d775)" d="M 481.538182 523.96 
L 481.538182 274.53 
" style="fill:none;stroke:#ffd700;stroke-linecap:square;stroke-width:2;"/>
   </g>
   <g id="line2d_146">
    <path clip-path="url(#p3983d5d775)" d="M 591.617829 523.96 
L 591.617829 274.53 
" style="fill:none;stroke:#ffd700;stroke-linecap:square;stroke-width:2;"/>
   </g>
   <g id="line2d_147">
    <path clip-path="url(#p3983d5d775)" d="M 692.042994 523.96 
L 692.042994 274.53 
" style="fill:none;stroke:#ffd700;stroke-linecap:square;stroke-width:2;"/>
   </g>
   <g id="line2d_148">
    <path clip-path="url(#p3983d5d775)" d="M 765.369406 523.96 
L 765.369406 274.53 
" style="fill:none;stroke:#ffd700;stroke-linecap:square;stroke-width:2;"/>
   </g>
   <g id="line2d_149">
    <path clip-path="url(#p3983d5d775)" d="M 835.501818 523.96 
L 835.501818 274.53 
" style="fill:none;stroke:#ffd700;stroke-linecap:square;stroke-width:2;"/>
   </g>
   <g id="line2d_150">
    <path clip-path="url(#p3983d5d775)" d="M 481.538182 395.350753 
L 483.519615 395.51702 
L 484.840571 395.428856 
L 486.161527 395.105952 
L 487.262323 394.619636 
L 488.36312 393.909203 
L 489.463916 392.955503 
L 490.784872 391.472239 
L 492.105828 389.611149 
L 493.426784 387.377963 
L 494.967899 384.330853 
L 496.729173 380.338053 
L 498.930766 374.760802 
L 503.113793 363.354337 
L 506.416182 354.656471 
L 508.837934 348.913697 
L 510.819368 344.744289 
L 512.800802 341.089964 
L 514.562076 338.274176 
L 516.32335 335.847984 
L 518.084625 333.783876 
L 519.845899 332.048472 
L 521.607173 330.606046 
L 523.588607 329.289439 
L 525.570041 328.251591 
L 527.551474 327.450622 
L 529.753067 326.795648 
L 532.174819 326.317114 
L 534.596572 326.05952 
L 537.018324 325.991309 
L 539.219917 326.107737 
L 541.641669 326.424659 
L 544.063421 326.968504 
L 546.265014 327.693618 
L 548.246448 328.569278 
L 550.227882 329.695098 
L 551.989156 330.941149 
L 553.75043 332.453448 
L 555.511705 334.267719 
L 557.272979 336.419381 
L 559.034253 338.940712 
L 560.795528 341.8571 
L 562.556802 345.182407 
L 564.538236 349.40768 
L 566.739829 354.656471 
L 569.38174 361.559692 
L 576.426838 380.338053 
L 578.408271 384.793488 
L 579.949386 387.775301 
L 581.490501 390.273453 
L 582.811457 392.008486 
L 584.132413 393.367149 
L 585.233209 394.221628 
L 586.334006 394.83979 
L 587.434802 395.243091 
L 588.755758 395.481468 
L 590.296873 395.492137 
L 593.224632 395.366385 
L 594.028033 395.65403 
L 594.831434 396.178749 
L 595.634835 396.958146 
L 596.639087 398.300477 
L 597.643339 400.046698 
L 598.848441 402.644643 
L 600.254393 406.288948 
L 601.861196 411.101568 
L 604.2714 419.13667 
L 609.292658 436.082017 
L 611.502012 442.625176 
L 613.309665 447.330908 
L 615.117318 451.415296 
L 616.72412 454.531393 
L 618.330923 457.190298 
L 619.937726 459.429861 
L 621.544528 461.293974 
L 623.151331 462.828531 
L 624.758133 464.078593 
L 626.565786 465.197455 
L 628.373439 466.064284 
L 630.381943 466.789398 
L 632.591296 467.360252 
L 635.202351 467.804416 
L 638.215106 468.090662 
L 641.629561 468.202698 
L 646.249119 468.034371 
L 649.261874 467.690098 
L 651.872928 467.176411 
L 654.082282 466.525921 
L 656.090785 465.706932 
L 657.898438 464.734384 
L 659.505241 463.640396 
L 661.112043 462.288788 
L 662.718846 460.636023 
L 664.325649 458.63646 
L 665.932451 456.244564 
L 667.539254 453.418166 
L 669.146057 450.122991 
L 670.752859 446.338496 
L 672.560512 441.497362 
L 674.569015 435.448693 
L 677.18007 426.780674 
L 682.201328 409.844822 
L 684.008981 404.653265 
L 685.414933 401.280111 
L 686.620035 398.951347 
L 687.624287 397.44591 
L 688.628539 396.349285 
L 689.43194 395.762091 
L 690.235341 395.417514 
L 691.038743 395.287833 
L 692.189647 395.370057 
L 693.509522 395.443917 
L 694.536092 395.287327 
L 695.416009 394.942295 
L 696.295926 394.36153 
L 697.175843 393.511191 
L 698.05576 392.362432 
L 699.08233 390.614197 
L 700.1089 388.401657 
L 701.282122 385.287199 
L 702.455345 381.549548 
L 703.77522 376.632276 
L 705.388401 369.703788 
L 707.294888 360.479306 
L 710.374597 344.284255 
L 713.894265 326.056557 
L 715.947404 316.518568 
L 717.707238 309.31011 
L 719.320419 303.597833 
L 720.786948 299.190846 
L 722.106823 295.876585 
L 723.280046 293.44914 
L 724.453268 291.505667 
L 725.479838 290.197495 
L 726.506408 289.256641 
L 727.386325 288.71993 
L 728.559547 288.441283 
L 728.999506 288.473418 
L 730.466034 288.950705 
L 731.492604 289.748835 
L 732.519174 290.900488 
L 733.545743 292.417241 
L 734.718966 294.602058 
L 735.892188 297.273161 
L 737.212064 300.862467 
L 738.678592 305.571862 
L 740.291773 311.603956 
L 742.051607 319.129764 
L 744.104747 328.966407 
L 747.037803 344.284255 
L 750.997429 364.853071 
L 752.903916 373.598885 
L 754.517097 379.991657 
L 755.836972 384.410639 
L 757.156848 388.046697 
L 758.33007 390.614197 
L 759.35664 392.362432 
L 760.38321 393.672923 
L 761.263127 394.476191 
L 762.143044 395.015186 
L 763.022961 395.324559 
L 764.049531 395.448435 
L 765.369406 395.350753 
L 766.210995 395.319633 
L 766.912319 395.511825 
L 767.613643 395.972889 
L 768.314967 396.741345 
L 769.016291 397.840205 
L 769.85788 399.610082 
L 770.839734 402.296691 
L 771.961853 406.151957 
L 773.224236 411.3918 
L 774.767149 418.86095 
L 776.871122 430.307525 
L 782.34145 460.638657 
L 784.305157 470.000066 
L 785.988335 477.011648 
L 787.531248 482.575004 
L 789.074161 487.322664 
L 790.47681 490.963159 
L 791.879458 494.001713 
L 793.141841 496.258498 
L 794.404225 498.095836 
L 795.666608 499.543289 
L 796.788727 500.523317 
L 797.910845 501.230065 
L 799.032964 501.678002 
L 800.295347 501.868825 
L 801.136936 501.799472 
L 802.259055 501.542351 
L 803.381173 500.996281 
L 804.503292 500.188575 
L 805.625411 499.102455 
L 806.747529 497.722219 
L 808.009913 495.794342 
L 809.272296 493.44004 
L 810.534679 490.626913 
L 811.937328 486.923888 
L 813.339976 482.575004 
L 814.882889 477.011648 
L 816.425802 470.621354 
L 818.249245 462.048071 
L 820.353217 450.984243 
L 824.280632 428.727552 
L 826.524869 416.725564 
L 828.067782 409.547595 
L 829.330166 404.612113 
L 830.452285 401.064333 
L 831.434138 398.66321 
L 832.275727 397.140374 
L 832.977051 396.2418 
L 833.678375 395.661417 
L 834.3797 395.36755 
L 835.081024 395.308709 
L 835.501818 395.350753 
L 835.501818 395.350753 
" style="fill:none;stroke:#1f77b4;stroke-linecap:square;stroke-width:1.5;"/>
   </g>
   <g id="line2d_151">
    <path clip-path="url(#p3983d5d775)" d="M 481.538182 385.598627 
L 483.299456 385.693593 
L 484.620412 385.529631 
L 485.721208 385.17173 
L 486.822005 384.573454 
L 487.922801 383.707106 
L 489.023598 382.554311 
L 490.124394 381.106776 
L 491.44535 378.984746 
L 492.986465 376.011594 
L 494.747739 372.053418 
L 496.949332 366.514279 
L 502.453315 352.361996 
L 504.434748 348.015387 
L 505.975863 345.112257 
L 507.516979 342.671749 
L 508.837934 340.956547 
L 510.15889 339.581305 
L 511.479846 338.527703 
L 512.800802 337.769618 
L 514.121757 337.275684 
L 515.442713 337.011573 
L 516.983828 336.946722 
L 518.745103 337.125932 
L 520.726536 337.558602 
L 523.588607 338.427493 
L 529.532908 340.280221 
L 532.174819 340.853679 
L 534.596572 341.164397 
L 537.018324 341.231892 
L 539.880395 341.021431 
L 542.302147 340.595176 
L 545.164218 339.852077 
L 549.567404 338.427493 
L 552.869793 337.446204 
L 554.851227 337.059829 
L 556.612501 336.941508 
L 558.153616 337.076255 
L 559.474572 337.413059 
L 560.795528 337.991333 
L 562.116483 338.844647 
L 563.437439 340.00289 
L 564.758395 341.489879 
L 566.079351 343.320739 
L 567.620466 345.895645 
L 569.161581 348.925172 
L 570.922855 352.882045 
L 573.344607 358.961395 
L 578.84859 373.091252 
L 580.609864 376.912258 
L 582.150979 379.737749 
L 583.471935 381.721251 
L 584.792891 383.28106 
L 585.893687 384.26033 
L 586.994484 384.963015 
L 588.09528 385.413178 
L 589.196077 385.64376 
L 590.517032 385.689685 
L 593.023781 385.66326 
L 593.827183 386.028222 
L 594.630584 386.702248 
L 595.433985 387.712985 
L 596.237386 389.072215 
L 597.241638 391.258602 
L 598.24589 393.961589 
L 599.450992 397.820093 
L 601.057794 403.820185 
L 603.267148 413.109274 
L 608.087556 433.661641 
L 609.895209 440.358348 
L 611.502012 445.567871 
L 613.108814 450.022434 
L 614.514767 453.300255 
L 615.920719 456.024893 
L 617.326671 458.23716 
L 618.732624 459.98773 
L 619.937726 461.162887 
L 621.343678 462.204712 
L 622.74963 462.94507 
L 624.155582 463.436644 
L 625.762385 463.755691 
L 627.570038 463.881468 
L 629.779392 463.809029 
L 633.394698 463.429024 
L 638.616806 462.894748 
L 642.031262 462.785688 
L 648.056772 463.167824 
L 655.287384 463.878129 
L 657.295887 463.821245 
L 658.90269 463.583327 
L 660.308642 463.183278 
L 661.714594 462.555764 
L 662.919696 461.798328 
L 664.124798 460.802098 
L 665.3299 459.531485 
L 666.535002 457.950645 
L 667.740104 456.024893 
L 668.945206 453.722547 
L 670.351159 450.525722 
L 671.757111 446.753055 
L 673.363913 441.729704 
L 675.171566 435.219612 
L 677.18007 427.098051 
L 684.008981 398.521458 
L 685.414933 393.961589 
L 686.620035 390.778846 
L 687.624287 388.699597 
L 688.628539 387.164462 
L 689.43194 386.324456 
L 690.235341 385.809577 
L 691.038743 385.582421 
L 692.042994 385.598627 
L 693.36287 385.638394 
L 694.242787 385.456359 
L 695.122704 385.034599 
L 696.00262 384.323884 
L 696.882537 383.283532 
L 697.762454 381.881313 
L 698.789024 379.757542 
L 699.815594 377.089749 
L 700.988816 373.374217 
L 702.308692 368.382831 
L 703.77522 361.941622 
L 705.681707 352.481501 
L 713.014348 314.816094 
L 714.627529 308.181651 
L 716.094057 302.990611 
L 717.560586 298.614104 
L 718.880461 295.346616 
L 720.200336 292.67005 
L 721.520212 290.528712 
L 722.693434 289.026044 
L 723.866657 287.857553 
L 725.03988 286.985907 
L 726.213102 286.377296 
L 727.532978 285.992384 
L 730.026076 286.004662 
L 730.75934 286.222683 
L 731.932562 286.728531 
L 733.105785 287.49773 
L 734.279007 288.550813 
L 735.45223 289.92349 
L 736.625453 291.655812 
L 737.798675 293.790067 
L 738.971898 296.367632 
L 740.291773 299.842678 
L 741.611649 303.963345 
L 743.078177 309.317413 
L 744.691358 316.120569 
L 746.597845 325.240332 
L 749.237595 339.144692 
L 752.903916 358.424666 
L 754.66375 366.542284 
L 756.130278 372.336979 
L 757.450154 376.663916 
L 758.623376 379.757542 
L 759.649946 381.881313 
L 760.676516 383.48129 
L 761.556433 384.464232 
L 762.43635 385.123738 
L 763.316266 385.501883 
L 764.196183 385.649425 
L 765.369406 385.598627 
L 766.210995 385.613937 
L 766.772054 385.830391 
L 767.333114 386.269131 
L 767.894173 386.960674 
L 768.595497 388.211255 
L 769.296821 389.912101 
L 770.13841 392.558088 
L 771.120264 396.463445 
L 772.242382 401.93457 
L 773.504766 409.207021 
L 775.187944 420.302966 
L 778.27377 442.572549 
L 780.938801 461.148535 
L 782.762244 472.441 
L 784.445422 481.50584 
L 785.988335 488.590542 
L 787.390983 494.029845 
L 788.793632 498.572616 
L 790.056015 501.960056 
L 791.318398 504.751709 
L 792.580782 507.015214 
L 793.843165 508.815387 
L 795.105549 510.211056 
L 796.367932 511.252898 
L 797.630316 511.982631 
L 798.892699 512.436527 
L 800.155082 512.601762 
L 800.856407 512.583641 
L 802.39932 512.310913 
L 803.661703 511.771319 
L 804.783822 511.049665 
L 805.90594 510.074304 
L 807.028059 508.815387 
L 808.150177 507.236976 
L 809.272296 505.298001 
L 810.534679 502.62952 
L 811.797063 499.380323 
L 813.059446 495.483526 
L 814.32183 490.878125 
L 815.724478 484.871868 
L 817.127126 477.896427 
L 818.670039 469.120116 
L 820.493482 457.406205 
L 823.018249 439.510581 
L 826.665134 413.668682 
L 828.208047 404.238013 
L 829.470431 397.734529 
L 830.592549 393.062833 
L 831.574403 389.912101 
L 832.415992 387.925634 
L 833.117316 386.762816 
L 833.81864 386.019799 
L 834.3797 385.696772 
L 835.081024 385.571036 
L 835.501818 385.598627 
L 835.501818 385.598627 
" style="fill:none;stroke:#ff7f0e;stroke-linecap:square;stroke-width:1.5;"/>
   </g>
   <g id="patch_21">
    <path d="M 463.84 523.96 
L 463.84 274.53 
" style="fill:none;stroke:#000000;stroke-linecap:square;stroke-linejoin:miter;stroke-width:0.8;"/>
   </g>
   <g id="patch_22">
    <path d="M 853.2 523.96 
L 853.2 274.53 
" style="fill:none;stroke:#000000;stroke-linecap:square;stroke-linejoin:miter;stroke-width:0.8;"/>
   </g>
   <g id="patch_23">
    <path d="M 463.84 523.96 
L 853.2 523.96 
" style="fill:none;stroke:#000000;stroke-linecap:square;stroke-linejoin:miter;stroke-width:0.8;"/>
   </g>
   <g id="patch_24">
    <path d="M 463.84 274.53 
L 853.2 274.53 
" style="fill:none;stroke:#000000;stroke-linecap:square;stroke-linejoin:miter;stroke-width:0.8;"/>
   </g>
   <g id="legend_4">
    <g id="patch_25">
     <path d="M 636.97 518.96 
L 680.07 518.96 
Q 682.07 518.96 682.07 516.96 
L 682.07 488.60375 
Q 682.07 486.60375 680.07 486.60375 
L 636.97 486.60375 
Q 634.97 486.60375 634.97 488.60375 
L 634.97 516.96 
Q 634.97 518.96 636.97 518.96 
z
" style="fill:#ffffff;opacity:0.8;stroke:#cccccc;stroke-linejoin:miter;"/>
    </g>
    <g id="line2d_152">
     <path d="M 638.97 494.702187 
L 658.97 494.702187 
" style="fill:none;stroke:#1f77b4;stroke-linecap:square;stroke-width:1.5;"/>
    </g>
    <g id="line2d_153"/>
    <g id="text_49">
     <!-- $u_1$ -->
     <g transform="translate(666.97 498.202187)scale(0.1 -0.1)">
      <defs>
       <path d="M 428 1388 
L 838 3500 
L 1416 3500 
L 1006 1409 
Q 975 1256 961 1147 
Q 947 1038 947 966 
Q 947 700 1109 554 
Q 1272 409 1569 409 
Q 2031 409 2368 721 
Q 2706 1034 2809 1563 
L 3194 3500 
L 3769 3500 
L 3091 0 
L 2516 0 
L 2631 550 
Q 2388 244 2052 76 
Q 1716 -91 1338 -91 
Q 878 -91 622 161 
Q 366 413 366 863 
Q 366 956 381 1097 
Q 397 1238 428 1388 
z
" id="DejaVuSans-Oblique-75" transform="scale(0.015625)"/>
      </defs>
      <use transform="translate(0 0.3125)" xlink:href="#DejaVuSans-Oblique-75"/>
      <use transform="translate(63.378906 -16.09375)scale(0.7)" xlink:href="#DejaVuSans-31"/>
     </g>
    </g>
    <g id="line2d_154">
     <path d="M 638.97 509.380312 
L 658.97 509.380312 
" style="fill:none;stroke:#ff7f0e;stroke-linecap:square;stroke-width:1.5;"/>
    </g>
    <g id="line2d_155"/>
    <g id="text_50">
     <!-- $u_2$ -->
     <g transform="translate(666.97 512.880312)scale(0.1 -0.1)">
      <use transform="translate(0 0.3125)" xlink:href="#DejaVuSans-Oblique-75"/>
      <use transform="translate(63.378906 -16.09375)scale(0.7)" xlink:href="#DejaVuSans-32"/>
     </g>
    </g>
   </g>
  </g>
 </g>
 <defs>
  <clipPath id="p1961b7f5a7">
   <rect height="249.43" width="389.36" x="42.01" y="10.8"/>
  </clipPath>
  <clipPath id="pfd7dab83f1">
   <rect height="249.43" width="389.36" x="463.84" y="10.8"/>
  </clipPath>
  <clipPath id="p7c3cd506c9">
   <rect height="249.43" width="389.36" x="42.01" y="274.53"/>
  </clipPath>
  <clipPath id="p3983d5d775">
   <rect height="249.43" width="389.36" x="463.84" y="274.53"/>
  </clipPath>
 </defs>
</svg>
