<?xml version="1.0" encoding="utf-8" standalone="no"?>
<!DOCTYPE svg PUBLIC "-//W3C//DTD SVG 1.1//EN"
  "http://www.w3.org/Graphics/SVG/1.1/DTD/svg11.dtd">
<svg xmlns:xlink="http://www.w3.org/1999/xlink" width="288pt" height="288pt" viewBox="0 0 288 288" xmlns="http://www.w3.org/2000/svg" version="1.1">
 <metadata>
  <rdf:RDF xmlns:dc="http://purl.org/dc/elements/1.1/" xmlns:cc="http://creativecommons.org/ns#" xmlns:rdf="http://www.w3.org/1999/02/22-rdf-syntax-ns#">
   <cc:Work>
    <dc:type rdf:resource="http://purl.org/dc/dcmitype/StillImage"/>
    <dc:date>2023-11-24T12:59:51.215590</dc:date>
    <dc:format>image/svg+xml</dc:format>
    <dc:creator>
     <cc:Agent>
      <dc:title>Matplotlib v3.8.2, https://matplotlib.org/</dc:title>
     </cc:Agent>
    </dc:creator>
   </cc:Work>
  </rdf:RDF>
 </metadata>
 <defs>
  <style type="text/css">*{stroke-linejoin: round; stroke-linecap: butt}</style>
 </defs>
 <g id="figure_1">
  <g id="patch_1">
   <path d="M 0 288 
L 288 288 
L 288 0 
L 0 0 
z
" style="fill: #ffffff"/>
  </g>
  <g id="axes_1">
   <g id="patch_2">
    <path d="M 43.2 259.2 
L 285.12 259.2 
L 285.12 2.88 
L 43.2 2.88 
z
" style="fill: #ffffff"/>
   </g>
   <g id="matplotlib.axis_1">
    <g id="xtick_1">
     <g id="line2d_1">
      <path d="M 54.196364 259.2 
L 54.196364 2.88 
" clip-path="url(#p7853855417)" style="fill: none; stroke-dasharray: 2.96,1.28; stroke-dashoffset: 0; stroke: #b0b0b0; stroke-width: 0.8"/>
     </g>
     <g id="line2d_2">
      <defs>
       <path id="m9bbe4923e9" d="M 0 0 
L 0 -5 
" style="stroke: #000000"/>
      </defs>
      <g>
       <use xlink:href="#m9bbe4923e9" x="54.196364" y="259.2" style="stroke: #000000"/>
      </g>
     </g>
     <g id="line2d_3">
      <defs>
       <path id="me6c1bef9a9" d="M 0 0 
L 0 5 
" style="stroke: #000000"/>
      </defs>
      <g>
       <use xlink:href="#me6c1bef9a9" x="54.196364" y="2.88" style="stroke: #000000"/>
      </g>
     </g>
     <g id="text_1">
      <!-- -1 -->
      <g transform="translate(48.505956 272.385876) scale(0.14 -0.14)">
       <defs>
        <path id="CMR17-2d" d="M 1632 1216 
L 1632 1496 
L 26 1496 
L 26 1216 
L 1632 1216 
z
" transform="scale(0.015625)"/>
        <path id="CMR17-31" d="M 1702 4058 
C 1702 4192 1696 4192 1606 4192 
C 1357 3916 979 3827 621 3827 
C 602 3827 570 3827 563 3808 
C 557 3795 557 3782 557 3648 
C 755 3648 1088 3686 1344 3839 
L 1344 461 
C 1344 236 1331 160 781 160 
L 589 160 
L 589 0 
C 896 0 1216 0 1523 0 
C 1830 0 2150 0 2458 0 
L 2458 160 
L 2266 160 
C 1715 160 1702 230 1702 458 
L 1702 4058 
z
" transform="scale(0.015625)"/>
       </defs>
       <use xlink:href="#CMR17-2d" transform="scale(0.996264)"/>
       <use xlink:href="#CMR17-31" transform="translate(30.075966 0) scale(0.996264)"/>
      </g>
     </g>
    </g>
    <g id="xtick_2">
     <g id="line2d_4">
      <path d="M 109.178182 259.2 
L 109.178182 2.88 
" clip-path="url(#p7853855417)" style="fill: none; stroke-dasharray: 2.96,1.28; stroke-dashoffset: 0; stroke: #b0b0b0; stroke-width: 0.8"/>
     </g>
     <g id="line2d_5">
      <g>
       <use xlink:href="#m9bbe4923e9" x="109.178182" y="259.2" style="stroke: #000000"/>
      </g>
     </g>
     <g id="line2d_6">
      <g>
       <use xlink:href="#me6c1bef9a9" x="109.178182" y="2.88" style="stroke: #000000"/>
      </g>
     </g>
     <g id="text_2">
      <!-- -0.5 -->
      <g transform="translate(98.176728 272.385876) scale(0.14 -0.14)">
       <defs>
        <path id="CMR17-30" d="M 2688 2025 
C 2688 2416 2682 3080 2413 3591 
C 2176 4039 1798 4198 1466 4198 
C 1158 4198 768 4058 525 3597 
C 269 3118 243 2524 243 2025 
C 243 1661 250 1106 448 619 
C 723 -39 1216 -128 1466 -128 
C 1760 -128 2208 -7 2470 600 
C 2662 1042 2688 1559 2688 2025 
z
M 1466 -26 
C 1056 -26 813 325 723 812 
C 653 1188 653 1738 653 2096 
C 653 2588 653 2997 736 3387 
C 858 3929 1216 4096 1466 4096 
C 1728 4096 2067 3923 2189 3400 
C 2272 3036 2278 2607 2278 2096 
C 2278 1680 2278 1169 2202 792 
C 2067 95 1690 -26 1466 -26 
z
" transform="scale(0.015625)"/>
        <path id="CMR17-2e" d="M 1062 261 
C 1062 420 934 522 800 522 
C 672 522 538 420 538 261 
C 538 102 666 0 800 0 
C 928 0 1062 102 1062 261 
z
" transform="scale(0.015625)"/>
        <path id="CMR17-35" d="M 730 3692 
C 794 3666 1056 3584 1325 3584 
C 1920 3584 2246 3911 2432 4100 
C 2432 4157 2432 4192 2394 4192 
C 2387 4192 2374 4192 2323 4163 
C 2099 4058 1837 3973 1517 3973 
C 1325 3973 1037 3999 723 4139 
C 653 4171 640 4171 634 4171 
C 602 4171 595 4164 595 4037 
L 595 2203 
C 595 2089 595 2057 659 2057 
C 691 2057 704 2070 736 2114 
C 941 2401 1222 2522 1542 2522 
C 1766 2522 2246 2382 2246 1289 
C 2246 1085 2246 715 2054 421 
C 1894 159 1645 25 1370 25 
C 947 25 518 320 403 814 
C 429 807 480 795 506 795 
C 589 795 749 840 749 1038 
C 749 1210 627 1280 506 1280 
C 358 1280 262 1190 262 1011 
C 262 454 704 -128 1382 -128 
C 2042 -128 2669 440 2669 1264 
C 2669 2030 2170 2624 1549 2624 
C 1222 2624 947 2503 730 2274 
L 730 3692 
z
" transform="scale(0.015625)"/>
       </defs>
       <use xlink:href="#CMR17-2d" transform="scale(0.996264)"/>
       <use xlink:href="#CMR17-30" transform="translate(30.075966 0) scale(0.996264)"/>
       <use xlink:href="#CMR17-2e" transform="translate(75.766443 0) scale(0.996264)"/>
       <use xlink:href="#CMR17-35" transform="translate(100.637502 0) scale(0.996264)"/>
      </g>
     </g>
    </g>
    <g id="xtick_3">
     <g id="line2d_7">
      <path d="M 164.16 259.2 
L 164.16 2.88 
" clip-path="url(#p7853855417)" style="fill: none; stroke-dasharray: 2.96,1.28; stroke-dashoffset: 0; stroke: #b0b0b0; stroke-width: 0.8"/>
     </g>
     <g id="line2d_8">
      <g>
       <use xlink:href="#m9bbe4923e9" x="164.16" y="259.2" style="stroke: #000000"/>
      </g>
     </g>
     <g id="line2d_9">
      <g>
       <use xlink:href="#me6c1bef9a9" x="164.16" y="2.88" style="stroke: #000000"/>
      </g>
     </g>
    </g>
    <g id="xtick_4">
     <g id="line2d_10">
      <path d="M 219.141818 259.2 
L 219.141818 2.88 
" clip-path="url(#p7853855417)" style="fill: none; stroke-dasharray: 2.96,1.28; stroke-dashoffset: 0; stroke: #b0b0b0; stroke-width: 0.8"/>
     </g>
     <g id="line2d_11">
      <g>
       <use xlink:href="#m9bbe4923e9" x="219.141818" y="259.2" style="stroke: #000000"/>
      </g>
     </g>
     <g id="line2d_12">
      <g>
       <use xlink:href="#me6c1bef9a9" x="219.141818" y="2.88" style="stroke: #000000"/>
      </g>
     </g>
     <g id="text_3">
      <!-- 0.5 -->
      <g transform="translate(210.416527 272.385876) scale(0.14 -0.14)">
       <use xlink:href="#CMR17-30" transform="scale(0.996264)"/>
       <use xlink:href="#CMR17-2e" transform="translate(45.690477 0) scale(0.996264)"/>
       <use xlink:href="#CMR17-35" transform="translate(70.561536 0) scale(0.996264)"/>
      </g>
     </g>
    </g>
    <g id="xtick_5">
     <g id="line2d_13">
      <path d="M 274.123636 259.2 
L 274.123636 2.88 
" clip-path="url(#p7853855417)" style="fill: none; stroke-dasharray: 2.96,1.28; stroke-dashoffset: 0; stroke: #b0b0b0; stroke-width: 0.8"/>
     </g>
     <g id="line2d_14">
      <g>
       <use xlink:href="#m9bbe4923e9" x="274.123636" y="259.2" style="stroke: #000000"/>
      </g>
     </g>
     <g id="line2d_15">
      <g>
       <use xlink:href="#me6c1bef9a9" x="274.123636" y="2.88" style="stroke: #000000"/>
      </g>
     </g>
     <g id="text_4">
      <!-- 1 -->
      <g transform="translate(270.709392 272.385876) scale(0.14 -0.14)">
       <use xlink:href="#CMR17-31" transform="scale(0.996264)"/>
      </g>
     </g>
    </g>
    <g id="text_5">
     <!-- $\theta$ -->
     <g transform="translate(158.704825 281.70231) scale(0.24 -0.24)">
      <defs>
       <path id="CMMI12-12" d="M 2835 3200 
C 2835 3850 2630 4480 2106 4480 
C 1210 4480 256 2615 256 1216 
C 256 923 320 -64 992 -64 
C 1862 -64 2835 1756 2835 3200 
z
M 896 2304 
C 992 2679 1126 3214 1382 3665 
C 1594 4047 1818 4352 2099 4352 
C 2310 4352 2451 4174 2451 3564 
C 2451 3334 2432 3017 2246 2304 
L 896 2304 
z
M 2202 2113 
C 2042 1490 1907 1088 1677 687 
C 1491 363 1267 64 998 64 
C 800 64 640 217 640 846 
C 640 1260 742 1693 845 2113 
L 2202 2113 
z
" transform="scale(0.015625)"/>
      </defs>
      <use xlink:href="#CMMI12-12" transform="scale(0.996264)"/>
     </g>
    </g>
   </g>
   <g id="matplotlib.axis_2">
    <g id="ytick_1">
     <g id="line2d_16">
      <path d="M 43.2 247.549091 
L 285.12 247.549091 
" clip-path="url(#p7853855417)" style="fill: none; stroke-dasharray: 2.96,1.28; stroke-dashoffset: 0; stroke: #b0b0b0; stroke-width: 0.8"/>
     </g>
     <g id="line2d_17">
      <defs>
       <path id="maceaabd66f" d="M 0 0 
L 5 0 
" style="stroke: #000000"/>
      </defs>
      <g>
       <use xlink:href="#maceaabd66f" x="43.2" y="247.549091" style="stroke: #000000"/>
      </g>
     </g>
     <g id="line2d_18">
      <defs>
       <path id="m6df9543d23" d="M 0 0 
L -5 0 
" style="stroke: #000000"/>
      </defs>
      <g>
       <use xlink:href="#m6df9543d23" x="285.12" y="247.549091" style="stroke: #000000"/>
      </g>
     </g>
     <g id="text_6">
      <!-- 0 -->
      <g transform="translate(32.871511 252.392029) scale(0.14 -0.14)">
       <use xlink:href="#CMR17-30" transform="scale(0.996264)"/>
      </g>
     </g>
    </g>
    <g id="ytick_2">
     <g id="line2d_19">
      <path d="M 43.2 189.294545 
L 285.12 189.294545 
" clip-path="url(#p7853855417)" style="fill: none; stroke-dasharray: 2.96,1.28; stroke-dashoffset: 0; stroke: #b0b0b0; stroke-width: 0.8"/>
     </g>
     <g id="line2d_20">
      <g>
       <use xlink:href="#maceaabd66f" x="43.2" y="189.294545" style="stroke: #000000"/>
      </g>
     </g>
     <g id="line2d_21">
      <g>
       <use xlink:href="#m6df9543d23" x="285.12" y="189.294545" style="stroke: #000000"/>
      </g>
     </g>
     <g id="text_7">
      <!-- 0.5 -->
      <g transform="translate(22.249418 194.137484) scale(0.14 -0.14)">
       <use xlink:href="#CMR17-30" transform="scale(0.996264)"/>
       <use xlink:href="#CMR17-2e" transform="translate(45.690477 0) scale(0.996264)"/>
       <use xlink:href="#CMR17-35" transform="translate(70.561536 0) scale(0.996264)"/>
      </g>
     </g>
    </g>
    <g id="ytick_3">
     <g id="line2d_22">
      <path d="M 43.2 131.04 
L 285.12 131.04 
" clip-path="url(#p7853855417)" style="fill: none; stroke-dasharray: 2.96,1.28; stroke-dashoffset: 0; stroke: #b0b0b0; stroke-width: 0.8"/>
     </g>
     <g id="line2d_23">
      <g>
       <use xlink:href="#maceaabd66f" x="43.2" y="131.04" style="stroke: #000000"/>
      </g>
     </g>
     <g id="line2d_24">
      <g>
       <use xlink:href="#m6df9543d23" x="285.12" y="131.04" style="stroke: #000000"/>
      </g>
     </g>
    </g>
    <g id="ytick_4">
     <g id="line2d_25">
      <path d="M 43.2 72.785455 
L 285.12 72.785455 
" clip-path="url(#p7853855417)" style="fill: none; stroke-dasharray: 2.96,1.28; stroke-dashoffset: 0; stroke: #b0b0b0; stroke-width: 0.8"/>
     </g>
     <g id="line2d_26">
      <g>
       <use xlink:href="#maceaabd66f" x="43.2" y="72.785455" style="stroke: #000000"/>
      </g>
     </g>
     <g id="line2d_27">
      <g>
       <use xlink:href="#m6df9543d23" x="285.12" y="72.785455" style="stroke: #000000"/>
      </g>
     </g>
     <g id="text_8">
      <!-- 1.5 -->
      <g transform="translate(22.249418 77.628393) scale(0.14 -0.14)">
       <use xlink:href="#CMR17-31" transform="scale(0.996264)"/>
       <use xlink:href="#CMR17-2e" transform="translate(45.690477 0) scale(0.996264)"/>
       <use xlink:href="#CMR17-35" transform="translate(70.561536 0) scale(0.996264)"/>
      </g>
     </g>
    </g>
    <g id="ytick_5">
     <g id="line2d_28">
      <path d="M 43.2 14.530909 
L 285.12 14.530909 
" clip-path="url(#p7853855417)" style="fill: none; stroke-dasharray: 2.96,1.28; stroke-dashoffset: 0; stroke: #b0b0b0; stroke-width: 0.8"/>
     </g>
     <g id="line2d_29">
      <g>
       <use xlink:href="#maceaabd66f" x="43.2" y="14.530909" style="stroke: #000000"/>
      </g>
     </g>
     <g id="line2d_30">
      <g>
       <use xlink:href="#m6df9543d23" x="285.12" y="14.530909" style="stroke: #000000"/>
      </g>
     </g>
     <g id="text_9">
      <!-- 2 -->
      <g transform="translate(32.871511 19.373847) scale(0.14 -0.14)">
       <defs>
        <path id="CMR17-32" d="M 2669 989 
L 2554 989 
C 2490 536 2438 459 2413 420 
C 2381 369 1920 369 1830 369 
L 602 369 
C 832 619 1280 1072 1824 1597 
C 2214 1967 2669 2402 2669 3035 
C 2669 3790 2067 4224 1395 4224 
C 691 4224 262 3604 262 3030 
C 262 2780 448 2748 525 2748 
C 589 2748 781 2787 781 3010 
C 781 3207 614 3264 525 3264 
C 486 3264 448 3258 422 3245 
C 544 3790 915 4058 1306 4058 
C 1862 4058 2227 3617 2227 3035 
C 2227 2479 1901 2000 1536 1584 
L 262 146 
L 262 0 
L 2515 0 
L 2669 989 
z
" transform="scale(0.015625)"/>
       </defs>
       <use xlink:href="#CMR17-32" transform="scale(0.996264)"/>
      </g>
     </g>
    </g>
    <g id="text_10">
     <!-- $\dot \theta$ -->
     <g transform="translate(27.598661 136.495175) rotate(-90) scale(0.24 -0.24)">
      <defs>
       <path id="CMR17-5f" d="M 1056 3909 
C 1056 4062 934 4170 800 4170 
C 646 4170 538 4049 538 3909 
C 538 3756 659 3648 794 3648 
C 947 3648 1056 3769 1056 3909 
z
" transform="scale(0.015625)"/>
      </defs>
      <use xlink:href="#CMR17-5f" transform="translate(19.778385 26.296621) scale(0.996264)"/>
      <use xlink:href="#CMMI12-12" transform="scale(0.996264)"/>
     </g>
    </g>
   </g>
   <g id="line2d_31">
    <path d="M 61.067581 289 
L 59.418562 283.629914 
L 57.896172 277.875411 
L 56.636937 272.150975 
L 55.737529 267.082912 
L 55.044373 262.029722 
L 54.556946 256.987462 
L 54.274878 251.952317 
L 54.197966 246.920158 
L 54.326157 241.887548 
L 54.659538 236.850969 
L 55.198358 231.806339 
L 55.943021 226.749805 
L 56.894093 221.677392 
L 58.052306 216.584981 
L 59.604023 210.826747 
L 61.420607 205.031267 
L 63.503922 199.191589 
L 65.856165 193.300178 
L 68.479895 187.348771 
L 71.37807 181.328211 
L 74.554091 175.228226 
L 78.01186 169.037151 
L 82.189741 162.034956 
L 86.728115 154.881996 
L 91.635311 147.552032 
L 97.47098 139.245665 
L 104.378265 129.829129 
L 113.183866 118.243073 
L 138.292687 85.502784 
L 144.216599 77.247659 
L 148.636746 70.715507 
L 152.298544 64.918833 
L 155.126339 60.074136 
L 158.032906 54.557152 
L 160.020784 50.257762 
L 161.032122 47.793245 
L 162.05684 44.97735 
L 163.097352 41.511264 
L 164.16 34.833567 
L 165.222648 41.511264 
L 166.26316 44.97735 
L 168.299216 50.257762 
L 170.287094 54.557152 
L 173.193661 60.074136 
L 176.021456 64.918833 
L 179.683254 70.715507 
L 184.103401 77.247659 
L 189.198835 84.373466 
L 195.670344 93.042855 
L 206.194497 106.703631 
L 221.509765 126.592384 
L 229.175967 136.929359 
L 235.139188 145.313876 
L 240.640242 153.4311 
L 245.251671 160.61719 
L 249.501046 167.647677 
L 253.395703 174.545056 
L 256.602826 180.654558 
L 259.531696 186.683412 
L 262.185767 192.642032 
L 264.568042 198.539687 
L 266.681123 204.384729 
L 268.527245 210.184767 
L 270.10831 215.946811 
L 271.425907 221.677392 
L 272.376979 226.749805 
L 273.121642 231.806339 
L 273.660462 236.850969 
L 273.993843 241.887548 
L 274.122034 246.920158 
L 274.045122 251.952317 
L 273.763054 256.987462 
L 273.275627 262.029722 
L 272.582471 267.082912 
L 271.683063 272.150975 
L 270.576713 277.237992 
L 269.083633 282.988843 
L 267.326059 288.775464 
L 267.252419 289 
L 267.252419 289 
" clip-path="url(#p7853855417)" style="fill: none; stroke: #1f77b4; stroke-width: 1.5; stroke-linecap: square"/>
   </g>
   <g id="line2d_32">
    <path d="M 61.201433 289 
L 59.553001 283.825292 
L 58.085171 278.479218 
L 56.851163 273.119501 
L 55.851519 267.74861 
L 55.086674 262.368957 
L 54.556959 256.982912 
L 54.262601 251.592798 
L 54.203724 246.201111 
L 54.38035 240.809953 
L 54.792408 235.421595 
L 55.439724 230.038452 
L 56.322016 224.662881 
L 57.438903 219.297273 
L 58.789896 213.944065 
L 60.374399 208.605758 
L 62.191706 203.284931 
L 64.240994 197.984254 
L 66.521324 192.706511 
L 69.03163 187.454618 
L 71.770717 182.231646 
L 74.737251 177.040854 
L 77.929752 171.88572 
L 81.34658 166.769983 
L 84.985929 161.697689 
L 88.845806 156.673263 
L 92.924015 151.701575 
L 97.218136 146.788051 
L 101.725499 141.938799 
L 106.443146 137.160789 
L 111.367795 132.46209 
L 116.495779 127.852223 
L 121.822976 123.342656 
L 127.344707 118.947589 
L 133.05559 114.685221 
L 138.949325 110.579987 
L 144.250423 107.143948 
L 149.679498 103.89045 
L 154.428847 101.291723 
L 158.449113 99.313999 
L 161.70213 97.924604 
L 163.339278 97.347482 
L 164.16 97.136501 
L 165.800087 97.621047 
L 169.060521 98.946471 
L 173.091467 100.880215 
L 177.854909 103.443592 
L 183.301667 106.666938 
L 188.621461 110.079463 
L 194.537551 114.162882 
L 200.271658 118.407107 
L 205.817343 122.786682 
L 211.169126 127.282781 
L 216.322247 131.880785 
L 221.272522 136.568934 
L 226.016232 141.337498 
L 230.550047 146.178246 
L 234.870975 151.084085 
L 238.97631 156.048812 
L 242.863603 161.066923 
L 246.530631 166.133483 
L 249.975377 171.244019 
L 253.196012 176.394439 
L 256.190876 181.580968 
L 258.95847 186.8001 
L 261.497441 192.04855 
L 263.806579 197.323224 
L 265.884801 202.621188 
L 267.731153 207.939645 
L 269.344798 213.275909 
L 270.725014 218.627393 
L 271.871193 223.991586 
L 272.782833 229.366043 
L 273.459538 234.748368 
L 273.901016 240.136202 
L 274.107077 245.527157 
L 274.077638 250.918884 
L 273.812711 256.309323 
L 273.312405 261.696003 
L 272.576935 267.076584 
L 271.606619 272.448701 
L 270.401879 277.809948 
L 268.963244 283.157865 
L 267.291351 288.489924 
L 267.118567 289 
L 267.118567 289 
" clip-path="url(#p7853855417)" style="fill: none; stroke: #ff7f0e; stroke-width: 1.5; stroke-linecap: square"/>
   </g>
   <g id="line2d_33">
    <path d="M 61.391297 289 
L 59.79381 284.247447 
L 58.371826 279.350015 
L 57.154452 274.391075 
L 56.144042 269.38022 
L 55.34255 264.327139 
L 54.751526 259.241607 
L 54.372114 254.13348 
L 54.205046 249.013057 
L 54.250618 243.890051 
L 54.508752 238.773385 
L 54.978968 233.673717 
L 55.660356 228.600892 
L 56.551597 223.564715 
L 57.650969 218.574928 
L 58.956345 213.64118 
L 60.465199 208.773016 
L 62.174614 203.97985 
L 64.081283 199.270953 
L 66.181519 194.655433 
L 68.471259 190.142217 
L 70.946074 185.740034 
L 73.601179 181.457398 
L 76.431438 177.302593 
L 79.431376 173.283655 
L 82.595191 169.408357 
L 85.916764 165.684194 
L 89.389671 162.11837 
L 93.007194 158.717781 
L 96.762337 155.489004 
L 100.647837 152.438285 
L 104.656179 149.571523 
L 108.779609 146.894264 
L 113.010153 144.411686 
L 117.339627 142.128591 
L 121.75966 140.049394 
L 126.2617 138.178116 
L 130.837041 136.518378 
L 135.476834 135.073388 
L 140.172104 133.845943 
L 144.91377 132.838416 
L 149.692661 132.052756 
L 154.499534 131.490482 
L 159.325091 131.152682 
L 164.16 131.04 
L 168.994909 131.152682 
L 173.820466 131.490482 
L 178.627339 132.052756 
L 183.40623 132.838416 
L 188.147896 133.845943 
L 192.843166 135.073388 
L 197.482959 136.518378 
L 202.0583 138.178116 
L 206.56034 140.049394 
L 210.980373 142.128591 
L 215.309847 144.411686 
L 219.540391 146.894264 
L 223.663821 149.571523 
L 227.672163 152.438285 
L 231.557663 155.489004 
L 235.312806 158.717781 
L 238.930329 162.11837 
L 242.403236 165.684194 
L 245.724809 169.408357 
L 248.888624 173.283655 
L 251.888562 177.302593 
L 254.718821 181.457398 
L 257.373926 185.740034 
L 259.848741 190.142217 
L 262.138481 194.655433 
L 264.238717 199.270953 
L 266.145386 203.97985 
L 267.854801 208.773016 
L 269.363655 213.64118 
L 270.669031 218.574928 
L 271.768403 223.564715 
L 272.659644 228.600892 
L 273.341032 233.673717 
L 273.811248 238.773385 
L 274.069382 243.890051 
L 274.114954 249.013057 
L 273.947886 254.13348 
L 273.568474 259.241607 
L 272.97745 264.327139 
L 272.175958 269.38022 
L 271.165548 274.391075 
L 269.948174 279.350015 
L 268.52619 284.247447 
L 266.928703 289 
L 266.928703 289 
" clip-path="url(#p7853855417)" style="fill: none; stroke: #2ca02c; stroke-width: 1.5; stroke-linecap: square"/>
   </g>
   <g id="line2d_34">
    <path d="M 61.818041 289 
L 60.343416 285.107078 
L 58.901163 280.691398 
L 57.642112 276.12585 
L 56.572013 271.4286 
L 55.695836 266.619525 
L 55.017711 261.71998 
L 54.540872 256.752524 
L 54.267613 251.740455 
L 54.199215 246.710039 
L 54.335976 241.683485 
L 54.677292 236.683719 
L 55.221528 231.736339 
L 55.966075 226.864497 
L 56.907394 222.090392 
L 58.04107 217.434914 
L 59.361863 212.917394 
L 60.863783 208.555383 
L 62.540164 204.364475 
L 64.383744 200.35817 
L 66.386756 196.547776 
L 68.541017 192.94236 
L 70.838022 189.548736 
L 73.269032 186.371492 
L 75.825164 183.413051 
L 78.497482 180.673773 
L 81.277073 178.152067 
L 84.155127 175.844541 
L 87.123006 173.746163 
L 90.172309 171.850429 
L 93.294925 170.149551 
L 97.020292 168.399551 
L 100.823215 166.886952 
L 104.692795 165.594763 
L 108.618969 164.505052 
L 113.16357 163.48382 
L 117.757807 162.67479 
L 122.972293 161.983497 
L 128.808078 161.441714 
L 135.261765 161.062523 
L 143.505537 160.813907 
L 155.305858 160.713342 
L 181.865819 160.768957 
L 191.293853 160.990537 
L 198.340745 161.357634 
L 204.765872 161.91938 
L 209.984977 162.587185 
L 215.15643 163.48382 
L 219.701031 164.505052 
L 223.627205 165.594763 
L 227.496785 166.886952 
L 231.299708 168.399551 
L 235.025075 170.149551 
L 238.147691 171.850429 
L 241.196994 173.746163 
L 244.164873 175.844541 
L 247.042927 178.152067 
L 249.822518 180.673773 
L 252.494836 183.413051 
L 255.050968 186.371492 
L 257.481978 189.548736 
L 259.778983 192.94236 
L 261.933244 196.547776 
L 263.936256 200.35817 
L 265.779836 204.364475 
L 267.456217 208.555383 
L 268.958137 212.917394 
L 270.27893 217.434914 
L 271.412606 222.090392 
L 272.353925 226.864497 
L 273.098472 231.736339 
L 273.642708 236.683719 
L 273.984024 241.683485 
L 274.120785 246.710039 
L 274.052387 251.740455 
L 273.779128 256.752524 
L 273.302289 261.71998 
L 272.624164 266.619525 
L 271.747987 271.4286 
L 270.677888 276.12585 
L 269.418837 280.691398 
L 267.976584 285.107078 
L 266.501959 289 
L 266.501959 289 
" clip-path="url(#p7853855417)" style="fill: none; stroke: #d62728; stroke-width: 1.5; stroke-linecap: square"/>
   </g>
   <g id="patch_3">
    <path d="M 43.2 259.2 
L 43.2 2.88 
" style="fill: none; stroke: #000000; stroke-width: 0.8; stroke-linejoin: miter; stroke-linecap: square"/>
   </g>
   <g id="patch_4">
    <path d="M 285.12 259.2 
L 285.12 2.88 
" style="fill: none; stroke: #000000; stroke-width: 0.8; stroke-linejoin: miter; stroke-linecap: square"/>
   </g>
   <g id="patch_5">
    <path d="M 43.2 259.2 
L 285.12 259.2 
" style="fill: none; stroke: #000000; stroke-width: 0.8; stroke-linejoin: miter; stroke-linecap: square"/>
   </g>
   <g id="patch_6">
    <path d="M 43.2 2.88 
L 285.12 2.88 
" style="fill: none; stroke: #000000; stroke-width: 0.8; stroke-linejoin: miter; stroke-linecap: square"/>
   </g>
   <g id="patch_7">
    <path d="M 106.790011 97.793382 
Q 108.017664 100.670489 109.245317 103.547596 
L 112.694447 102.075863 
Q 113.60233 109.299594 114.510212 116.523325 
Q 109.923257 110.869443 105.336302 105.215561 
L 108.785433 103.743827 
Q 107.55778 100.86672 106.330127 97.989613 
L 106.790011 97.793382 
z
" style="stroke: #000000; stroke-linecap: round"/>
   </g>
   <g id="text_11">
    <g id="patch_8">
     <path d="M 52.556857 97.807046 
L 104.219871 97.807046 
Q 109.619871 97.807046 109.619871 92.407046 
L 109.619871 76.465681 
Q 109.619871 71.065681 104.219871 71.065681 
L 52.556857 71.065681 
Q 47.156857 71.065681 47.156857 76.465681 
L 47.156857 92.407046 
Q 47.156857 97.807046 52.556857 97.807046 
z
" style="fill: #ffffff; stroke: #000000; stroke-linejoin: miter"/>
    </g>
    <!-- $b = 0.3$ -->
    <g transform="translate(52.556857 88.918982) scale(0.18 -0.18)">
     <defs>
      <path id="CMMI12-62" d="M 1478 4257 
C 1485 4283 1498 4321 1498 4352 
C 1498 4416 1434 4416 1421 4416 
C 1414 4416 1184 4393 1069 4377 
C 960 4377 864 4358 749 4358 
C 595 4345 550 4339 550 4224 
C 550 4160 614 4160 678 4160 
C 1005 4160 1005 4103 1005 4040 
C 1005 3996 954 3811 928 3696 
L 774 3085 
C 710 2831 346 1387 320 1272 
C 288 1114 288 1005 288 922 
C 288 274 653 -64 1069 -64 
C 1811 -64 2579 888 2579 1814 
C 2579 2401 2246 2816 1766 2816 
C 1434 2816 1133 2542 1011 2414 
L 1478 4257 
z
M 1075 64 
C 870 64 646 217 646 715 
C 646 926 666 1047 781 1494 
C 800 1577 902 1986 928 2069 
C 941 2120 1318 2689 1754 2689 
C 2035 2689 2163 2408 2163 2076 
C 2163 1769 1984 1047 1824 715 
C 1664 370 1370 64 1075 64 
z
" transform="scale(0.015625)"/>
      <path id="CMR17-3d" d="M 4115 2017 
C 4211 2017 4307 2017 4307 2125 
C 4307 2240 4198 2240 4090 2240 
L 512 2240 
C 403 2240 294 2240 294 2125 
C 294 2017 390 2017 486 2017 
L 4115 2017 
z
M 4090 896 
C 4198 896 4307 896 4307 1011 
C 4307 1119 4211 1119 4115 1119 
L 486 1119 
C 390 1119 294 1119 294 1011 
C 294 896 403 896 512 896 
L 4090 896 
z
" transform="scale(0.015625)"/>
      <path id="CMMI12-3a" d="M 1178 307 
C 1178 492 1024 619 870 619 
C 685 619 557 466 557 313 
C 557 128 710 0 864 0 
C 1050 0 1178 153 1178 307 
z
" transform="scale(0.015625)"/>
      <path id="CMR17-33" d="M 1414 2157 
C 1984 2157 2234 1662 2234 1090 
C 2234 320 1824 25 1453 25 
C 1114 25 563 194 390 693 
C 422 680 454 680 486 680 
C 640 680 755 782 755 948 
C 755 1133 614 1216 486 1216 
C 378 1216 211 1165 211 926 
C 211 335 787 -128 1466 -128 
C 2176 -128 2720 430 2720 1085 
C 2720 1707 2208 2157 1600 2227 
C 2086 2328 2554 2756 2554 3329 
C 2554 3820 2048 4179 1472 4179 
C 890 4179 378 3829 378 3329 
C 378 3110 544 3072 627 3072 
C 762 3072 877 3155 877 3321 
C 877 3486 762 3569 627 3569 
C 602 3569 570 3569 544 3557 
C 730 3959 1235 4032 1459 4032 
C 1683 4032 2106 3925 2106 3320 
C 2106 3143 2080 2828 1862 2550 
C 1670 2304 1453 2304 1242 2284 
C 1210 2284 1062 2269 1037 2269 
C 992 2263 966 2257 966 2208 
C 966 2163 973 2157 1101 2157 
L 1414 2157 
z
" transform="scale(0.015625)"/>
     </defs>
     <use xlink:href="#CMMI12-62" transform="scale(0.996264)"/>
     <use xlink:href="#CMR17-3d" transform="translate(69.149883 0) scale(0.996264)"/>
     <use xlink:href="#CMR17-30" transform="translate(168.53868 0) scale(0.996264)"/>
     <use xlink:href="#CMMI12-3a" transform="translate(214.229157 0) scale(0.996264)"/>
     <use xlink:href="#CMR17-33" transform="translate(241.326334 0) scale(0.996264)"/>
    </g>
   </g>
   <g id="patch_9">
    <path d="M 116.616795 56.628319 
Q 128.614531 74.803219 140.612268 92.978119 
L 143.741871 90.912185 
Q 145.928785 97.855373 148.115699 104.798561 
Q 142.590542 100.059036 137.065385 95.319512 
L 140.194988 93.253577 
Q 128.197251 75.078677 116.199514 56.903777 
L 116.616795 56.628319 
z
" style="stroke: #000000; stroke-linecap: round"/>
   </g>
   <g id="text_12">
    <g id="patch_10">
     <path d="M 61.353947 57.028864 
L 113.016962 57.028864 
Q 118.416962 57.028864 118.416962 51.628864 
L 118.416962 35.6875 
Q 118.416962 30.2875 113.016962 30.2875 
L 61.353947 30.2875 
Q 55.953947 30.2875 55.953947 35.6875 
L 55.953947 51.628864 
Q 55.953947 57.028864 61.353947 57.028864 
z
" style="fill: #ffffff; stroke: #000000; stroke-linejoin: miter"/>
    </g>
    <!-- $b = 0.6$ -->
    <g transform="translate(61.353947 48.1408) scale(0.18 -0.18)">
     <defs>
      <path id="CMR17-36" d="M 678 2176 
C 678 3690 1395 4032 1811 4032 
C 1946 4032 2272 4009 2400 3776 
C 2298 3776 2106 3776 2106 3553 
C 2106 3381 2246 3323 2336 3323 
C 2394 3323 2566 3348 2566 3560 
C 2566 3954 2246 4179 1805 4179 
C 1043 4179 243 3390 243 1984 
C 243 253 966 -128 1478 -128 
C 2099 -128 2688 427 2688 1283 
C 2688 2081 2170 2662 1517 2662 
C 1126 2662 838 2407 678 1960 
L 678 2176 
z
M 1478 25 
C 691 25 691 1200 691 1436 
C 691 1896 909 2560 1504 2560 
C 1613 2560 1926 2560 2138 2120 
C 2253 1870 2253 1609 2253 1289 
C 2253 944 2253 690 2118 434 
C 1978 171 1773 25 1478 25 
z
" transform="scale(0.015625)"/>
     </defs>
     <use xlink:href="#CMMI12-62" transform="scale(0.996264)"/>
     <use xlink:href="#CMR17-3d" transform="translate(69.149883 0) scale(0.996264)"/>
     <use xlink:href="#CMR17-30" transform="translate(168.53868 0) scale(0.996264)"/>
     <use xlink:href="#CMMI12-3a" transform="translate(214.229157 0) scale(0.996264)"/>
     <use xlink:href="#CMR17-36" transform="translate(241.326334 0) scale(0.996264)"/>
    </g>
   </g>
   <g id="patch_11">
    <path d="M 213.006537 57.159402 
Q 198.539551 88.264944 184.072565 119.370486 
L 187.472798 120.951912 
Q 182.707469 126.455318 177.94214 131.958724 
Q 179.080553 124.768463 180.218966 117.578202 
L 183.6192 119.159629 
Q 198.086187 88.054087 212.553173 56.948545 
L 213.006537 57.159402 
z
" style="stroke: #000000; stroke-linecap: round"/>
   </g>
   <g id="text_13">
    <g id="patch_12">
     <path d="M 215.303038 57.028864 
L 266.966053 57.028864 
Q 272.366053 57.028864 272.366053 51.628864 
L 272.366053 35.6875 
Q 272.366053 30.2875 266.966053 30.2875 
L 215.303038 30.2875 
Q 209.903038 30.2875 209.903038 35.6875 
L 209.903038 51.628864 
Q 209.903038 57.028864 215.303038 57.028864 
z
" style="fill: #ffffff; stroke: #000000; stroke-linejoin: miter"/>
    </g>
    <!-- $b = 1.0$ -->
    <g transform="translate(215.303038 48.1408) scale(0.18 -0.18)">
     <use xlink:href="#CMMI12-62" transform="scale(0.996264)"/>
     <use xlink:href="#CMR17-3d" transform="translate(69.149883 0) scale(0.996264)"/>
     <use xlink:href="#CMR17-31" transform="translate(168.53868 0) scale(0.996264)"/>
     <use xlink:href="#CMMI12-3a" transform="translate(214.229157 0) scale(0.996264)"/>
     <use xlink:href="#CMR17-30" transform="translate(241.326334 0) scale(0.996264)"/>
    </g>
   </g>
   <g id="patch_13">
    <path d="M 222.341147 98.090724 
Q 213.393434 123.212621 204.44572 148.334519 
L 207.978338 149.592738 
Q 203.74513 155.517226 199.511922 161.441714 
Q 199.977005 154.175126 200.442088 146.908537 
L 203.974705 148.166756 
Q 212.922418 123.044859 221.870131 97.922962 
L 222.341147 98.090724 
z
" style="stroke: #000000; stroke-linecap: round"/>
   </g>
   <g id="text_14">
    <g id="patch_14">
     <path d="M 224.100129 97.807046 
L 275.763143 97.807046 
Q 281.163143 97.807046 281.163143 92.407046 
L 281.163143 76.465681 
Q 281.163143 71.065681 275.763143 71.065681 
L 224.100129 71.065681 
Q 218.700129 71.065681 218.700129 76.465681 
L 218.700129 92.407046 
Q 218.700129 97.807046 224.100129 97.807046 
z
" style="fill: #ffffff; stroke: #000000; stroke-linejoin: miter"/>
    </g>
    <!-- $b = 1.8$ -->
    <g transform="translate(224.100129 88.918982) scale(0.18 -0.18)">
     <defs>
      <path id="CMR17-38" d="M 1741 2264 
C 2144 2467 2554 2773 2554 3263 
C 2554 3841 1990 4179 1472 4179 
C 890 4179 378 3759 378 3180 
C 378 3021 416 2747 666 2505 
C 730 2442 998 2251 1171 2130 
C 883 1983 211 1634 211 934 
C 211 279 838 -128 1459 -128 
C 2144 -128 2720 362 2720 1010 
C 2720 1590 2330 1857 2074 2029 
L 1741 2264 
z
M 902 2822 
C 851 2854 595 3051 595 3351 
C 595 3739 998 4032 1459 4032 
C 1965 4032 2336 3676 2336 3262 
C 2336 2669 1670 2331 1638 2331 
C 1632 2331 1626 2331 1574 2370 
L 902 2822 
z
M 2080 1519 
C 2176 1449 2483 1240 2483 851 
C 2483 381 2010 25 1472 25 
C 890 25 448 438 448 940 
C 448 1443 838 1862 1280 2060 
L 2080 1519 
z
" transform="scale(0.015625)"/>
     </defs>
     <use xlink:href="#CMMI12-62" transform="scale(0.996264)"/>
     <use xlink:href="#CMR17-3d" transform="translate(69.149883 0) scale(0.996264)"/>
     <use xlink:href="#CMR17-31" transform="translate(168.53868 0) scale(0.996264)"/>
     <use xlink:href="#CMMI12-3a" transform="translate(214.229157 0) scale(0.996264)"/>
     <use xlink:href="#CMR17-38" transform="translate(241.326334 0) scale(0.996264)"/>
    </g>
   </g>
  </g>
 </g>
 <defs>
  <clipPath id="p7853855417">
   <rect x="43.2" y="2.88" width="241.92" height="256.32"/>
  </clipPath>
 </defs>
</svg>
