<?xml version="1.0" encoding="utf-8" standalone="no"?>
<!DOCTYPE svg PUBLIC "-//W3C//DTD SVG 1.1//EN"
  "http://www.w3.org/Graphics/SVG/1.1/DTD/svg11.dtd">
<svg xmlns:xlink="http://www.w3.org/1999/xlink" width="288pt" height="288pt" viewBox="0 0 288 288" xmlns="http://www.w3.org/2000/svg" version="1.1">
 <metadata>
  <rdf:RDF xmlns:dc="http://purl.org/dc/elements/1.1/" xmlns:cc="http://creativecommons.org/ns#" xmlns:rdf="http://www.w3.org/1999/02/22-rdf-syntax-ns#">
   <cc:Work>
    <dc:type rdf:resource="http://purl.org/dc/dcmitype/StillImage"/>
    <dc:date>2023-11-24T12:59:52.388436</dc:date>
    <dc:format>image/svg+xml</dc:format>
    <dc:creator>
     <cc:Agent>
      <dc:title>Matplotlib v3.8.2, https://matplotlib.org/</dc:title>
     </cc:Agent>
    </dc:creator>
   </cc:Work>
  </rdf:RDF>
 </metadata>
 <defs>
  <style type="text/css">*{stroke-linejoin: round; stroke-linecap: butt}</style>
 </defs>
 <g id="figure_1">
  <g id="patch_1">
   <path d="M 0 288 
L 288 288 
L 288 0 
L 0 0 
z
" style="fill: #ffffff"/>
  </g>
  <g id="axes_1">
   <g id="patch_2">
    <path d="M 43.2 259.2 
L 285.12 259.2 
L 285.12 2.88 
L 43.2 2.88 
z
" style="fill: #ffffff"/>
   </g>
   <g id="matplotlib.axis_1">
    <g id="xtick_1">
     <g id="line2d_1">
      <path d="M 54.196364 259.2 
L 54.196364 2.88 
" clip-path="url(#pea954334ab)" style="fill: none; stroke-dasharray: 2.96,1.28; stroke-dashoffset: 0; stroke: #b0b0b0; stroke-width: 0.8"/>
     </g>
     <g id="line2d_2">
      <defs>
       <path id="m0040709a94" d="M 0 0 
L 0 -5 
" style="stroke: #000000"/>
      </defs>
      <g>
       <use xlink:href="#m0040709a94" x="54.196364" y="259.2" style="stroke: #000000"/>
      </g>
     </g>
     <g id="line2d_3">
      <defs>
       <path id="me3de5ed34c" d="M 0 0 
L 0 5 
" style="stroke: #000000"/>
      </defs>
      <g>
       <use xlink:href="#me3de5ed34c" x="54.196364" y="2.88" style="stroke: #000000"/>
      </g>
     </g>
     <g id="text_1">
      <!-- $\mathdefault{0}$ -->
      <g transform="translate(50.782119 272.385876) scale(0.14 -0.14)">
       <defs>
        <path id="CMR17-30" d="M 2688 2025 
C 2688 2416 2682 3080 2413 3591 
C 2176 4039 1798 4198 1466 4198 
C 1158 4198 768 4058 525 3597 
C 269 3118 243 2524 243 2025 
C 243 1661 250 1106 448 619 
C 723 -39 1216 -128 1466 -128 
C 1760 -128 2208 -7 2470 600 
C 2662 1042 2688 1559 2688 2025 
z
M 1466 -26 
C 1056 -26 813 325 723 812 
C 653 1188 653 1738 653 2096 
C 653 2588 653 2997 736 3387 
C 858 3929 1216 4096 1466 4096 
C 1728 4096 2067 3923 2189 3400 
C 2272 3036 2278 2607 2278 2096 
C 2278 1680 2278 1169 2202 792 
C 2067 95 1690 -26 1466 -26 
z
" transform="scale(0.015625)"/>
       </defs>
       <use xlink:href="#CMR17-30" transform="scale(0.996264)"/>
      </g>
     </g>
    </g>
    <g id="xtick_2">
     <g id="line2d_4">
      <path d="M 115.271052 259.2 
L 115.271052 2.88 
" clip-path="url(#pea954334ab)" style="fill: none; stroke-dasharray: 2.96,1.28; stroke-dashoffset: 0; stroke: #b0b0b0; stroke-width: 0.8"/>
     </g>
     <g id="line2d_5">
      <g>
       <use xlink:href="#m0040709a94" x="115.271052" y="259.2" style="stroke: #000000"/>
      </g>
     </g>
     <g id="line2d_6">
      <g>
       <use xlink:href="#me3de5ed34c" x="115.271052" y="2.88" style="stroke: #000000"/>
      </g>
     </g>
     <g id="text_2">
      <!-- $\mathdefault{2}$ -->
      <g transform="translate(111.856807 272.385876) scale(0.14 -0.14)">
       <defs>
        <path id="CMR17-32" d="M 2669 989 
L 2554 989 
C 2490 536 2438 459 2413 420 
C 2381 369 1920 369 1830 369 
L 602 369 
C 832 619 1280 1072 1824 1597 
C 2214 1967 2669 2402 2669 3035 
C 2669 3790 2067 4224 1395 4224 
C 691 4224 262 3604 262 3030 
C 262 2780 448 2748 525 2748 
C 589 2748 781 2787 781 3010 
C 781 3207 614 3264 525 3264 
C 486 3264 448 3258 422 3245 
C 544 3790 915 4058 1306 4058 
C 1862 4058 2227 3617 2227 3035 
C 2227 2479 1901 2000 1536 1584 
L 262 146 
L 262 0 
L 2515 0 
L 2669 989 
z
" transform="scale(0.015625)"/>
       </defs>
       <use xlink:href="#CMR17-32" transform="scale(0.996264)"/>
      </g>
     </g>
    </g>
    <g id="xtick_3">
     <g id="line2d_7">
      <path d="M 176.34574 259.2 
L 176.34574 2.88 
" clip-path="url(#pea954334ab)" style="fill: none; stroke-dasharray: 2.96,1.28; stroke-dashoffset: 0; stroke: #b0b0b0; stroke-width: 0.8"/>
     </g>
     <g id="line2d_8">
      <g>
       <use xlink:href="#m0040709a94" x="176.34574" y="259.2" style="stroke: #000000"/>
      </g>
     </g>
     <g id="line2d_9">
      <g>
       <use xlink:href="#me3de5ed34c" x="176.34574" y="2.88" style="stroke: #000000"/>
      </g>
     </g>
     <g id="text_3">
      <!-- $\mathdefault{4}$ -->
      <g transform="translate(172.931495 272.385876) scale(0.14 -0.14)">
       <defs>
        <path id="CMR17-34" d="M 2150 4122 
C 2150 4256 2144 4256 2029 4256 
L 128 1254 
L 128 1088 
L 1779 1088 
L 1779 457 
C 1779 224 1766 160 1318 160 
L 1197 160 
L 1197 0 
C 1402 0 1747 0 1965 0 
C 2182 0 2528 0 2733 0 
L 2733 160 
L 2611 160 
C 2163 160 2150 224 2150 457 
L 2150 1088 
L 2803 1088 
L 2803 1254 
L 2150 1254 
L 2150 4122 
z
M 1798 3703 
L 1798 1254 
L 256 1254 
L 1798 3703 
z
" transform="scale(0.015625)"/>
       </defs>
       <use xlink:href="#CMR17-34" transform="scale(0.996264)"/>
      </g>
     </g>
    </g>
    <g id="xtick_4">
     <g id="line2d_10">
      <path d="M 237.420428 259.2 
L 237.420428 2.88 
" clip-path="url(#pea954334ab)" style="fill: none; stroke-dasharray: 2.96,1.28; stroke-dashoffset: 0; stroke: #b0b0b0; stroke-width: 0.8"/>
     </g>
     <g id="line2d_11">
      <g>
       <use xlink:href="#m0040709a94" x="237.420428" y="259.2" style="stroke: #000000"/>
      </g>
     </g>
     <g id="line2d_12">
      <g>
       <use xlink:href="#me3de5ed34c" x="237.420428" y="2.88" style="stroke: #000000"/>
      </g>
     </g>
     <g id="text_4">
      <!-- $\mathdefault{6}$ -->
      <g transform="translate(234.006184 272.385876) scale(0.14 -0.14)">
       <defs>
        <path id="CMR17-36" d="M 678 2176 
C 678 3690 1395 4032 1811 4032 
C 1946 4032 2272 4009 2400 3776 
C 2298 3776 2106 3776 2106 3553 
C 2106 3381 2246 3323 2336 3323 
C 2394 3323 2566 3348 2566 3560 
C 2566 3954 2246 4179 1805 4179 
C 1043 4179 243 3390 243 1984 
C 243 253 966 -128 1478 -128 
C 2099 -128 2688 427 2688 1283 
C 2688 2081 2170 2662 1517 2662 
C 1126 2662 838 2407 678 1960 
L 678 2176 
z
M 1478 25 
C 691 25 691 1200 691 1436 
C 691 1896 909 2560 1504 2560 
C 1613 2560 1926 2560 2138 2120 
C 2253 1870 2253 1609 2253 1289 
C 2253 944 2253 690 2118 434 
C 1978 171 1773 25 1478 25 
z
" transform="scale(0.015625)"/>
       </defs>
       <use xlink:href="#CMR17-36" transform="scale(0.996264)"/>
      </g>
     </g>
    </g>
    <g id="text_5">
     <!-- $t$ -->
     <g transform="translate(159.93284 281.70231) scale(0.24 -0.24)">
      <defs>
       <path id="CMMI12-74" d="M 1286 2566 
L 1875 2566 
C 1997 2566 2061 2566 2061 2681 
C 2061 2752 2022 2752 1894 2752 
L 1331 2752 
L 1568 3692 
C 1594 3781 1594 3794 1594 3840 
C 1594 3943 1510 4000 1427 4000 
C 1376 4000 1229 3981 1178 3775 
L 928 2752 
L 326 2752 
C 198 2752 141 2752 141 2630 
C 141 2566 186 2566 307 2566 
L 877 2566 
L 454 881 
C 403 658 384 594 384 511 
C 384 211 595 -64 954 -64 
C 1600 -64 1946 868 1946 912 
C 1946 951 1920 970 1882 970 
C 1869 970 1843 970 1830 944 
C 1824 938 1818 931 1773 829 
C 1638 511 1344 64 973 64 
C 781 64 768 224 768 364 
C 768 370 768 492 787 568 
L 1286 2566 
z
" transform="scale(0.015625)"/>
      </defs>
      <use xlink:href="#CMMI12-74" transform="scale(0.996264)"/>
     </g>
    </g>
   </g>
   <g id="matplotlib.axis_2">
    <g id="ytick_1">
     <g id="line2d_13">
      <path d="M 43.2 256.074146 
L 285.12 256.074146 
" clip-path="url(#pea954334ab)" style="fill: none; stroke-dasharray: 2.96,1.28; stroke-dashoffset: 0; stroke: #b0b0b0; stroke-width: 0.8"/>
     </g>
     <g id="line2d_14">
      <defs>
       <path id="m65a5e1469b" d="M 0 0 
L 5 0 
" style="stroke: #000000"/>
      </defs>
      <g>
       <use xlink:href="#m65a5e1469b" x="43.2" y="256.074146" style="stroke: #000000"/>
      </g>
     </g>
     <g id="line2d_15">
      <defs>
       <path id="m3f5cbbc46e" d="M 0 0 
L -5 0 
" style="stroke: #000000"/>
      </defs>
      <g>
       <use xlink:href="#m3f5cbbc46e" x="285.12" y="256.074146" style="stroke: #000000"/>
      </g>
     </g>
     <g id="text_6">
      <!-- -4 -->
      <g transform="translate(28.319186 260.917085) scale(0.14 -0.14)">
       <defs>
        <path id="CMR17-2d" d="M 1632 1216 
L 1632 1496 
L 26 1496 
L 26 1216 
L 1632 1216 
z
" transform="scale(0.015625)"/>
       </defs>
       <use xlink:href="#CMR17-2d" transform="scale(0.996264)"/>
       <use xlink:href="#CMR17-34" transform="translate(30.075966 0) scale(0.996264)"/>
      </g>
     </g>
    </g>
    <g id="ytick_2">
     <g id="line2d_16">
      <path d="M 43.2 193.557073 
L 285.12 193.557073 
" clip-path="url(#pea954334ab)" style="fill: none; stroke-dasharray: 2.96,1.28; stroke-dashoffset: 0; stroke: #b0b0b0; stroke-width: 0.8"/>
     </g>
     <g id="line2d_17">
      <g>
       <use xlink:href="#m65a5e1469b" x="43.2" y="193.557073" style="stroke: #000000"/>
      </g>
     </g>
     <g id="line2d_18">
      <g>
       <use xlink:href="#m3f5cbbc46e" x="285.12" y="193.557073" style="stroke: #000000"/>
      </g>
     </g>
     <g id="text_7">
      <!-- -2 -->
      <g transform="translate(28.319186 198.400011) scale(0.14 -0.14)">
       <use xlink:href="#CMR17-2d" transform="scale(0.996264)"/>
       <use xlink:href="#CMR17-32" transform="translate(30.075966 0) scale(0.996264)"/>
      </g>
     </g>
    </g>
    <g id="ytick_3">
     <g id="line2d_19">
      <path d="M 43.2 131.04 
L 285.12 131.04 
" clip-path="url(#pea954334ab)" style="fill: none; stroke-dasharray: 2.96,1.28; stroke-dashoffset: 0; stroke: #b0b0b0; stroke-width: 0.8"/>
     </g>
     <g id="line2d_20">
      <g>
       <use xlink:href="#m65a5e1469b" x="43.2" y="131.04" style="stroke: #000000"/>
      </g>
     </g>
     <g id="line2d_21">
      <g>
       <use xlink:href="#m3f5cbbc46e" x="285.12" y="131.04" style="stroke: #000000"/>
      </g>
     </g>
    </g>
    <g id="ytick_4">
     <g id="line2d_22">
      <path d="M 43.2 68.522927 
L 285.12 68.522927 
" clip-path="url(#pea954334ab)" style="fill: none; stroke-dasharray: 2.96,1.28; stroke-dashoffset: 0; stroke: #b0b0b0; stroke-width: 0.8"/>
     </g>
     <g id="line2d_23">
      <g>
       <use xlink:href="#m65a5e1469b" x="43.2" y="68.522927" style="stroke: #000000"/>
      </g>
     </g>
     <g id="line2d_24">
      <g>
       <use xlink:href="#m3f5cbbc46e" x="285.12" y="68.522927" style="stroke: #000000"/>
      </g>
     </g>
     <g id="text_8">
      <!-- 2 -->
      <g transform="translate(32.871511 73.365865) scale(0.14 -0.14)">
       <use xlink:href="#CMR17-32" transform="scale(0.996264)"/>
      </g>
     </g>
    </g>
    <g id="ytick_5">
     <g id="line2d_25">
      <path d="M 43.2 6.005854 
L 285.12 6.005854 
" clip-path="url(#pea954334ab)" style="fill: none; stroke-dasharray: 2.96,1.28; stroke-dashoffset: 0; stroke: #b0b0b0; stroke-width: 0.8"/>
     </g>
     <g id="line2d_26">
      <g>
       <use xlink:href="#m65a5e1469b" x="43.2" y="6.005854" style="stroke: #000000"/>
      </g>
     </g>
     <g id="line2d_27">
      <g>
       <use xlink:href="#m3f5cbbc46e" x="285.12" y="6.005854" style="stroke: #000000"/>
      </g>
     </g>
     <g id="text_9">
      <!-- 4 -->
      <g transform="translate(32.871511 10.848792) scale(0.14 -0.14)">
       <use xlink:href="#CMR17-34" transform="scale(0.996264)"/>
      </g>
     </g>
    </g>
    <g id="text_10">
     <!-- $\ddot \theta$ -->
     <g transform="translate(33.668428 137.647097) rotate(-90) scale(0.24 -0.24)">
      <defs>
       <path id="CMR17-7f" d="M 1133 3961 
C 1133 4120 1005 4215 883 4215 
C 717 4215 627 4075 627 3967 
C 627 3840 730 3712 883 3712 
C 1018 3712 1133 3821 1133 3961 
z
M 2304 3961 
C 2304 4088 2202 4215 2048 4215 
C 1914 4215 1798 4107 1798 3967 
C 1798 3808 1926 3712 2048 3712 
C 2214 3712 2304 3852 2304 3961 
z
" transform="scale(0.015625)"/>
       <path id="CMMI12-12" d="M 2835 3200 
C 2835 3850 2630 4480 2106 4480 
C 1210 4480 256 2615 256 1216 
C 256 923 320 -64 992 -64 
C 1862 -64 2835 1756 2835 3200 
z
M 896 2304 
C 992 2679 1126 3214 1382 3665 
C 1594 4047 1818 4352 2099 4352 
C 2310 4352 2451 4174 2451 3564 
C 2451 3334 2432 3017 2246 2304 
L 896 2304 
z
M 2202 2113 
C 2042 1490 1907 1088 1677 687 
C 1491 363 1267 64 998 64 
C 800 64 640 217 640 846 
C 640 1260 742 1693 845 2113 
L 2202 2113 
z
" transform="scale(0.015625)"/>
      </defs>
      <use xlink:href="#CMR17-7f" transform="translate(9.368676 26.296621) scale(0.996264)"/>
      <use xlink:href="#CMMI12-12" transform="scale(0.996264)"/>
     </g>
    </g>
   </g>
   <g id="line2d_28">
    <path d="M 54.196364 131.04 
L 54.305186 -1 
M 54.67464 -1 
L 54.855745 14.971237 
L 55.350281 37.534294 
L 55.844816 49.430693 
L 56.504198 59.146232 
L 57.163579 65.555743 
L 57.987805 71.177371 
L 58.812032 75.274177 
L 59.801103 78.980833 
L 60.790175 81.840704 
L 61.944092 84.470516 
L 63.098009 86.57496 
L 64.416771 88.527013 
L 65.900379 90.307705 
L 67.548831 91.912801 
L 69.36213 93.346292 
L 71.340273 94.616137 
L 73.483262 95.731618 
L 75.955941 96.763351 
L 78.758311 97.679169 
L 81.890371 98.455776 
L 85.352122 99.07399 
L 89.143563 99.514073 
L 93.09985 99.745661 
L 97.220982 99.759493 
L 101.506959 99.528177 
L 105.298401 99.097971 
L 108.760152 98.490516 
L 111.892212 97.72601 
L 114.694582 96.824027 
L 117.167261 95.808151 
L 119.475095 94.616137 
L 121.453239 93.346292 
L 123.266537 91.912801 
L 124.91499 90.307705 
L 126.398597 88.527013 
L 127.717359 86.57496 
L 128.871276 84.470516 
L 129.860348 82.256578 
L 130.84942 79.506781 
L 131.673646 76.628573 
L 132.497872 72.957313 
L 133.157254 69.160156 
L 133.816635 64.157531 
L 134.476016 57.122418 
L 134.970552 49.430693 
L 135.465088 37.534294 
L 135.794778 24.591653 
L 136.140728 -1 
M 136.510182 -1 
L 136.749189 289 
M 136.928795 289 
L 137.11354 260.87549 
L 137.443231 237.488347 
L 137.937767 219.885377 
L 138.432303 209.757174 
L 139.091684 201.105634 
L 139.751065 195.232755 
L 140.575291 189.985995 
L 141.399518 186.111729 
L 142.388589 182.573219 
L 143.377661 179.823422 
L 144.531578 177.281001 
L 145.685495 175.237692 
L 147.004257 173.335897 
L 148.487865 171.596054 
L 150.136318 170.024032 
L 151.949616 168.617357 
L 153.927759 167.369368 
L 156.070748 166.271849 
L 158.543427 165.255973 
L 161.345797 164.35399 
L 164.477857 163.589484 
L 167.939608 162.982029 
L 171.73105 162.551823 
L 175.687336 162.329674 
L 179.808468 162.325142 
L 183.764755 162.538117 
L 187.556197 162.95851 
L 191.017947 163.555308 
L 194.150008 164.307862 
L 196.952378 165.196216 
L 199.425057 166.196513 
L 201.732891 167.369368 
L 203.711034 168.617357 
L 205.524332 170.024032 
L 207.172785 171.596054 
L 208.656393 173.335897 
L 209.975155 175.237692 
L 211.129072 177.281001 
L 212.282989 179.823422 
L 213.272061 182.573219 
L 214.096287 185.451427 
L 214.920513 189.122687 
L 215.579894 192.919844 
L 216.239276 197.922469 
L 216.898657 204.957582 
L 217.393193 212.649307 
L 217.887728 224.545706 
L 218.217419 237.488347 
L 218.54711 260.87549 
L 218.731855 289 
M 218.911461 289 
L 219.041645 131.04 
L 219.041645 131.04 
" clip-path="url(#pea954334ab)" style="fill: none; stroke: #1f77b4; stroke-width: 1.5; stroke-linecap: square"/>
   </g>
   <g id="line2d_29">
    <path d="M 54.196364 131.04 
L 54.373021 119.31267 
L 54.726335 116.42432 
L 55.256307 114.261066 
L 55.962936 112.473454 
L 56.846222 110.930855 
L 57.906165 109.566815 
L 59.142766 108.342415 
L 60.732681 107.109911 
L 62.499253 106.02225 
L 64.61914 104.971697 
L 67.268998 103.921478 
L 70.272171 102.975484 
L 73.805315 102.098698 
L 77.868431 101.322837 
L 82.461519 100.674473 
L 87.584578 100.179926 
L 93.060952 99.876135 
L 98.713983 99.783033 
L 104.896985 99.925891 
L 110.373359 100.279533 
L 115.496418 100.828234 
L 120.089506 101.536517 
L 124.152622 102.381154 
L 127.685767 103.338949 
L 130.688939 104.381603 
L 133.16214 105.46852 
L 135.282027 106.646072 
L 137.048599 107.897238 
L 138.461857 109.185245 
L 139.5218 110.432264 
L 140.405086 111.793536 
L 141.111715 113.275366 
L 141.641687 114.858431 
L 141.995001 116.42432 
L 142.348316 119.31267 
L 142.70163 142.76733 
L 143.054945 145.65568 
L 143.584916 147.818934 
L 144.291545 149.606546 
L 145.174831 151.149145 
L 146.234775 152.513185 
L 147.471375 153.737585 
L 149.06129 154.970089 
L 150.827862 156.05775 
L 152.947749 157.108303 
L 155.597607 158.158522 
L 158.60078 159.104516 
L 162.133924 159.981302 
L 166.19704 160.757163 
L 170.790128 161.405527 
L 175.913187 161.900074 
L 181.389561 162.203865 
L 187.042592 162.296967 
L 193.225595 162.154109 
L 198.701968 161.800467 
L 203.825028 161.251766 
L 208.418115 160.543483 
L 212.481231 159.698846 
L 216.014376 158.741051 
L 219.017549 157.698397 
L 221.49075 156.61148 
L 223.610636 155.433928 
L 225.377208 154.182762 
L 226.790466 152.894755 
L 227.850409 151.647736 
L 228.733696 150.286464 
L 229.440324 148.804634 
L 229.970296 147.221569 
L 230.323611 145.65568 
L 230.676925 142.76733 
L 230.853582 131.04 
L 230.853582 131.04 
" clip-path="url(#pea954334ab)" style="fill: none; stroke: #ff7f0e; stroke-width: 1.5; stroke-linecap: square"/>
   </g>
   <g id="line2d_30">
    <path d="M 54.196364 131.04 
L 63.598111 121.567533 
L 68.778666 116.674166 
L 72.999858 112.985875 
L 76.837306 109.930033 
L 80.291009 107.463153 
L 83.55284 105.409445 
L 86.622798 103.743045 
L 89.500884 102.430857 
L 92.187097 101.435056 
L 94.873311 100.668186 
L 97.559524 100.136175 
L 100.245738 99.84368 
L 102.548207 99.790357 
L 105.618165 99.981173 
L 108.304378 100.411141 
L 110.990592 101.077978 
L 113.676806 101.976507 
L 116.554891 103.188393 
L 119.432977 104.647494 
L 122.502936 106.461722 
L 125.764766 108.66082 
L 129.218469 111.266732 
L 133.055917 114.456952 
L 137.27711 118.266191 
L 142.265792 123.076216 
L 149.556943 130.450824 
L 159.534307 140.512467 
L 164.714862 145.405834 
L 168.936055 149.094125 
L 172.773503 152.149967 
L 176.227206 154.616847 
L 179.489036 156.670555 
L 182.558995 158.336955 
L 185.437081 159.649143 
L 188.123294 160.644944 
L 190.809508 161.411814 
L 193.495721 161.943825 
L 196.181935 162.23632 
L 198.484403 162.289643 
L 201.554362 162.098827 
L 204.240575 161.668859 
L 206.926789 161.002022 
L 209.613002 160.103493 
L 212.491088 158.891607 
L 215.369174 157.432506 
L 218.439132 155.618278 
L 221.700963 153.41918 
L 225.154666 150.813268 
L 228.992114 147.623048 
L 233.213306 143.813809 
L 238.201989 139.003784 
L 245.49314 131.629176 
L 246.068757 131.04 
L 246.068757 131.04 
" clip-path="url(#pea954334ab)" style="fill: none; stroke: #2ca02c; stroke-width: 1.5; stroke-linecap: square"/>
   </g>
   <g id="line2d_31">
    <path d="M 54.196364 131.04 
L 58.814836 130.932795 
L 61.893818 130.635646 
L 64.532945 130.170893 
L 67.172073 129.474186 
L 69.591273 128.607136 
L 72.010473 127.504695 
L 74.429673 126.157239 
L 76.848873 124.563199 
L 79.488 122.552692 
L 82.347055 120.084298 
L 85.645964 116.933198 
L 91.364073 111.087 
L 95.542691 106.966966 
L 98.181818 104.651601 
L 100.381091 102.98694 
L 102.360436 101.745805 
L 104.119855 100.87763 
L 105.879273 100.252174 
L 107.638691 99.878221 
L 109.178182 99.778906 
L 111.377455 99.99283 
L 112.916945 100.384856 
L 114.676364 101.07263 
L 116.435782 101.998483 
L 118.415127 103.297419 
L 120.6144 105.015872 
L 123.253527 107.379567 
L 126.772364 110.862073 
L 135.349527 119.47698 
L 138.428509 122.191557 
L 141.067636 124.247337 
L 143.706764 126.022469 
L 146.125964 127.392409 
L 148.545164 128.516837 
L 150.964364 129.404704 
L 153.603491 130.122137 
L 156.242618 130.60495 
L 159.101673 130.904195 
L 162.620509 131.033836 
L 169.658182 131.208672 
L 172.517236 131.540632 
L 175.156364 132.060294 
L 177.575564 132.746606 
L 179.994764 133.655421 
L 182.413964 134.801911 
L 184.833164 136.194343 
L 187.252364 137.832663 
L 189.891491 139.888443 
L 192.750545 142.399156 
L 196.269382 145.806142 
L 207.045818 156.500402 
L 209.465018 158.460418 
L 211.664291 159.950075 
L 213.643636 161.00737 
L 215.403055 161.695144 
L 217.162473 162.126192 
L 218.482036 162.257841 
L 220.021527 162.249866 
L 221.121164 162.126192 
L 222.660655 161.763433 
L 224.420073 161.106752 
L 226.179491 160.209573 
L 228.158836 158.939309 
L 230.358109 157.24746 
L 232.997236 154.907548 
L 236.516073 151.442315 
L 245.533091 142.399156 
L 248.612073 139.706983 
L 251.2512 137.673747 
L 253.890327 135.922761 
L 256.309527 134.575305 
L 258.728727 133.472864 
L 261.147927 132.605814 
L 263.787055 131.909107 
L 266.426182 131.444354 
L 269.285236 131.160985 
L 272.804073 131.044129 
L 274.123636 131.04 
L 274.123636 131.04 
" clip-path="url(#pea954334ab)" style="fill: none; stroke: #d62728; stroke-width: 1.5; stroke-linecap: square"/>
   </g>
   <g id="patch_3">
    <path d="M 43.2 259.2 
L 43.2 2.88 
" style="fill: none; stroke: #000000; stroke-width: 0.8; stroke-linejoin: miter; stroke-linecap: square"/>
   </g>
   <g id="patch_4">
    <path d="M 285.12 259.2 
L 285.12 2.88 
" style="fill: none; stroke: #000000; stroke-width: 0.8; stroke-linejoin: miter; stroke-linecap: square"/>
   </g>
   <g id="patch_5">
    <path d="M 43.2 259.2 
L 285.12 259.2 
" style="fill: none; stroke: #000000; stroke-width: 0.8; stroke-linejoin: miter; stroke-linecap: square"/>
   </g>
   <g id="patch_6">
    <path d="M 43.2 2.88 
L 285.12 2.88 
" style="fill: none; stroke: #000000; stroke-width: 0.8; stroke-linejoin: miter; stroke-linecap: square"/>
   </g>
  </g>
 </g>
 <defs>
  <clipPath id="pea954334ab">
   <rect x="43.2" y="2.88" width="241.92" height="256.32"/>
  </clipPath>
 </defs>
</svg>
