<?xml version="1.0" encoding="utf-8" standalone="no"?>
<!DOCTYPE svg PUBLIC "-//W3C//DTD SVG 1.1//EN"
  "http://www.w3.org/Graphics/SVG/1.1/DTD/svg11.dtd">
<svg xmlns:xlink="http://www.w3.org/1999/xlink" width="432pt" height="288pt" viewBox="0 0 432 288" xmlns="http://www.w3.org/2000/svg" version="1.1">
 <metadata>
  <rdf:RDF xmlns:dc="http://purl.org/dc/elements/1.1/" xmlns:cc="http://creativecommons.org/ns#" xmlns:rdf="http://www.w3.org/1999/02/22-rdf-syntax-ns#">
   <cc:Work>
    <dc:type rdf:resource="http://purl.org/dc/dcmitype/StillImage"/>
    <dc:date>2023-11-24T12:59:54.692639</dc:date>
    <dc:format>image/svg+xml</dc:format>
    <dc:creator>
     <cc:Agent>
      <dc:title>Matplotlib v3.8.2, https://matplotlib.org/</dc:title>
     </cc:Agent>
    </dc:creator>
   </cc:Work>
  </rdf:RDF>
 </metadata>
 <defs>
  <style type="text/css">*{stroke-linejoin: round; stroke-linecap: butt}</style>
 </defs>
 <g id="figure_1">
  <g id="patch_1">
   <path d="M 0 288 
L 432 288 
L 432 0 
L 0 0 
z
" style="fill: #ffffff"/>
  </g>
  <g id="axes_1">
   <g id="patch_2">
    <path d="M 43.2 259.2 
L 427.68 259.2 
L 427.68 2.88 
L 43.2 2.88 
z
" style="fill: #ffffff"/>
   </g>
   <g id="matplotlib.axis_1">
    <g id="xtick_1">
     <g id="line2d_1">
      <path d="M 76.5216 259.2 
L 76.5216 2.88 
" clip-path="url(#pa5263275a4)" style="fill: none; stroke-dasharray: 0.8,1.32; stroke-dashoffset: 0; stroke: #b0b0b0; stroke-width: 0.8"/>
     </g>
     <g id="line2d_2">
      <defs>
       <path id="mf235667936" d="M 0 0 
L 0 -5 
" style="stroke: #000000"/>
      </defs>
      <g>
       <use xlink:href="#mf235667936" x="76.5216" y="259.2" style="stroke: #000000"/>
      </g>
     </g>
     <g id="line2d_3">
      <defs>
       <path id="m4b30d1fc53" d="M 0 0 
L 0 5 
" style="stroke: #000000"/>
      </defs>
      <g>
       <use xlink:href="#m4b30d1fc53" x="76.5216" y="2.88" style="stroke: #000000"/>
      </g>
     </g>
     <g id="text_1">
      <!-- $\theta_1$ -->
      <g transform="translate(66.969355 279.304405) scale(0.24 -0.24)">
       <defs>
        <path id="CMMI12-12" d="M 2835 3200 
C 2835 3850 2630 4480 2106 4480 
C 1210 4480 256 2615 256 1216 
C 256 923 320 -64 992 -64 
C 1862 -64 2835 1756 2835 3200 
z
M 896 2304 
C 992 2679 1126 3214 1382 3665 
C 1594 4047 1818 4352 2099 4352 
C 2310 4352 2451 4174 2451 3564 
C 2451 3334 2432 3017 2246 2304 
L 896 2304 
z
M 2202 2113 
C 2042 1490 1907 1088 1677 687 
C 1491 363 1267 64 998 64 
C 800 64 640 217 640 846 
C 640 1260 742 1693 845 2113 
L 2202 2113 
z
" transform="scale(0.015625)"/>
        <path id="CMR17-31" d="M 1702 4058 
C 1702 4192 1696 4192 1606 4192 
C 1357 3916 979 3827 621 3827 
C 602 3827 570 3827 563 3808 
C 557 3795 557 3782 557 3648 
C 755 3648 1088 3686 1344 3839 
L 1344 461 
C 1344 236 1331 160 781 160 
L 589 160 
L 589 0 
C 896 0 1216 0 1523 0 
C 1830 0 2150 0 2458 0 
L 2458 160 
L 2266 160 
C 1715 160 1702 230 1702 458 
L 1702 4058 
z
" transform="scale(0.015625)"/>
       </defs>
       <use xlink:href="#CMMI12-12" transform="scale(0.996264)"/>
       <use xlink:href="#CMR17-31" transform="translate(45.45979 -14.943915) scale(0.697382)"/>
      </g>
     </g>
    </g>
    <g id="xtick_2">
     <g id="line2d_4">
      <path d="M 275.538612 259.2 
L 275.538612 2.88 
" clip-path="url(#pa5263275a4)" style="fill: none; stroke-dasharray: 0.8,1.32; stroke-dashoffset: 0; stroke: #b0b0b0; stroke-width: 0.8"/>
     </g>
     <g id="line2d_5">
      <g>
       <use xlink:href="#mf235667936" x="275.538612" y="259.2" style="stroke: #000000"/>
      </g>
     </g>
     <g id="line2d_6">
      <g>
       <use xlink:href="#m4b30d1fc53" x="275.538612" y="2.88" style="stroke: #000000"/>
      </g>
     </g>
     <g id="text_2">
      <!-- $\theta_s$ -->
      <g transform="translate(266.223652 279.304405) scale(0.24 -0.24)">
       <defs>
        <path id="CMMI12-73" d="M 1459 1280 
C 1568 1261 1741 1223 1779 1216 
C 1862 1192 2150 1090 2150 783 
C 2150 586 1971 70 1229 70 
C 1094 70 614 70 486 436 
C 742 404 870 603 870 745 
C 870 880 781 950 653 950 
C 512 950 326 841 326 552 
C 326 173 710 -64 1222 -64 
C 2195 -64 2483 651 2483 984 
C 2483 1079 2483 1258 2278 1462 
C 2118 1616 1965 1648 1619 1718 
C 1446 1756 1171 1814 1171 2101 
C 1171 2229 1286 2689 1894 2689 
C 2163 2689 2426 2589 2490 2368 
C 2208 2368 2195 2125 2195 2119 
C 2195 1984 2317 1946 2374 1946 
C 2464 1946 2643 2015 2643 2281 
C 2643 2545 2400 2816 1901 2816 
C 1062 2816 838 2160 838 1899 
C 838 1414 1312 1312 1459 1280 
z
" transform="scale(0.015625)"/>
       </defs>
       <use xlink:href="#CMMI12-12" transform="scale(0.996264)"/>
       <use xlink:href="#CMMI12-73" transform="translate(45.45979 -14.943915) scale(0.697382)"/>
      </g>
     </g>
    </g>
    <g id="xtick_3">
     <g id="line2d_7">
      <path d="M 394.3584 259.2 
L 394.3584 2.88 
" clip-path="url(#pa5263275a4)" style="fill: none; stroke-dasharray: 0.8,1.32; stroke-dashoffset: 0; stroke: #b0b0b0; stroke-width: 0.8"/>
     </g>
     <g id="line2d_8">
      <g>
       <use xlink:href="#mf235667936" x="394.3584" y="259.2" style="stroke: #000000"/>
      </g>
     </g>
     <g id="line2d_9">
      <g>
       <use xlink:href="#m4b30d1fc53" x="394.3584" y="2.88" style="stroke: #000000"/>
      </g>
     </g>
     <g id="text_3">
      <!-- $\theta_2$ -->
      <g transform="translate(384.806155 279.304405) scale(0.24 -0.24)">
       <defs>
        <path id="CMR17-32" d="M 2669 989 
L 2554 989 
C 2490 536 2438 459 2413 420 
C 2381 369 1920 369 1830 369 
L 602 369 
C 832 619 1280 1072 1824 1597 
C 2214 1967 2669 2402 2669 3035 
C 2669 3790 2067 4224 1395 4224 
C 691 4224 262 3604 262 3030 
C 262 2780 448 2748 525 2748 
C 589 2748 781 2787 781 3010 
C 781 3207 614 3264 525 3264 
C 486 3264 448 3258 422 3245 
C 544 3790 915 4058 1306 4058 
C 1862 4058 2227 3617 2227 3035 
C 2227 2479 1901 2000 1536 1584 
L 262 146 
L 262 0 
L 2515 0 
L 2669 989 
z
" transform="scale(0.015625)"/>
       </defs>
       <use xlink:href="#CMMI12-12" transform="scale(0.996264)"/>
       <use xlink:href="#CMR17-32" transform="translate(45.45979 -14.943915) scale(0.697382)"/>
      </g>
     </g>
    </g>
   </g>
   <g id="matplotlib.axis_2">
    <g id="ytick_1">
     <g id="line2d_10">
      <path d="M 43.2 224.082151 
L 427.68 224.082151 
" clip-path="url(#pa5263275a4)" style="fill: none; stroke-dasharray: 0.8,1.32; stroke-dashoffset: 0; stroke: #b0b0b0; stroke-width: 0.8"/>
     </g>
     <g id="line2d_11">
      <defs>
       <path id="m40aa166915" d="M 0 0 
L 5 0 
" style="stroke: #000000"/>
      </defs>
      <g>
       <use xlink:href="#m40aa166915" x="43.2" y="224.082151" style="stroke: #000000"/>
      </g>
     </g>
     <g id="line2d_12">
      <defs>
       <path id="m76834b609a" d="M 0 0 
L -5 0 
" style="stroke: #000000"/>
      </defs>
      <g>
       <use xlink:href="#m76834b609a" x="427.68" y="224.082151" style="stroke: #000000"/>
      </g>
     </g>
     <g id="text_4">
      <!-- $\dot{\theta}_1$ -->
      <g transform="translate(20.59551 234.547985) scale(0.24 -0.24)">
       <defs>
        <path id="CMR17-5f" d="M 1056 3909 
C 1056 4062 934 4170 800 4170 
C 646 4170 538 4049 538 3909 
C 538 3756 659 3648 794 3648 
C 947 3648 1056 3769 1056 3909 
z
" transform="scale(0.015625)"/>
       </defs>
       <use xlink:href="#CMR17-5f" transform="translate(19.778385 26.296621) scale(0.996264)"/>
       <use xlink:href="#CMMI12-12" transform="scale(0.996264)"/>
       <use xlink:href="#CMR17-31" transform="translate(45.45979 -14.943915) scale(0.697382)"/>
      </g>
     </g>
    </g>
    <g id="ytick_2">
     <g id="line2d_13">
      <path d="M 43.2 122.710635 
L 427.68 122.710635 
" clip-path="url(#pa5263275a4)" style="fill: none; stroke-dasharray: 0.8,1.32; stroke-dashoffset: 0; stroke: #b0b0b0; stroke-width: 0.8"/>
     </g>
     <g id="line2d_14">
      <g>
       <use xlink:href="#m40aa166915" x="43.2" y="122.710635" style="stroke: #000000"/>
      </g>
     </g>
     <g id="line2d_15">
      <g>
       <use xlink:href="#m76834b609a" x="427.68" y="122.710635" style="stroke: #000000"/>
      </g>
     </g>
     <g id="text_5">
      <!-- $\dot{\theta}_s$ -->
      <g transform="translate(21.070079 133.17647) scale(0.24 -0.24)">
       <use xlink:href="#CMR17-5f" transform="translate(19.778385 26.296621) scale(0.996264)"/>
       <use xlink:href="#CMMI12-12" transform="scale(0.996264)"/>
       <use xlink:href="#CMMI12-73" transform="translate(45.45979 -14.943915) scale(0.697382)"/>
      </g>
     </g>
    </g>
    <g id="ytick_3">
     <g id="line2d_16">
      <path d="M 43.2 57.896977 
L 427.68 57.896977 
" clip-path="url(#pa5263275a4)" style="fill: none; stroke-dasharray: 0.8,1.32; stroke-dashoffset: 0; stroke: #b0b0b0; stroke-width: 0.8"/>
     </g>
     <g id="line2d_17">
      <g>
       <use xlink:href="#m40aa166915" x="43.2" y="57.896977" style="stroke: #000000"/>
      </g>
     </g>
     <g id="line2d_18">
      <g>
       <use xlink:href="#m76834b609a" x="427.68" y="57.896977" style="stroke: #000000"/>
      </g>
     </g>
     <g id="text_6">
      <!-- $\dot{\theta}_2$ -->
      <g transform="translate(20.59551 68.362811) scale(0.24 -0.24)">
       <use xlink:href="#CMR17-5f" transform="translate(19.778385 26.296621) scale(0.996264)"/>
       <use xlink:href="#CMMI12-12" transform="scale(0.996264)"/>
       <use xlink:href="#CMR17-32" transform="translate(45.45979 -14.943915) scale(0.697382)"/>
      </g>
     </g>
    </g>
   </g>
   <g id="line2d_19">
    <path d="M 59.212883 289 
L 61.1424 285.832119 
L 63.7056 281.662316 
L 66.2688 277.530457 
L 68.832 273.436233 
L 71.3952 269.37952 
L 73.9584 265.360355 
L 76.5216 261.378924 
L 79.0848 257.435545 
L 81.648 253.530655 
L 84.2112 249.664799 
L 86.7744 245.838619 
L 89.3376 242.052844 
L 91.9008 238.308284 
L 94.464 234.605818 
L 97.0272 230.94639 
L 99.5904 227.330999 
L 102.1536 223.760696 
L 104.7168 220.236576 
L 107.28 216.759769 
L 109.8432 213.33144 
L 112.4064 209.952779 
L 114.9696 206.625 
L 117.5328 203.349329 
L 120.096 200.127005 
L 122.6592 196.959271 
L 125.2224 193.847373 
L 127.7856 190.792549 
L 130.3488 187.796029 
L 132.912 184.859029 
L 135.4752 181.982744 
L 138.0384 179.168345 
L 140.6016 176.416973 
L 143.1648 173.729734 
L 145.728 171.107696 
L 148.2912 168.551881 
L 150.8544 166.063264 
L 153.4176 163.642764 
L 155.9808 161.291241 
L 158.544 159.009493 
L 161.1072 156.798249 
L 163.6704 154.658165 
L 166.2336 152.589822 
L 168.7968 150.593716 
L 171.36 148.67026 
L 173.9232 146.819777 
L 176.4864 145.042494 
L 179.0496 143.338543 
L 181.6128 141.707954 
L 184.176 140.150652 
L 186.7392 138.666454 
L 189.3024 137.255069 
L 191.8656 135.916091 
L 194.4288 134.648997 
L 196.992 133.453149 
L 199.5552 132.327788 
L 202.1184 131.272035 
L 204.6816 130.284889 
L 207.2448 129.365224 
L 209.808 128.511794 
L 212.3712 127.723227 
L 214.9344 126.99803 
L 217.4976 126.334584 
L 220.0608 125.731154 
L 222.624 125.185879 
L 225.1872 124.696785 
L 227.7504 124.261779 
L 230.3136 123.878654 
L 232.8768 123.545094 
L 235.44 123.258673 
L 238.0032 123.016861 
L 240.5664 122.817027 
L 243.1296 122.656442 
L 245.6928 122.532282 
L 248.256 122.441632 
L 250.8192 122.381488 
L 253.3824 122.348762 
L 255.9456 122.340277 
L 258.5088 122.352773 
L 261.072 122.382899 
L 263.6352 122.427209 
L 266.1984 122.482142 
L 268.7616 122.543999 
L 271.3248 122.608882 
L 272.975412 122.650295 
L 275.538612 122.710635 
" clip-path="url(#pa5263275a4)" style="fill: none; stroke: #00008b; stroke-opacity: 0.3; stroke-linecap: square"/>
   </g>
   <g id="line2d_20">
    <path d="M 43.2 259.2 
L 45.7632 256.54277 
L 48.3264 253.872475 
L 50.8896 251.190642 
L 53.4528 248.498808 
L 56.016 245.798527 
L 58.5792 243.091359 
L 61.1424 240.378882 
L 63.7056 237.662682 
L 66.2688 234.944357 
L 68.832 232.225517 
L 71.3952 229.507781 
L 73.9584 226.792779 
L 76.5216 224.082151 
L 79.0848 221.377543 
L 81.648 218.680611 
L 84.2112 215.993017 
L 86.7744 213.316427 
L 89.3376 210.652512 
L 91.9008 208.002948 
L 94.464 205.369409 
L 97.0272 202.753572 
L 99.5904 200.15711 
L 102.1536 197.581694 
L 104.7168 195.028988 
L 107.28 192.50065 
L 109.8432 189.998327 
L 112.4064 187.523656 
L 114.9696 185.078256 
L 117.5328 182.663733 
L 120.096 180.281671 
L 122.6592 177.933633 
L 125.2224 175.621157 
L 127.7856 173.345751 
L 130.3488 171.108894 
L 132.912 168.912032 
L 135.4752 166.75657 
L 138.0384 164.643877 
L 140.6016 162.575274 
L 143.1648 160.552038 
L 145.728 158.575394 
L 148.2912 156.646513 
L 150.8544 154.76651 
L 153.4176 152.936438 
L 155.9808 151.157287 
L 158.544 149.429977 
L 161.1072 147.755359 
L 163.6704 146.13421 
L 166.2336 144.567228 
L 168.7968 143.055032 
L 171.36 141.598155 
L 173.9232 140.197045 
L 176.4864 138.85206 
L 179.0496 137.563465 
L 181.6128 136.331431 
L 184.176 135.156031 
L 186.7392 134.037239 
L 189.3024 132.974928 
L 191.8656 131.968866 
L 194.4288 131.01872 
L 196.992 130.124047 
L 199.5552 129.2843 
L 202.1184 128.498824 
L 204.6816 127.766855 
L 207.2448 127.087521 
L 209.808 126.459843 
L 212.3712 125.882735 
L 214.9344 125.355002 
L 217.4976 124.875347 
L 220.0608 124.442367 
L 222.624 124.054556 
L 225.1872 123.71031 
L 227.7504 123.407925 
L 230.3136 123.145604 
L 232.8768 122.921457 
L 235.44 122.733504 
L 238.0032 122.57968 
L 240.5664 122.457838 
L 243.1296 122.365751 
L 245.6928 122.301116 
L 248.256 122.261558 
L 250.8192 122.244633 
L 253.3824 122.247828 
L 255.9456 122.268565 
L 258.5088 122.304198 
L 261.072 122.352015 
L 263.6352 122.409226 
L 266.1984 122.472955 
L 268.7616 122.540212 
L 271.3248 122.607851 
L 272.975412 122.650029 
L 275.538612 122.710635 
" clip-path="url(#pa5263275a4)" style="fill: none; stroke: #00008b; stroke-opacity: 0.3; stroke-linecap: square"/>
   </g>
   <g id="line2d_21">
    <path d="M 43.2 202.24 
L 45.7632 200.749312 
L 48.3264 199.244992 
L 50.8896 197.727932 
L 53.4528 196.199049 
L 56.016 194.659291 
L 58.5792 193.109629 
L 61.1424 191.551063 
L 63.7056 189.984615 
L 66.2688 188.411332 
L 68.832 186.832286 
L 71.3952 185.248568 
L 73.9584 183.661291 
L 76.5216 182.071589 
L 79.0848 180.480612 
L 81.648 178.889529 
L 84.2112 177.299522 
L 86.7744 175.711791 
L 89.3376 174.127546 
L 91.9008 172.548006 
L 94.464 170.974404 
L 97.0272 169.407976 
L 99.5904 167.849966 
L 102.1536 166.301619 
L 104.7168 164.764185 
L 107.28 163.238911 
L 109.8432 161.727041 
L 112.4064 160.229814 
L 114.9696 158.748463 
L 117.5328 157.284211 
L 120.096 155.838266 
L 122.6592 154.411824 
L 125.2224 153.006064 
L 127.7856 151.622144 
L 130.3488 150.261198 
L 132.912 148.924337 
L 135.4752 147.612643 
L 138.0384 146.327168 
L 140.6016 145.068929 
L 143.1648 143.838909 
L 145.728 142.638048 
L 148.2912 141.467249 
L 150.8544 140.327366 
L 153.4176 139.219208 
L 155.9808 138.143534 
L 158.544 137.101048 
L 161.1072 136.092402 
L 163.6704 135.118187 
L 166.2336 134.178935 
L 168.7968 133.275116 
L 171.36 132.407134 
L 173.9232 131.575326 
L 176.4864 130.779961 
L 179.0496 130.021235 
L 181.6128 129.299274 
L 184.176 128.614127 
L 186.7392 127.96577 
L 189.3024 127.354102 
L 191.8656 126.778942 
L 194.4288 126.240034 
L 196.992 125.73704 
L 199.5552 125.269546 
L 202.1184 124.837055 
L 204.6816 124.438993 
L 207.2448 124.074708 
L 209.808 123.743469 
L 212.3712 123.444468 
L 214.9344 123.17682 
L 217.4976 122.939567 
L 220.0608 122.731678 
L 222.624 122.55205 
L 225.1872 122.399512 
L 227.7504 122.272825 
L 230.3136 122.170689 
L 232.8768 122.091739 
L 235.44 122.034554 
L 238.0032 121.997656 
L 240.5664 121.979516 
L 243.1296 121.978553 
L 245.6928 121.993141 
L 248.256 122.021609 
L 250.8192 122.062245 
L 253.3824 122.113296 
L 255.9456 122.172972 
L 258.5088 122.239444 
L 261.072 122.310842 
L 263.6352 122.385251 
L 266.1984 122.460705 
L 268.7616 122.535164 
L 271.3248 122.606475 
L 272.975412 122.649674 
L 275.538612 122.710635 
" clip-path="url(#pa5263275a4)" style="fill: none; stroke: #00008b; stroke-opacity: 0.3; stroke-linecap: square"/>
   </g>
   <g id="line2d_22">
    <path d="M 43.2 145.28 
L 45.7632 144.656212 
L 48.3264 144.031167 
L 50.8896 143.405254 
L 53.4528 142.778867 
L 56.016 142.152417 
L 58.5792 141.526319 
L 61.1424 140.901003 
L 63.7056 140.276905 
L 66.2688 139.654471 
L 68.832 139.034154 
L 71.3952 138.416416 
L 73.9584 137.801727 
L 76.5216 137.190561 
L 79.0848 136.583399 
L 81.648 135.980728 
L 84.2112 135.383036 
L 86.7744 134.790819 
L 89.3376 134.204571 
L 91.9008 133.62479 
L 94.464 133.051974 
L 97.0272 132.486621 
L 99.5904 131.929226 
L 102.1536 131.380284 
L 104.7168 130.840282 
L 107.28 130.309706 
L 109.8432 129.789035 
L 112.4064 129.278738 
L 114.9696 128.779279 
L 117.5328 128.291109 
L 120.096 127.81467 
L 122.6592 127.350389 
L 125.2224 126.89868 
L 127.7856 126.459943 
L 130.3488 126.03456 
L 132.912 125.622893 
L 135.4752 125.225288 
L 138.0384 124.842067 
L 140.6016 124.473532 
L 143.1648 124.11996 
L 145.728 123.781604 
L 148.2912 123.458691 
L 150.8544 123.15142 
L 153.4176 122.859961 
L 155.9808 122.584455 
L 158.544 122.325014 
L 161.1072 122.081716 
L 163.6704 121.854607 
L 166.2336 121.6437 
L 168.7968 121.448974 
L 171.36 121.270373 
L 173.9232 121.107805 
L 176.4864 120.961143 
L 179.0496 120.830225 
L 181.6128 120.714851 
L 184.176 120.614784 
L 186.7392 120.529754 
L 189.3024 120.459451 
L 191.8656 120.403531 
L 194.4288 120.361616 
L 196.992 120.333291 
L 199.5552 120.318108 
L 202.1184 120.315584 
L 204.6816 120.325208 
L 207.2448 120.346432 
L 209.808 120.378684 
L 212.3712 120.421358 
L 214.9344 120.473826 
L 217.4976 120.535431 
L 220.0608 120.605494 
L 222.624 120.683313 
L 225.1872 120.768167 
L 227.7504 120.859316 
L 230.3136 120.956003 
L 232.8768 121.05746 
L 235.44 121.162902 
L 238.0032 121.271538 
L 240.5664 121.382567 
L 243.1296 121.495181 
L 245.6928 121.608568 
L 248.256 121.721913 
L 250.8192 121.834399 
L 253.3824 121.945207 
L 255.9456 122.05352 
L 258.5088 122.158518 
L 261.072 122.259381 
L 263.6352 122.355285 
L 266.1984 122.445394 
L 268.7616 122.528855 
L 271.3248 122.604756 
L 272.975412 122.64923 
L 275.538612 122.710635 
" clip-path="url(#pa5263275a4)" style="fill: none; stroke: #00008b; stroke-opacity: 0.3; stroke-linecap: square"/>
   </g>
   <g id="line2d_23">
    <path d="M 43.2 88.32 
L 45.7632 88.399666 
L 48.3264 88.493354 
L 50.8896 88.601232 
L 53.4528 88.723455 
L 56.016 88.860165 
L 58.5792 89.01149 
L 61.1424 89.177547 
L 63.7056 89.358433 
L 66.2688 89.554232 
L 68.832 89.76501 
L 71.3952 89.990815 
L 73.9584 90.231678 
L 76.5216 90.487608 
L 79.0848 90.758594 
L 81.648 91.044607 
L 84.2112 91.345591 
L 86.7744 91.661471 
L 89.3376 91.992145 
L 91.9008 92.33749 
L 94.464 92.697356 
L 97.0272 93.071567 
L 99.5904 93.459921 
L 102.1536 93.862188 
L 104.7168 94.278113 
L 107.28 94.70741 
L 109.8432 95.149766 
L 112.4064 95.604839 
L 114.9696 96.072257 
L 117.5328 96.55162 
L 120.096 97.042499 
L 122.6592 97.544433 
L 125.2224 98.056936 
L 127.7856 98.57949 
L 130.3488 99.111549 
L 132.912 99.65254 
L 135.4752 100.20186 
L 138.0384 100.758882 
L 140.6016 101.322952 
L 143.1648 101.893391 
L 145.728 102.469495 
L 148.2912 103.05054 
L 150.8544 103.635778 
L 153.4176 104.224444 
L 155.9808 104.815753 
L 158.544 105.408906 
L 161.1072 106.003088 
L 163.6704 106.597474 
L 166.2336 107.191227 
L 168.7968 107.783505 
L 171.36 108.373459 
L 173.9232 108.960239 
L 176.4864 109.542997 
L 179.0496 110.120884 
L 181.6128 110.69306 
L 184.176 111.258695 
L 186.7392 111.816967 
L 189.3024 112.367073 
L 191.8656 112.908225 
L 194.4288 113.439657 
L 196.992 113.960627 
L 199.5552 114.470421 
L 202.1184 114.968351 
L 204.6816 115.453766 
L 207.2448 115.926047 
L 209.808 116.384614 
L 212.3712 116.828927 
L 214.9344 117.258489 
L 217.4976 117.672848 
L 220.0608 118.071598 
L 222.624 118.454382 
L 225.1872 118.820893 
L 227.7504 119.170875 
L 230.3136 119.504125 
L 232.8768 119.820493 
L 235.44 120.119884 
L 238.0032 120.402255 
L 240.5664 120.667621 
L 243.1296 120.916049 
L 245.6928 121.14766 
L 248.256 121.36263 
L 250.8192 121.561187 
L 253.3824 121.743612 
L 255.9456 121.910234 
L 258.5088 122.061433 
L 261.072 122.19764 
L 263.6352 122.319328 
L 266.1984 122.427021 
L 268.7616 122.521283 
L 271.3248 122.602693 
L 272.975412 122.648697 
L 275.538612 122.710635 
" clip-path="url(#pa5263275a4)" style="fill: none; stroke: #00008b; stroke-opacity: 0.3; stroke-linecap: square"/>
   </g>
   <g id="line2d_24">
    <path d="M 43.2 31.36 
L 45.7632 32.044344 
L 48.3264 32.758308 
L 50.8896 33.50201 
L 53.4528 34.275535 
L 56.016 35.078935 
L 58.5792 35.912229 
L 61.1424 36.7754 
L 63.7056 37.668394 
L 66.2688 38.591115 
L 68.832 39.543429 
L 71.3952 40.525158 
L 73.9584 41.536079 
L 76.5216 42.575925 
L 79.0848 43.644378 
L 81.648 44.741073 
L 84.2112 45.865593 
L 86.7744 47.01747 
L 89.3376 48.19618 
L 91.9008 49.401145 
L 94.464 50.63173 
L 97.0272 51.887242 
L 99.5904 53.16693 
L 102.1536 54.469983 
L 104.7168 55.795529 
L 107.28 57.142635 
L 109.8432 58.510307 
L 112.4064 59.897488 
L 114.9696 61.303059 
L 117.5328 62.72584 
L 120.096 64.16459 
L 122.6592 65.618006 
L 125.2224 67.084724 
L 127.7856 68.563324 
L 130.3488 70.052327 
L 132.912 71.550197 
L 135.4752 73.055348 
L 138.0384 74.566141 
L 140.6016 76.080887 
L 143.1648 77.597856 
L 145.728 79.115274 
L 148.2912 80.631329 
L 150.8544 82.144176 
L 153.4176 83.651942 
L 155.9808 85.15273 
L 158.544 86.644625 
L 161.1072 88.125696 
L 163.6704 89.594011 
L 166.2336 91.047633 
L 168.7968 92.484634 
L 171.36 93.9031 
L 173.9232 95.301136 
L 176.4864 96.676875 
L 179.0496 98.028488 
L 181.6128 99.354189 
L 184.176 100.652243 
L 186.7392 101.920974 
L 189.3024 103.158774 
L 191.8656 104.364111 
L 194.4288 105.535535 
L 196.992 106.671686 
L 199.5552 107.771304 
L 202.1184 108.83323 
L 204.6816 109.85642 
L 207.2448 110.839946 
L 209.808 111.783002 
L 212.3712 112.684913 
L 214.9344 113.545133 
L 217.4976 114.363256 
L 220.0608 115.139016 
L 222.624 115.872286 
L 225.1872 116.563087 
L 227.7504 117.211583 
L 230.3136 117.818086 
L 232.8768 118.38305 
L 235.44 118.907077 
L 238.0032 119.390907 
L 240.5664 119.835424 
L 243.1296 120.241647 
L 245.6928 120.610728 
L 248.256 120.94395 
L 250.8192 121.24272 
L 253.3824 121.508569 
L 255.9456 121.743143 
L 258.5088 121.948203 
L 261.072 122.125622 
L 263.6352 122.277384 
L 266.1984 122.405588 
L 268.7616 122.512449 
L 271.3248 122.600286 
L 272.975412 122.648076 
L 275.538612 122.710635 
" clip-path="url(#pa5263275a4)" style="fill: none; stroke: #00008b; stroke-opacity: 0.3; stroke-linecap: square"/>
   </g>
   <g id="line2d_25">
    <path d="M 83.707296 -1 
L 84.2112 -0.628527 
L 86.7744 1.302248 
L 89.3376 3.273429 
L 91.9008 5.284127 
L 94.464 7.333368 
L 97.0272 9.420088 
L 99.5904 11.54313 
L 102.1536 13.701246 
L 104.7168 15.893092 
L 107.28 18.117227 
L 109.8432 20.372113 
L 112.4064 22.656113 
L 114.9696 24.967491 
L 117.5328 27.30441 
L 120.096 29.664932 
L 122.6592 32.047021 
L 125.2224 34.448542 
L 127.7856 36.86726 
L 130.3488 39.300845 
L 132.912 41.746871 
L 135.4752 44.202822 
L 138.0384 46.666091 
L 140.6016 49.133989 
L 143.1648 51.603744 
L 145.728 54.072508 
L 148.2912 56.537365 
L 150.8544 58.995334 
L 153.4176 61.443378 
L 155.9808 63.878411 
L 158.544 66.297308 
L 161.1072 68.696912 
L 163.6704 71.074045 
L 166.2336 73.425519 
L 168.7968 75.748147 
L 171.36 78.038757 
L 173.9232 80.294202 
L 176.4864 82.511372 
L 179.0496 84.687214 
L 181.6128 86.818739 
L 184.176 88.903042 
L 186.7392 90.937313 
L 189.3024 92.918855 
L 191.8656 94.845096 
L 194.4288 96.713607 
L 196.992 98.522113 
L 199.5552 100.268512 
L 202.1184 101.950883 
L 204.6816 103.567506 
L 207.2448 105.116868 
L 209.808 106.597678 
L 212.3712 108.008877 
L 214.9344 109.349645 
L 217.4976 110.619411 
L 220.0608 111.817862 
L 222.624 112.944939 
L 225.1872 114.000852 
L 227.7504 114.986074 
L 230.3136 115.901342 
L 232.8768 116.74766 
L 235.44 117.526293 
L 238.0032 118.238761 
L 240.5664 118.886838 
L 243.1296 119.472544 
L 245.6928 119.998134 
L 248.256 120.466092 
L 250.8192 120.879126 
L 253.3824 121.240149 
L 255.9456 121.552284 
L 258.5088 121.818843 
L 261.072 122.043335 
L 263.6352 122.229455 
L 266.1984 122.381094 
L 268.7616 122.502354 
L 271.3248 122.597536 
L 272.975412 122.647366 
L 275.538612 122.710635 
" clip-path="url(#pa5263275a4)" style="fill: none; stroke: #00008b; stroke-opacity: 0.3; stroke-linecap: square"/>
   </g>
   <g id="line2d_26">
    <path d="M 124.059053 -1 
L 125.2224 0.503922 
L 127.7856 3.842454 
L 130.3488 7.202858 
L 132.912 10.581924 
L 135.4752 13.976307 
L 138.0384 17.382526 
L 140.6016 20.796972 
L 143.1648 24.215909 
L 145.728 27.63548 
L 148.2912 31.051716 
L 150.8544 34.460537 
L 153.4176 37.857769 
L 155.9808 41.239146 
L 158.544 44.600324 
L 161.1072 47.93689 
L 163.6704 51.244382 
L 166.2336 54.518293 
L 168.7968 57.754095 
L 171.36 60.947252 
L 173.9232 64.093237 
L 176.4864 67.187554 
L 179.0496 70.225755 
L 181.6128 73.203465 
L 184.176 76.116399 
L 186.7392 78.960389 
L 189.3024 81.731406 
L 191.8656 84.425586 
L 194.4288 87.039248 
L 196.992 89.568928 
L 199.5552 92.011392 
L 202.1184 94.36367 
L 204.6816 96.623071 
L 207.2448 98.78721 
L 209.808 100.854025 
L 212.3712 102.821798 
L 214.9344 104.689172 
L 217.4976 106.455165 
L 220.0608 108.119183 
L 222.624 109.681033 
L 225.1872 111.140925 
L 227.7504 112.499483 
L 230.3136 113.757742 
L 232.8768 114.91715 
L 235.44 115.979563 
L 238.0032 116.947241 
L 240.5664 117.822836 
L 243.1296 118.609384 
L 245.6928 119.310288 
L 248.256 119.929309 
L 250.8192 120.470549 
L 253.3824 120.938432 
L 255.9456 121.337696 
L 258.5088 121.673373 
L 261.072 121.950786 
L 263.6352 122.175542 
L 266.1984 122.353541 
L 268.7616 122.490998 
L 271.3248 122.594441 
L 272.975412 122.646567 
L 275.538612 122.710635 
" clip-path="url(#pa5263275a4)" style="fill: none; stroke: #00008b; stroke-opacity: 0.3; stroke-linecap: square"/>
   </g>
   <g id="line2d_27">
    <path d="M 418.207557 289 
L 417.4272 286.886425 
L 414.864 280.155808 
L 412.3008 273.620455 
L 409.7376 267.267051 
L 407.1744 261.084785 
L 404.6112 255.064853 
L 402.048 249.200091 
L 399.4848 243.484673 
L 396.9216 237.913887 
L 394.3584 232.48395 
L 391.7952 227.191859 
L 389.232 222.035269 
L 386.6688 217.012392 
L 384.1056 212.121914 
L 381.5424 207.362919 
L 378.9792 202.73483 
L 376.416 198.237356 
L 373.8528 193.870442 
L 371.2896 189.63423 
L 368.7264 185.529018 
L 366.1632 181.555229 
L 363.6 177.713377 
L 361.0368 174.004039 
L 358.4736 170.427827 
L 355.9104 166.985364 
L 353.3472 163.677255 
L 350.784 160.504068 
L 348.2208 157.466305 
L 345.6576 154.564385 
L 343.0944 151.798618 
L 340.5312 149.169183 
L 337.968 146.676107 
L 335.4048 144.319241 
L 332.8416 142.098237 
L 330.2784 140.01253 
L 327.7152 138.061308 
L 325.152 136.243494 
L 322.5888 134.557718 
L 320.0256 133.002295 
L 317.4624 131.5752 
L 314.8992 130.274036 
L 312.336 129.096015 
L 309.7728 128.037922 
L 307.2096 127.096089 
L 304.6464 126.266363 
L 302.0832 125.544066 
L 299.52 124.923967 
L 296.9568 124.400229 
L 294.3936 123.966373 
L 291.8304 123.615213 
L 289.2672 123.338794 
L 286.704 123.128305 
L 284.1408 122.973961 
L 281.5776 122.864837 
L 279.0144 122.788718 
L 278.101812 122.766609 
L 275.538612 122.710635 
" clip-path="url(#pa5263275a4)" style="fill: none; stroke: #8b0000; stroke-opacity: 0.3; stroke-linecap: square"/>
   </g>
   <g id="line2d_28">
    <path d="M 427.68 259.2 
L 425.1168 254.734269 
L 422.5536 250.313961 
L 419.9904 245.940237 
L 417.4272 241.614393 
L 414.864 237.337848 
L 412.3008 233.112131 
L 409.7376 228.93887 
L 407.1744 224.819784 
L 404.6112 220.756671 
L 402.048 216.751401 
L 399.4848 212.805907 
L 396.9216 208.922175 
L 394.3584 205.102237 
L 391.7952 201.348162 
L 389.232 197.662049 
L 386.6688 194.046019 
L 384.1056 190.502203 
L 381.5424 187.032737 
L 378.9792 183.639755 
L 376.416 180.325374 
L 373.8528 177.091692 
L 371.2896 173.940774 
L 368.7264 170.874644 
L 366.1632 167.895275 
L 363.6 165.004579 
L 361.0368 162.204399 
L 358.4736 159.496492 
L 355.9104 156.882524 
L 353.3472 154.364056 
L 350.784 151.942532 
L 348.2208 149.619266 
L 345.6576 147.395433 
L 343.0944 145.272051 
L 340.5312 143.249969 
L 337.968 141.329857 
L 335.4048 139.512186 
L 332.8416 137.797216 
L 330.2784 136.18498 
L 327.7152 134.67527 
L 325.152 133.267617 
L 322.5888 131.961278 
L 320.0256 130.755215 
L 317.4624 129.648081 
L 314.8992 128.638196 
L 312.336 127.723532 
L 309.7728 126.901689 
L 307.2096 126.169877 
L 304.6464 125.524888 
L 302.0832 124.963076 
L 299.52 124.480326 
L 296.9568 124.072026 
L 294.3936 123.733031 
L 291.8304 123.457624 
L 289.2672 123.239463 
L 286.704 123.07152 
L 284.1408 122.945989 
L 281.5776 122.854156 
L 279.0144 122.786278 
L 278.101812 122.765549 
L 275.538612 122.710635 
" clip-path="url(#pa5263275a4)" style="fill: none; stroke: #8b0000; stroke-opacity: 0.3; stroke-linecap: square"/>
   </g>
   <g id="line2d_29">
    <path d="M 427.68 202.24 
L 425.1168 199.931662 
L 422.5536 197.620297 
L 419.9904 195.308124 
L 417.4272 192.997385 
L 414.864 190.690343 
L 412.3008 188.389282 
L 409.7376 186.096501 
L 407.1744 183.814312 
L 404.6112 181.545039 
L 402.048 179.291011 
L 399.4848 177.054562 
L 396.9216 174.838025 
L 394.3584 172.643729 
L 391.7952 170.473994 
L 389.232 168.331131 
L 386.6688 166.217429 
L 384.1056 164.135161 
L 381.5424 162.086569 
L 378.9792 160.073865 
L 376.416 158.099224 
L 373.8528 156.164778 
L 371.2896 154.272609 
L 368.7264 152.424745 
L 366.1632 150.623152 
L 363.6 148.869729 
L 361.0368 147.166296 
L 358.4736 145.514595 
L 355.9104 143.916274 
L 353.3472 142.372886 
L 350.784 140.885876 
L 348.2208 139.456576 
L 345.6576 138.086195 
L 343.0944 136.775811 
L 340.5312 135.526359 
L 337.968 134.338627 
L 335.4048 133.213244 
L 332.8416 132.150667 
L 330.2784 131.151177 
L 327.7152 130.214865 
L 325.152 129.341622 
L 322.5888 128.531132 
L 320.0256 127.782853 
L 317.4624 127.096017 
L 314.8992 126.46961 
L 312.336 125.902363 
L 309.7728 125.39274 
L 307.2096 124.938927 
L 304.6464 124.538816 
L 302.0832 124.189993 
L 299.52 123.88972 
L 296.9568 123.634922 
L 294.3936 123.422161 
L 291.8304 123.247621 
L 289.2672 123.107068 
L 286.704 122.995822 
L 284.1408 122.908695 
L 281.5776 122.839915 
L 279.0144 122.783024 
L 278.101812 122.764135 
L 275.538612 122.710635 
" clip-path="url(#pa5263275a4)" style="fill: none; stroke: #8b0000; stroke-opacity: 0.3; stroke-linecap: square"/>
   </g>
   <g id="line2d_30">
    <path d="M 427.68 145.28 
L 425.1168 144.604225 
L 422.5536 143.927797 
L 419.9904 143.251368 
L 417.4272 142.575609 
L 414.864 141.901203 
L 412.3008 141.228847 
L 409.7376 140.55925 
L 407.1744 139.893132 
L 404.6112 139.23122 
L 402.048 138.574251 
L 399.4848 137.922966 
L 396.9216 137.278109 
L 394.3584 136.64043 
L 391.7952 136.010674 
L 389.232 135.389586 
L 386.6688 134.777907 
L 384.1056 134.17637 
L 381.5424 133.585699 
L 378.9792 133.006606 
L 376.416 132.43979 
L 373.8528 131.88593 
L 371.2896 131.345687 
L 368.7264 130.819696 
L 366.1632 130.30857 
L 363.6 129.812889 
L 361.0368 129.333202 
L 358.4736 128.870023 
L 355.9104 128.423827 
L 353.3472 127.995045 
L 350.784 127.584064 
L 348.2208 127.191221 
L 345.6576 126.816802 
L 343.0944 126.461037 
L 340.5312 126.124096 
L 337.968 125.806087 
L 335.4048 125.507051 
L 332.8416 125.226963 
L 330.2784 124.965722 
L 327.7152 124.723154 
L 325.152 124.499007 
L 322.5888 124.292944 
L 320.0256 124.104546 
L 317.4624 123.933308 
L 314.8992 123.778631 
L 312.336 123.639827 
L 309.7728 123.51611 
L 307.2096 123.406597 
L 304.6464 123.310304 
L 302.0832 123.226145 
L 299.52 123.152925 
L 296.9568 123.089342 
L 294.3936 123.033979 
L 291.8304 122.985301 
L 289.2672 122.941647 
L 286.704 122.901223 
L 284.1408 122.862085 
L 281.5776 122.822115 
L 279.0144 122.778957 
L 278.101812 122.762368 
L 275.538612 122.710635 
" clip-path="url(#pa5263275a4)" style="fill: none; stroke: #8b0000; stroke-opacity: 0.3; stroke-linecap: square"/>
   </g>
   <g id="line2d_31">
    <path d="M 427.68 88.32 
L 425.1168 88.987596 
L 422.5536 89.672352 
L 419.9904 90.373752 
L 417.4272 91.091233 
L 414.864 91.824178 
L 412.3008 92.571922 
L 409.7376 93.333742 
L 407.1744 94.108866 
L 404.6112 94.896464 
L 402.048 95.695654 
L 399.4848 96.505496 
L 396.9216 97.324999 
L 394.3584 98.153113 
L 391.7952 98.988737 
L 389.232 99.830714 
L 386.6688 100.677837 
L 384.1056 101.528847 
L 381.5424 102.382435 
L 378.9792 103.237246 
L 376.416 104.091881 
L 373.8528 104.944897 
L 371.2896 105.794815 
L 368.7264 106.640121 
L 366.1632 107.479268 
L 363.6 108.310686 
L 361.0368 109.132784 
L 358.4736 109.943955 
L 355.9104 110.742584 
L 353.3472 111.527051 
L 350.784 112.295742 
L 348.2208 113.047055 
L 345.6576 113.779408 
L 343.0944 114.491244 
L 340.5312 115.181045 
L 337.968 115.847337 
L 335.4048 116.488702 
L 332.8416 117.103785 
L 330.2784 117.691304 
L 327.7152 118.250063 
L 325.152 118.778959 
L 322.5888 119.276994 
L 320.0256 119.743285 
L 317.4624 120.177074 
L 314.8992 120.577737 
L 312.336 120.944798 
L 309.7728 121.277936 
L 307.2096 121.576998 
L 304.6464 121.842006 
L 302.0832 122.073172 
L 299.52 122.270902 
L 296.9568 122.435816 
L 294.3936 122.568753 
L 291.8304 122.670788 
L 289.2672 122.74325 
L 286.704 122.787739 
L 284.1408 122.80616 
L 281.5776 122.800756 
L 279.0144 122.774077 
L 278.101812 122.760247 
L 275.538612 122.710635 
" clip-path="url(#pa5263275a4)" style="fill: none; stroke: #8b0000; stroke-opacity: 0.3; stroke-linecap: square"/>
   </g>
   <g id="line2d_32">
    <path d="M 427.68 31.36 
L 425.1168 33.195195 
L 422.5536 35.070272 
L 419.9904 36.98404 
L 417.4272 38.93519 
L 414.864 40.922286 
L 412.3008 42.943765 
L 409.7376 44.99793 
L 407.1744 47.082952 
L 404.6112 49.196859 
L 402.048 51.337542 
L 399.4848 53.502747 
L 396.9216 55.690073 
L 394.3584 57.896977 
L 391.7952 60.120766 
L 389.232 62.358601 
L 386.6688 64.607498 
L 384.1056 66.864328 
L 381.5424 69.125822 
L 378.9792 71.388573 
L 376.416 73.649041 
L 373.8528 75.903562 
L 371.2896 78.148352 
L 368.7264 80.379515 
L 366.1632 82.59306 
L 363.6 84.784907 
L 361.0368 86.950901 
L 358.4736 89.08683 
L 355.9104 91.188443 
L 353.3472 93.251465 
L 350.784 95.271621 
L 348.2208 97.244658 
L 345.6576 99.166368 
L 343.0944 101.032619 
L 340.5312 102.839376 
L 337.968 104.582734 
L 335.4048 106.25895 
L 332.8416 107.864473 
L 330.2784 109.395977 
L 327.7152 110.850395 
L 325.152 112.224952 
L 322.5888 113.517201 
L 320.0256 114.725057 
L 317.4624 115.84683 
L 314.8992 116.881257 
L 312.336 117.827537 
L 309.7728 118.685362 
L 307.2096 119.454942 
L 304.6464 120.137044 
L 302.0832 120.73301 
L 299.52 121.24479 
L 296.9568 121.674971 
L 294.3936 122.026802 
L 291.8304 122.304229 
L 289.2672 122.511935 
L 286.704 122.65539 
L 284.1408 122.740927 
L 281.5776 122.775839 
L 279.0144 122.768383 
L 278.101812 122.757774 
L 275.538612 122.710635 
" clip-path="url(#pa5263275a4)" style="fill: none; stroke: #8b0000; stroke-opacity: 0.3; stroke-linecap: square"/>
   </g>
   <g id="line2d_33">
    <path d="M 407.327218 -1 
L 407.1744 -0.803439 
L 404.6112 2.542554 
L 402.048 5.934693 
L 399.4848 9.369781 
L 396.9216 12.844386 
L 394.3584 16.354832 
L 391.7952 19.897194 
L 389.232 23.467296 
L 386.6688 27.060708 
L 384.1056 30.672741 
L 381.5424 34.298452 
L 378.9792 37.932639 
L 376.416 41.569847 
L 373.8528 45.204374 
L 371.2896 48.830276 
L 368.7264 52.441373 
L 366.1632 56.03127 
L 363.6 59.593362 
L 361.0368 63.120857 
L 358.4736 66.6068 
L 355.9104 70.044092 
L 353.3472 73.425525 
L 350.784 76.743813 
L 348.2208 79.991627 
L 345.6576 83.161644 
L 343.0944 86.246586 
L 340.5312 89.239275 
L 337.968 92.132689 
L 335.4048 94.920016 
L 332.8416 97.594725 
L 330.2784 100.150622 
L 327.7152 102.581927 
L 325.152 104.883344 
L 322.5888 107.050127 
L 320.0256 109.078161 
L 317.4624 110.964029 
L 314.8992 112.705083 
L 312.336 114.299516 
L 309.7728 115.746427 
L 307.2096 117.045881 
L 304.6464 118.198973 
L 302.0832 119.207877 
L 299.52 120.0759 
L 296.9568 120.807533 
L 294.3936 121.408495 
L 291.8304 121.885792 
L 289.2672 122.247769 
L 286.704 122.504198 
L 284.1408 122.66639 
L 281.5776 122.747365 
L 279.0144 122.761876 
L 278.101812 122.754946 
L 275.538612 122.710635 
" clip-path="url(#pa5263275a4)" style="fill: none; stroke: #8b0000; stroke-opacity: 0.3; stroke-linecap: square"/>
   </g>
   <g id="line2d_34">
    <path d="M 381.158826 -1 
L 378.9792 3.223588 
L 376.416 8.203839 
L 373.8528 13.190027 
L 371.2896 18.174317 
L 368.7264 23.148492 
L 366.1632 28.103966 
L 363.6 33.031791 
L 361.0368 37.922677 
L 358.4736 42.767011 
L 355.9104 47.554886 
L 353.3472 52.276132 
L 350.784 56.920361 
L 348.2208 61.477006 
L 345.6576 65.935386 
L 343.0944 70.284762 
L 340.5312 74.514413 
L 337.968 78.613717 
L 335.4048 82.572239 
L 332.8416 86.379829 
L 330.2784 90.02673 
L 327.7152 93.50369 
L 325.152 96.802084 
L 322.5888 99.914032 
L 320.0256 102.832535 
L 317.4624 105.551598 
L 314.8992 108.06636 
L 312.336 110.373219 
L 309.7728 112.469955 
L 307.2096 114.355841 
L 304.6464 116.031751 
L 302.0832 117.500254 
L 299.52 118.765704 
L 296.9568 119.83432 
L 294.3936 120.714254 
L 291.8304 121.415671 
L 289.2672 121.95083 
L 286.704 122.334188 
L 284.1408 122.582556 
L 281.5776 122.715334 
L 279.0144 122.754555 
L 278.101812 122.751766 
L 275.538612 122.710635 
" clip-path="url(#pa5263275a4)" style="fill: none; stroke: #8b0000; stroke-opacity: 0.3; stroke-linecap: square"/>
   </g>
   <g id="line2d_35">
    <path d="M 76.5216 224.082151 
L 79.0848 221.377543 
L 81.648 218.680611 
L 84.2112 215.993017 
L 86.7744 213.316427 
L 89.3376 210.652512 
L 91.9008 208.002948 
L 94.464 205.369409 
L 97.0272 202.753572 
L 99.5904 200.15711 
L 102.1536 197.581694 
L 104.7168 195.028988 
L 107.28 192.50065 
L 109.8432 189.998327 
L 112.4064 187.523656 
L 114.9696 185.078256 
L 117.5328 182.663733 
L 120.096 180.281671 
L 122.6592 177.933633 
L 125.2224 175.621157 
L 127.7856 173.345751 
L 130.3488 171.108894 
L 132.912 168.912032 
L 135.4752 166.75657 
L 138.0384 164.643877 
L 140.6016 162.575274 
L 143.1648 160.552038 
L 145.728 158.575394 
L 148.2912 156.646513 
L 150.8544 154.76651 
L 153.4176 152.936438 
L 155.9808 151.157287 
L 158.544 149.429977 
L 161.1072 147.755359 
L 163.6704 146.13421 
L 166.2336 144.567228 
L 168.7968 143.055032 
L 171.36 141.598155 
L 173.9232 140.197045 
L 176.4864 138.85206 
L 179.0496 137.563465 
L 181.6128 136.331431 
L 184.176 135.156031 
L 186.7392 134.037239 
L 189.3024 132.974928 
L 191.8656 131.968866 
L 194.4288 131.01872 
L 196.992 130.124047 
L 199.5552 129.2843 
L 202.1184 128.498824 
L 204.6816 127.766855 
L 207.2448 127.087521 
L 209.808 126.459843 
L 212.3712 125.882735 
L 214.9344 125.355002 
L 217.4976 124.875347 
L 220.0608 124.442367 
L 222.624 124.054556 
L 225.1872 123.71031 
L 227.7504 123.407925 
L 230.3136 123.145604 
L 232.8768 122.921457 
L 235.44 122.733504 
L 238.0032 122.57968 
L 240.5664 122.457838 
L 243.1296 122.365751 
L 245.6928 122.301116 
L 248.256 122.261558 
L 250.8192 122.244633 
L 253.3824 122.247828 
L 255.9456 122.268565 
L 258.5088 122.304198 
L 261.072 122.352015 
L 263.6352 122.409226 
L 266.1984 122.472955 
L 268.7616 122.540212 
L 271.3248 122.607851 
L 272.975412 122.650029 
L 275.538612 122.710635 
" clip-path="url(#pa5263275a4)" style="fill: none; stroke: #1f77b4; stroke-width: 3; stroke-linecap: square"/>
   </g>
   <g id="line2d_36">
    <path d="M 394.3584 57.896977 
L 391.7952 60.120766 
L 389.232 62.358601 
L 386.6688 64.607498 
L 384.1056 66.864328 
L 381.5424 69.125822 
L 378.9792 71.388573 
L 376.416 73.649041 
L 373.8528 75.903562 
L 371.2896 78.148352 
L 368.7264 80.379515 
L 366.1632 82.59306 
L 363.6 84.784907 
L 361.0368 86.950901 
L 358.4736 89.08683 
L 355.9104 91.188443 
L 353.3472 93.251465 
L 350.784 95.271621 
L 348.2208 97.244658 
L 345.6576 99.166368 
L 343.0944 101.032619 
L 340.5312 102.839376 
L 337.968 104.582734 
L 335.4048 106.25895 
L 332.8416 107.864473 
L 330.2784 109.395977 
L 327.7152 110.850395 
L 325.152 112.224952 
L 322.5888 113.517201 
L 320.0256 114.725057 
L 317.4624 115.84683 
L 314.8992 116.881257 
L 312.336 117.827537 
L 309.7728 118.685362 
L 307.2096 119.454942 
L 304.6464 120.137044 
L 302.0832 120.73301 
L 299.52 121.24479 
L 296.9568 121.674971 
L 294.3936 122.026802 
L 291.8304 122.304229 
L 289.2672 122.511935 
L 286.704 122.65539 
L 284.1408 122.740927 
L 281.5776 122.775839 
L 279.0144 122.768383 
L 278.101812 122.757774 
L 275.538612 122.710635 
" clip-path="url(#pa5263275a4)" style="fill: none; stroke: #ff7f0e; stroke-width: 3; stroke-linecap: square"/>
   </g>
   <g id="line2d_37">
    <defs>
     <path id="mb022339f41" d="M 0 3 
C 0.795609 3 1.55874 2.683901 2.12132 2.12132 
C 2.683901 1.55874 3 0.795609 3 0 
C 3 -0.795609 2.683901 -1.55874 2.12132 -2.12132 
C 1.55874 -2.683901 0.795609 -3 0 -3 
C -0.795609 -3 -1.55874 -2.683901 -2.12132 -2.12132 
C -2.683901 -1.55874 -3 -0.795609 -3 0 
C -3 0.795609 -2.683901 1.55874 -2.12132 2.12132 
C -1.55874 2.683901 -0.795609 3 0 3 
z
" style="stroke: #000000"/>
    </defs>
    <g clip-path="url(#pa5263275a4)">
     <use xlink:href="#mb022339f41" x="76.5216" y="224.082151" style="stroke: #000000"/>
    </g>
   </g>
   <g id="line2d_38">
    <g clip-path="url(#pa5263275a4)">
     <use xlink:href="#mb022339f41" x="394.3584" y="57.896977" style="stroke: #000000"/>
    </g>
   </g>
   <g id="patch_3">
    <path d="M 43.2 259.2 
L 43.2 2.88 
" style="fill: none; stroke: #000000; stroke-width: 0.8; stroke-linejoin: miter; stroke-linecap: square"/>
   </g>
   <g id="patch_4">
    <path d="M 427.68 259.2 
L 427.68 2.88 
" style="fill: none; stroke: #000000; stroke-width: 0.8; stroke-linejoin: miter; stroke-linecap: square"/>
   </g>
   <g id="patch_5">
    <path d="M 43.2 259.2 
L 427.68 259.2 
" style="fill: none; stroke: #000000; stroke-width: 0.8; stroke-linejoin: miter; stroke-linecap: square"/>
   </g>
   <g id="patch_6">
    <path d="M 43.2 2.88 
L 427.68 2.88 
" style="fill: none; stroke: #000000; stroke-width: 0.8; stroke-linejoin: miter; stroke-linecap: square"/>
   </g>
   <g id="text_7">
    <!-- $p_1$ -->
    <g transform="translate(53.73339 210.122975) scale(0.24 -0.24)">
     <defs>
      <path id="CMMI12-70" d="M 275 -789 
C 230 -980 205 -1031 -58 -1031 
C -134 -1031 -198 -1031 -198 -1152 
C -198 -1165 -192 -1216 -122 -1216 
C -38 -1216 51 -1216 134 -1216 
L 410 -1216 
C 544 -1216 870 -1216 1005 -1216 
C 1043 -1216 1120 -1216 1120 -1101 
C 1120 -1031 1075 -1031 966 -1031 
C 672 -1031 653 -987 653 -937 
C 653 -861 941 219 979 364 
C 1050 185 1222 -64 1555 -64 
C 2278 -64 3059 875 3059 1814 
C 3059 2401 2726 2816 2246 2816 
C 1837 2816 1491 2420 1421 2331 
C 1370 2650 1120 2816 864 2816 
C 678 2816 531 2727 410 2484 
C 294 2254 205 1865 205 1839 
C 205 1814 230 1782 275 1782 
C 326 1782 333 1788 371 1935 
C 467 2312 589 2689 845 2689 
C 992 2689 1043 2587 1043 2397 
C 1043 2245 1024 2181 998 2067 
L 275 -789 
z
M 1382 1993 
C 1427 2171 1606 2357 1709 2446 
C 1779 2510 1990 2689 2234 2689 
C 2515 2689 2643 2408 2643 2076 
C 2643 1769 2464 1047 2304 715 
C 2144 370 1850 64 1555 64 
C 1120 64 1050 613 1050 639 
C 1050 658 1062 709 1069 741 
L 1382 1993 
z
" transform="scale(0.015625)"/>
     </defs>
     <use xlink:href="#CMMI12-70" transform="scale(0.996264)"/>
     <use xlink:href="#CMR17-31" transform="translate(48.959514 -14.943915) scale(0.697382)"/>
    </g>
   </g>
   <g id="text_8">
    <!-- $p_2$ -->
    <g transform="translate(392.07579 38.241801) scale(0.24 -0.24)">
     <use xlink:href="#CMMI12-70" transform="scale(0.996264)"/>
     <use xlink:href="#CMR17-32" transform="translate(48.959514 -14.943915) scale(0.697382)"/>
    </g>
   </g>
   <g id="patch_7">
    <path d="M 237.725049 197.087261 
Q 247.85289 191.602778 257.980732 186.118295 
L 256.19503 182.820755 
Q 263.303621 181.245695 270.412212 179.670635 
Q 265.20837 184.763071 260.004527 189.855507 
L 258.218825 186.557967 
Q 248.090984 192.04245 237.963142 197.526933 
L 237.725049 197.087261 
z
" style="stroke: #000000; stroke-linecap: round"/>
   </g>
   <g id="text_9">
    <g id="patch_8">
     <path d="M 139.114249 221.521318 
L 232.538976 221.521318 
Q 237.938976 221.521318 237.938976 216.121318 
L 237.938976 200.179953 
Q 237.938976 194.779953 232.538976 194.779953 
L 139.114249 194.779953 
Q 133.714249 194.779953 133.714249 200.179953 
L 133.714249 216.121318 
Q 133.714249 221.521318 139.114249 221.521318 
z
" style="fill: #ffffff; stroke: #000000; stroke-linejoin: miter"/>
    </g>
    <!-- forbidden set -->
    <g transform="translate(139.114249 212.633253) scale(0.18 -0.18)">
     <defs>
      <path id="CMR17-66" d="M 979 2560 
L 1709 2560 
L 1709 2725 
L 966 2725 
L 966 3494 
C 966 4022 1235 4352 1510 4352 
C 1594 4352 1690 4327 1754 4282 
C 1702 4269 1568 4225 1568 4067 
C 1568 3901 1696 3850 1786 3850 
C 1875 3850 2003 3901 2003 4067 
C 2003 4308 1773 4454 1517 4454 
C 1152 4454 653 4156 653 3481 
L 653 2725 
L 141 2725 
L 141 2560 
L 653 2560 
L 653 427 
C 653 184 627 153 218 153 
L 218 -13 
C 371 0 666 0 832 0 
C 1018 0 1344 0 1517 -13 
L 1517 153 
C 1056 153 979 153 979 439 
L 979 2560 
z
" transform="scale(0.015625)"/>
      <path id="CMR17-6f" d="M 2758 1356 
C 2758 2176 2163 2816 1466 2816 
C 768 2816 173 2176 173 1356 
C 173 551 768 -64 1466 -64 
C 2163 -64 2758 551 2758 1356 
z
M 1466 51 
C 1165 51 909 230 762 480 
C 602 767 582 1126 582 1408 
C 582 1677 595 2010 762 2298 
C 890 2509 1139 2714 1466 2714 
C 1754 2714 1997 2554 2150 2330 
C 2349 2029 2349 1607 2349 1408 
C 2349 1158 2336 775 2163 467 
C 1984 173 1709 51 1466 51 
z
" transform="scale(0.015625)"/>
      <path id="CMR17-72" d="M 960 1497 
C 960 2112 1222 2688 1702 2688 
C 1747 2688 1792 2682 1837 2662 
C 1837 2662 1696 2617 1696 2452 
C 1696 2298 1818 2234 1914 2234 
C 1990 2234 2131 2279 2131 2458 
C 2131 2663 1926 2790 1709 2790 
C 1222 2790 1011 2317 947 2093 
L 941 2093 
L 941 2790 
L 198 2720 
L 198 2554 
C 576 2554 634 2515 634 2208 
L 634 428 
C 634 184 608 153 198 153 
L 198 -13 
C 352 0 646 0 813 0 
C 998 0 1325 0 1498 -13 
L 1498 153 
C 1037 153 960 153 960 440 
L 960 1497 
z
" transform="scale(0.015625)"/>
      <path id="CMR17-62" d="M 960 4396 
L 198 4326 
L 198 4160 
C 576 4160 634 4122 634 3817 
L 634 -13 
L 749 -13 
L 934 441 
C 1120 141 1395 -64 1766 -64 
C 2406 -64 3053 500 3053 1370 
C 3053 2188 2477 2790 1830 2790 
C 1434 2790 1152 2579 960 2330 
L 960 4396 
z
M 973 2004 
C 973 2118 973 2138 1062 2272 
C 1312 2657 1670 2688 1792 2688 
C 1984 2688 2643 2585 2643 1376 
C 2643 108 1888 38 1734 38 
C 1536 38 1248 114 1043 486 
C 973 608 973 621 973 735 
L 973 2004 
z
" transform="scale(0.015625)"/>
      <path id="CMR17-69" d="M 992 3909 
C 992 4049 877 4170 730 4170 
C 589 4170 467 4056 467 3909 
C 467 3769 582 3648 730 3648 
C 870 3648 992 3763 992 3909 
z
M 243 2706 
L 243 2541 
C 602 2541 653 2502 653 2197 
L 653 427 
C 653 184 627 153 218 153 
L 218 -13 
C 371 0 646 0 806 0 
C 960 0 1222 0 1370 -13 
L 1370 153 
C 992 153 979 191 979 420 
L 979 2776 
L 243 2706 
z
" transform="scale(0.015625)"/>
      <path id="CMR17-64" d="M 1869 4326 
L 1869 4160 
C 2246 4160 2304 4122 2304 3820 
L 2304 2345 
C 2278 2377 2016 2790 1498 2790 
C 845 2790 211 2208 211 1364 
C 211 525 806 -64 1434 -64 
C 1978 -64 2259 337 2291 380 
L 2291 -63 
L 3066 -63 
L 3066 128 
C 2688 128 2630 166 2630 473 
L 2630 4396 
L 1869 4326 
z
M 2291 755 
C 2291 563 2176 390 2029 262 
C 1811 70 1594 38 1472 38 
C 1286 38 621 134 621 1356 
C 621 2612 1363 2688 1530 2688 
C 1824 2688 2061 2522 2208 2291 
C 2291 2157 2291 2138 2291 2023 
L 2291 755 
z
" transform="scale(0.015625)"/>
      <path id="CMR17-65" d="M 2438 1472 
C 2464 1498 2464 1511 2464 1576 
C 2464 2238 2118 2816 1389 2816 
C 710 2816 173 2169 173 1383 
C 173 551 781 -64 1459 -64 
C 2176 -64 2458 607 2458 740 
C 2458 784 2419 784 2406 784 
C 2362 784 2355 771 2330 696 
C 2189 265 1837 51 1504 51 
C 1229 51 954 203 781 480 
C 582 803 582 1176 582 1472 
L 2438 1472 
z
M 589 1568 
C 634 2505 1126 2714 1382 2714 
C 1818 2714 2112 2297 2118 1568 
L 589 1568 
z
" transform="scale(0.015625)"/>
      <path id="CMR17-6e" d="M 2656 1933 
C 2656 2259 2592 2790 1837 2790 
C 1331 2790 1069 2400 973 2144 
L 966 2144 
L 966 2790 
L 211 2720 
L 211 2554 
C 589 2554 646 2515 646 2208 
L 646 428 
C 646 184 621 153 211 153 
L 211 -13 
C 365 0 646 0 813 0 
C 979 0 1267 0 1421 -13 
L 1421 153 
C 1011 153 986 178 986 428 
L 986 1658 
C 986 2247 1344 2688 1792 2688 
C 2266 2688 2317 2266 2317 1958 
L 2317 428 
C 2317 184 2291 153 1882 153 
L 1882 -13 
C 2035 0 2317 0 2483 0 
C 2650 0 2938 0 3091 -13 
L 3091 153 
C 2682 153 2656 178 2656 428 
L 2656 1933 
z
" transform="scale(0.015625)"/>
      <path id="CMR17-73" d="M 1978 2697 
C 1978 2813 1971 2819 1933 2819 
C 1907 2819 1901 2813 1824 2717 
C 1805 2691 1747 2626 1728 2601 
C 1523 2819 1235 2819 1126 2819 
C 416 2819 160 2447 160 2076 
C 160 1498 813 1365 998 1325 
C 1402 1243 1542 1217 1677 1101 
C 1760 1025 1901 884 1901 654 
C 1901 384 1747 38 1158 38 
C 602 38 403 460 288 1021 
C 269 1110 269 1117 218 1117 
C 166 1117 160 1110 160 983 
L 160 63 
C 160 -51 166 -58 205 -58 
C 237 -58 243 -51 275 0 
C 314 57 410 211 448 276 
C 576 103 800 -64 1158 -64 
C 1792 -64 2131 283 2131 784 
C 2131 1112 1958 1285 1875 1362 
C 1683 1561 1459 1606 1190 1657 
C 838 1735 390 1825 390 2217 
C 390 2383 480 2737 1126 2737 
C 1811 2737 1850 2094 1862 1888 
C 1869 1856 1901 1849 1920 1849 
C 1978 1849 1978 1869 1978 1978 
L 1978 2697 
z
" transform="scale(0.015625)"/>
      <path id="CMR17-74" d="M 966 2560 
L 1862 2560 
L 1862 2725 
L 966 2725 
L 966 3904 
L 851 3904 
C 838 3245 614 2668 70 2668 
L 70 2560 
L 627 2560 
L 627 771 
C 627 650 627 -64 1370 -64 
C 1747 -64 1965 306 1965 777 
L 1965 1140 
L 1850 1140 
L 1850 783 
C 1850 344 1677 51 1408 51 
C 1222 51 966 178 966 758 
L 966 2560 
z
" transform="scale(0.015625)"/>
     </defs>
     <use xlink:href="#CMR17-66" transform="scale(0.996264)"/>
     <use xlink:href="#CMR17-6f" transform="translate(27.473512 0) scale(0.996264)"/>
     <use xlink:href="#CMR17-72" transform="translate(73.16399 0) scale(0.996264)"/>
     <use xlink:href="#CMR17-62" transform="translate(108.444757 0) scale(0.996264)"/>
     <use xlink:href="#CMR17-69" transform="translate(159.340127 0) scale(0.996264)"/>
     <use xlink:href="#CMR17-64" transform="translate(184.211186 0) scale(0.996264)"/>
     <use xlink:href="#CMR17-64" transform="translate(235.106555 0) scale(0.996264)"/>
     <use xlink:href="#CMR17-65" transform="translate(286.001925 0) scale(0.996264)"/>
     <use xlink:href="#CMR17-6e" transform="translate(326.487586 0) scale(0.996264)"/>
     <use xlink:href="#CMR17-73" transform="translate(407.458922 0) scale(0.996264)"/>
     <use xlink:href="#CMR17-65" transform="translate(443.260259 0) scale(0.996264)"/>
     <use xlink:href="#CMR17-74" transform="translate(483.74592 0) scale(0.996264)"/>
    </g>
   </g>
   <g id="patch_9">
    <path d="M 272.975412 114.166635 
L 278.101812 114.166635 
L 278.101812 -170.633365 
L 272.975412 -170.633365 
z
" clip-path="url(#pa5263275a4)" style="fill: #808080; stroke: #000000"/>
   </g>
   <g id="patch_10">
    <path d="M 272.975412 131.254635 
L 278.101812 131.254635 
L 278.101812 416.054635 
L 272.975412 416.054635 
z
" clip-path="url(#pa5263275a4)" style="fill: #808080; stroke: #000000"/>
   </g>
  </g>
 </g>
 <defs>
  <clipPath id="pa5263275a4">
   <rect x="43.2" y="2.88" width="384.48" height="256.32"/>
  </clipPath>
 </defs>
</svg>
